<?xml version="1.0" encoding="utf-8"?>
<!-- Generator: Adobe Illustrator 23.1.0, SVG Export Plug-In . SVG Version: 6.00 Build 0)  -->
<svg version="1.1" id="Layer_1" focusable="false" xmlns="http://www.w3.org/2000/svg" xmlns:xlink="http://www.w3.org/1999/xlink"
	 x="0px" y="0px" viewBox="0 0 352 512" enable-background="new 0 0 352 512" xml:space="preserve">
<path d="M242.72,256l100.07-100.07c12.28-12.28,12.28-32.19,0-44.48l-22.24-22.24c-12.28-12.28-32.19-12.28-44.48,0L176,189.28
	L75.93,89.21c-12.28-12.28-32.19-12.28-44.48,0L9.21,111.45c-12.28,12.28-12.28,32.19,0,44.48L109.28,256L9.21,356.07
	c-12.28,12.28-12.28,32.19,0,44.48l22.24,22.24c12.28,12.28,32.2,12.28,44.48,0L176,322.72l100.07,100.07
	c12.28,12.28,32.2,12.28,44.48,0l22.24-22.24c12.28-12.28,12.28-32.19,0-44.48L242.72,256z"/>
</svg>
