<?xml version="1.0" encoding="utf-8"?>
<!-- Generator: Adobe Illustrator 23.1.0, SVG Export Plug-In . SVG Version: 6.00 Build 0)  -->
<svg version="1.1" id="Layer_1" focusable="false" xmlns="http://www.w3.org/2000/svg" xmlns:xlink="http://www.w3.org/1999/xlink"
	 x="0px" y="0px" viewBox="0 0 512 512" enable-background="new 0 0 512 512" xml:space="preserve">
<path d="M232,218c0,15.464-12.536,28-28,28s-28-12.536-28-28c0-44.112,35.888-80,80-80s80,35.888,80,80c0,15.464-12.536,28-28,28
	s-28-12.536-28-28c0-13.234-10.767-24-24-24S232,204.766,232,218z M256,42c-97.047,0-176,78.953-176,176c0,15.464,12.536,28,28,28
	s28-12.536,28-28c0-66.168,53.832-120,120-120s120,53.832,120,120c0,75.164-71.009,70.311-71.997,143.622L304,362
	c0,28.673-23.327,52-52,52c-15.464,0-28,12.536-28,28s12.536,28,28,28c59.475,0,107.876-48.328,108-107.774
	c0.595-34.428,72-48.24,72-144.226C432,120.953,353.047,42,256,42z"/>
</svg>
