<?xml version="1.0" encoding="utf-8"?>
<!-- Generator: Adobe Illustrator 23.1.0, SVG Export Plug-In . SVG Version: 6.00 Build 0)  -->
<svg version="1.1" id="Layer_1" focusable="false" xmlns="http://www.w3.org/2000/svg" xmlns:xlink="http://www.w3.org/1999/xlink"
	 x="0px" y="0px" viewBox="0 0 576 576" enable-background="new 0 0 576 576" xml:space="preserve">
<path d="M288,176c-10.599,0.166-21.119,1.849-31.24,5c4.682,8.233,7.174,17.529,7.24,27c0,30.928-25.072,56-56,56
	c-9.471-0.066-18.767-2.558-27-7.24c-17.093,59.281,17.107,121.194,76.388,138.287c59.281,17.093,121.194-17.107,138.287-76.388
	s-17.107-121.194-76.388-138.287C309.117,177.44,298.583,175.968,288,176z M572.52,273.4C518.29,167.59,410.93,96,288,96
	S57.68,167.64,3.48,273.41c-4.639,9.177-4.639,20.013,0,29.19C57.71,408.41,165.07,480,288,480s230.32-71.64,284.52-177.41
	C577.159,293.413,577.159,282.577,572.52,273.4z M288,432c-98.65,0-189.09-55-237.93-144C98.91,199,189.34,144,288,144
	s189.09,55,237.93,144C477.1,377,386.66,432,288,432z"/>
</svg>
