<?xml version="1.0" encoding="utf-8"?>
<!-- Generator: Adobe Illustrator 23.0.1, SVG Export Plug-In . SVG Version: 6.00 Build 0)  -->
<svg version="1.1" id="Layer_1" xmlns="http://www.w3.org/2000/svg" xmlns:xlink="http://www.w3.org/1999/xlink" x="0px" y="0px"
	 width="100px" height="100px" viewBox="0 0 100 100" enable-background="new 0 0 100 100" xml:space="preserve">
<g opacity="0.85">
	<path fill="#FFFFFF" d="M98,2v96H2V2H98 M100,0H0v100h100V0L100,0z"/>
</g>
<g opacity="0.85">
	<path fill="#FFFFFF" d="M37.123,53.18h-4.798l-2.033-5.961H18.583L16.55,53.18h-4.798l10.876-29.663h3.618L37.123,53.18z
		 M29.032,43.394l-4.493-13.163l-4.615,13.163H29.032z"/>
	<path fill="#FFFFFF" d="M65.57,32.062L58.999,53.18h-3.621l-4.964-14.75L45.49,53.18h-3.662l-6.551-21.118h4.517l4.069,14.872
		l4.924-14.872h3.296l4.862,14.872l4.089-14.872H65.57z"/>
	<path fill="#FFFFFF" d="M88.346,44.716c0,1.316-0.258,2.52-0.773,3.612c-0.516,1.092-1.258,2.021-2.228,2.787
		c-0.97,0.767-2.099,1.343-3.387,1.729c-1.289,0.387-2.713,0.58-4.272,0.58c-2.265,0-4.235-0.303-5.91-0.91
		c-1.675-0.607-3.211-1.612-4.608-3.016c0,0-0.611-0.606-0.959-1.204l2.73-3.173c0.523,0.677,1.24,1.406,1.24,1.406
		c0.664,0.678,1.394,1.235,2.187,1.668c0.793,0.434,1.638,0.739,2.533,0.916c0.895,0.177,1.851,0.264,2.869,0.264
		c1.912,0,3.411-0.399,4.496-1.198c1.085-0.798,1.628-1.915,1.628-3.351c0-1.34-0.393-2.362-1.18-3.066
		c-0.353-0.352-0.763-0.619-1.231-0.802s-1.136-0.335-2.004-0.457l-3.499-0.488c-2.415-0.339-4.293-1.132-5.636-2.38
		c-1.438-1.342-2.157-3.227-2.157-5.654c0-1.722,0.4-3.241,1.2-4.556c0.8-1.316,1.946-2.336,3.438-3.062
		c1.492-0.726,3.248-1.088,5.269-1.088c1.994,0,3.716,0.269,5.168,0.808c1.451,0.539,2.801,1.394,4.049,2.567l-2.889,2.851
		c-0.597-0.583-1.235-1.041-1.912-1.373c-0.678-0.332-1.383-0.57-2.116-0.712S78.852,27.2,77.97,27.2
		c-1.126,0-2.096,0.197-2.909,0.589c-0.814,0.392-1.434,0.938-1.862,1.635c-0.427,0.697-0.641,1.493-0.641,2.386
		c0,1.178,0.373,2.098,1.119,2.762c0.366,0.312,0.848,0.592,1.445,0.843c0.597,0.251,1.227,0.423,1.892,0.518l3.377,0.508
		c1.356,0.203,2.465,0.477,3.326,0.822c0.861,0.345,1.597,0.802,2.207,1.37C87.539,40.044,88.346,42.072,88.346,44.716z"/>
</g>
<g opacity="0.85">
	<polygon fill="#FFFFFF" points="22.15,76.129 20.732,76.129 18.546,68.605 16.375,76.129 14.957,76.129 12.153,65.393 
		13.871,65.393 15.741,73.068 17.898,65.393 19.21,65.393 21.365,73.068 23.235,65.393 24.954,65.393 	"/>
	<path fill="#FFFFFF" d="M30.157,76.129V71.44c0-1.161-0.678-1.674-1.538-1.674c-0.859,0-1.553,0.528-1.553,1.674v4.689h-1.538
		V65.393h1.538v3.86c0.528-0.572,1.221-0.859,1.975-0.859c1.704,0,2.654,1.146,2.654,2.804v4.931H30.157z"/>
	<path fill="#FFFFFF" d="M37.292,70.641c-0.241-0.573-0.784-0.965-1.508-0.965c-0.724,0-1.282,0.392-1.523,0.965
		c-0.151,0.347-0.181,0.573-0.196,1.04h3.438C37.487,71.213,37.442,70.987,37.292,70.641 M34.065,72.751
		c0,1.312,0.693,2.141,1.945,2.141c0.86,0,1.312-0.241,1.855-0.784l0.98,0.92c-0.784,0.784-1.523,1.192-2.865,1.192
		c-1.915,0-3.438-1.011-3.438-3.921c0-2.472,1.282-3.905,3.242-3.905c2.05,0,3.242,1.507,3.242,3.679v0.678H34.065z"/>
	<path fill="#FFFFFF" d="M44.132,70.279c-0.347-0.347-0.618-0.512-1.146-0.512c-0.829,0-1.523,0.663-1.523,1.719v4.643h-1.537
		v-7.644h1.507v0.829c0.393-0.543,1.177-0.92,2.036-0.92c0.738,0,1.297,0.196,1.824,0.724L44.132,70.279z"/>
	<path fill="#FFFFFF" d="M49.795,70.641c-0.241-0.573-0.784-0.965-1.508-0.965c-0.724,0-1.282,0.392-1.523,0.965
		c-0.151,0.347-0.181,0.573-0.196,1.04h3.438C49.991,71.213,49.946,70.987,49.795,70.641 M46.568,72.751
		c0,1.312,0.693,2.141,1.945,2.141c0.859,0,1.312-0.241,1.855-0.784l0.98,0.92c-0.784,0.784-1.523,1.192-2.865,1.192
		c-1.915,0-3.438-1.011-3.438-3.921c0-2.472,1.282-3.905,3.242-3.905c2.05,0,3.242,1.507,3.242,3.679v0.678H46.568z"/>
	<path fill="#FFFFFF" d="M55.72,76.219c-1.613,0-2.774-0.377-3.8-1.417l1.086-1.07c0.784,0.783,1.643,1.025,2.744,1.025
		c1.403,0,2.217-0.603,2.217-1.643c0-0.467-0.136-0.86-0.423-1.116c-0.271-0.257-0.542-0.362-1.176-0.452l-1.267-0.181
		c-0.874-0.121-1.567-0.423-2.035-0.86c-0.528-0.497-0.784-1.176-0.784-2.05c0-1.87,1.357-3.152,3.588-3.152
		c1.417,0,2.412,0.362,3.332,1.222l-1.041,1.025c-0.663-0.633-1.433-0.829-2.337-0.829c-1.267,0-1.961,0.723-1.961,1.673
		c0,0.392,0.121,0.739,0.407,0.995c0.272,0.242,0.708,0.423,1.207,0.498l1.221,0.181c0.995,0.151,1.553,0.392,2.006,0.799
		c0.588,0.512,0.874,1.282,0.874,2.202C59.58,75.044,57.967,76.219,55.72,76.219"/>
	<path fill="#FFFFFF" d="M63.639,76.219c-1.719,0-3.408-1.056-3.408-3.92c0-2.865,1.688-3.906,3.408-3.906
		c1.056,0,1.794,0.302,2.518,1.071l-1.056,1.025c-0.482-0.527-0.859-0.723-1.462-0.723c-0.588,0-1.086,0.241-1.418,0.678
		c-0.332,0.423-0.452,0.965-0.452,1.855c0,0.889,0.121,1.448,0.452,1.869c0.332,0.438,0.829,0.678,1.418,0.678
		c0.603,0,0.98-0.196,1.462-0.723l1.056,1.01C65.433,75.903,64.695,76.219,63.639,76.219"/>
	<path fill="#FFFFFF" d="M71.113,72.751h-1.794c-0.905,0-1.372,0.408-1.372,1.101c0,0.693,0.438,1.086,1.402,1.086
		c0.588,0,1.025-0.046,1.433-0.438c0.226-0.227,0.332-0.588,0.332-1.131V72.751z M71.143,76.129v-0.693
		c-0.558,0.557-1.086,0.784-2.036,0.784s-1.583-0.227-2.051-0.694c-0.392-0.407-0.603-0.995-0.603-1.643
		c0-1.282,0.889-2.202,2.638-2.202h2.021v-0.543c0-0.965-0.482-1.432-1.674-1.432c-0.844,0-1.251,0.196-1.673,0.739l-1.01-0.95
		c0.723-0.845,1.478-1.101,2.744-1.101c2.096,0,3.151,0.889,3.151,2.623v5.112H71.143z"/>
	<path fill="#FFFFFF" d="M76.812,69.766c-1.388,0-1.598,1.176-1.598,2.533c0,1.357,0.211,2.548,1.598,2.548
		c1.387,0,1.583-1.192,1.583-2.548C78.396,70.942,78.199,69.766,76.812,69.766 M79.074,75.541c-0.423,0.423-1.086,0.678-1.855,0.678
		c-0.814,0-1.448-0.211-2.005-0.874v3.875h-1.538V68.484h1.508v0.814c0.573-0.693,1.191-0.904,2.02-0.904
		c0.769,0,1.447,0.256,1.87,0.678c0.769,0.769,0.859,2.066,0.859,3.227C79.933,73.46,79.843,74.772,79.074,75.541"/>
	<path fill="#FFFFFF" d="M85.313,70.641c-0.241-0.573-0.784-0.965-1.507-0.965c-0.724,0-1.282,0.392-1.523,0.965
		c-0.151,0.347-0.181,0.573-0.196,1.04h3.438C85.509,71.213,85.464,70.987,85.313,70.641 M82.086,72.751
		c0,1.312,0.693,2.141,1.945,2.141c0.859,0,1.312-0.241,1.855-0.784l0.98,0.92c-0.784,0.784-1.523,1.192-2.865,1.192
		c-1.915,0-3.438-1.011-3.438-3.921c0-2.472,1.282-3.905,3.242-3.905c2.051,0,3.242,1.507,3.242,3.679v0.678H82.086z"/>
	<path fill="#FFFFFF" d="M88.699,66.469h-0.332v0.592h0.332c0.192,0,0.322-0.13,0.322-0.297
		C89.021,66.6,88.891,66.469,88.699,66.469 M89.021,68.128l-0.402-0.779h-0.252v0.779h-0.362v-1.965h0.739
		c0.372,0,0.633,0.277,0.633,0.602c0,0.277-0.171,0.457-0.387,0.533l0.438,0.829H89.021z M88.639,65.665
		c-0.814,0-1.458,0.653-1.458,1.482c0,0.829,0.643,1.483,1.458,1.483c0.814,0,1.452-0.653,1.452-1.483
		C90.092,66.318,89.454,65.665,88.639,65.665 M88.639,68.967c-1.005,0-1.819-0.814-1.819-1.819c0-1.005,0.814-1.819,1.819-1.819
		c1.005,0,1.819,0.814,1.819,1.819C90.459,68.153,89.644,68.967,88.639,68.967"/>
</g>
</svg>
