<?xml version="1.0" encoding="utf-8"?>
<!-- Generator: Adobe Illustrator 25.4.1, SVG Export Plug-In . SVG Version: 6.00 Build 0)  -->
<svg version="1.1" id="Layer_1" xmlns="http://www.w3.org/2000/svg" xmlns:xlink="http://www.w3.org/1999/xlink" x="0px" y="0px"
	 width="96px" height="96px" viewBox="0 0 96 96" enable-background="new 0 0 96 96" xml:space="preserve">
<rect x="-16" y="-13" display="none" width="128" height="118"/>
<g>
	<g id="Layer_1-2">
		<path fill="#FFFFFF" d="M21.479,13.739h0.576c1.215,0.229,2.389,0.637,3.485,1.21c1.304,0.608,2.556,1.321,3.744,2.131
			c1.091,0.785,2.121,1.652,3.082,2.592c1.072,0.894,2.253,1.649,3.514,2.247c1.722,0.619,3.495,1.082,5.3,1.383
			c1.757,0.317,4.436,0.893,5.962,1.267c1.698,0.433,3.355,1.011,4.954,1.728c1.267,0.547,3.514,1.786,5.185,2.88
			c1.294,0.805,4.666,2.362,4.666,2.362l5.761,5.3c1.008,1.123,2.506,2.65,3.312,3.514l0.547,0.432l2.362,2.045l1.037,0.806
			l1.786,1.469c0.84,0.599,1.539,1.376,2.045,2.275c0.233,0.349,0.233,0.803,0,1.152c-0.192,0.369-0.564,0.61-0.979,0.634
			c0.226,0.229,0.428,0.48,0.605,0.749c0.265,0.439,0.432,0.931,0.49,1.44c-0.022,0.627-0.344,1.205-0.864,1.555
			c-0.5,0.317-1.079,0.487-1.671,0.49h-0.288l0.173,0.403c0.202,0.547,0.576,1.383,0.979,2.247c0.727,1.451,1.575,2.838,2.535,4.148
			l3.053,4.119c0.893,1.066,2.506,3.485,3.716,5.386c1.057,1.603,2.019,3.267,2.88,4.983c0.432,0.893,0.605,1.181,0.922,1.728
			c0.136,0.316,0.29,0.623,0.461,0.922c0.312,0.929,0.477,1.901,0.49,2.88c0,0.806-0.346,2.103-1.008,2.362
			c-0.323,0.085-0.626,0.231-0.893,0.432c-0.552,0.293-1.162,0.46-1.786,0.49h-2.592c-0.985-0.013-1.959-0.198-2.88-0.547
			c-1.435-1.057-2.698-2.33-3.744-3.773c-1.296-1.613-3.514-4.896-5.329-7.402c-1.815-2.506-2.88-4.522-4.032-6.049l-0.461-0.749
			c-0.9-1.347-1.943-2.593-3.111-3.716c-1.187-0.845-2.45-1.578-3.773-2.189c-1.288-0.568-2.617-1.04-3.975-1.411l-1.498-0.346
			l-0.893-0.173c-0.185,0.317-0.33,0.655-0.432,1.008c-0.23,0.893-0.95,3.168-1.699,5.213c-0.749,2.045-1.527,4.637-1.815,5.761
			c-0.288,1.236-0.375,2.51-0.259,3.773c0.104,0.709,0.381,1.382,0.806,1.959l3.514,2.506c1.56,1.04,3.27,1.836,5.069,2.362
			c1.267,0.259,4.004,0.634,6.25,0.864c1.43-0.047,2.845,0.302,4.09,1.008v0.403c0,0.317-0.317,0.864-4.522,0.864h-0.979
			c-1.221-0.158-2.458,0.128-3.485,0.806c-0.317,0.346,0,0,0,0.317c0.72,1.21,2.275,4.148,2.88,5.386
			c1.527,3.14,1.239,3.514,1.037,3.514l-0.23,0.23h-0.49c-1.708-2.009-3.231-4.169-4.551-6.452
			c-1.749-2.782-3.904-5.287-6.394-7.431c-0.659-0.497-1.431-0.824-2.247-0.95l0,0c-0.062,0.745-0.526,1.397-1.21,1.699h-0.749v0.23
			h-0.95c-0.96-0.06-1.885-0.378-2.679-0.922c-0.797-0.809-1.389-1.796-1.728-2.88v-0.403c-0.021-0.368-0.175-0.716-0.432-0.979l0,0
			c-1.546-0.452-3.05-1.04-4.493-1.757l-3.111-1.354c-0.936-0.376-1.825-0.86-2.65-1.44c-0.23-0.202-0.346-0.202-0.374-0.202
			c-0.235,0.721-0.629,1.381-1.152,1.93c-0.181,0.227-0.459,0.355-0.749,0.346h-0.374c-0.506-0.225-0.894-0.654-1.066-1.181
			c0.029,0.22,0.029,0.443,0,0.662c-0.235,0.717-0.714,1.328-1.354,1.728c-0.37,0.232-0.803,0.342-1.239,0.317
			c-0.356,0.006-0.709-0.063-1.037-0.202c-0.842-0.54-1.343-1.477-1.325-2.477v-3.399c0.053-0.727,0.159-1.449,0.317-2.16
			c-0.473-0.511-1.028-0.939-1.642-1.267c-1.239-0.691-6.362-3.872-6.103-4.88c0.076-0.293,0.292-0.53,0.576-0.634h0.605
			c0.792,0.034,5.563,2.261,6.247,2.662l2.88,1.584c0.2-0.078,0.393-0.175,0.576-0.288c0.733-0.458,1.493-0.871,2.275-1.239
			c0.806-0.346,2.189-0.864,3.14-1.21c0.875-0.316,1.731-0.681,2.563-1.095l0.634-0.461c-0.63-0.55-1.294-1.059-1.987-1.527
			c-1.5-1.083-2.934-2.257-4.292-3.514c-1.394-1.274-2.877-2.448-4.436-3.514c-1.628-1.224-3.133-2.603-4.493-4.119
			c-1.272-1.325-2.446-2.74-3.514-4.234c-0.978-1.701-1.642-3.565-1.959-5.501v-0.49c-0.12-1.083-0.596-2.096-1.354-2.88
			c-1.028-0.764-1.991-1.612-2.88-2.535l-0.893-1.181c-0.208-0.227-0.4-0.468-0.576-0.72h-0.403c-0.268-0.029-0.538-0.029-0.806,0
			c-0.819,0.162-1.627,0.373-2.419,0.634l-0.605,0.173H5.522c-0.311,0.035-0.623-0.059-0.864-0.259
			c-0.113-0.217-0.113-0.475,0-0.691c0.849-0.906,1.818-1.691,2.88-2.333c1.296-0.893,3.053-1.959,3.86-2.477
			c0.595-0.366,1.122-0.834,1.555-1.383c0.086-0.232,0.086-0.488,0-0.72l-0.806-1.21l-0.72-0.979
			C10.644,18.688,9.68,18,8.604,17.541l-2.362-0.806H5.868c-0.637-0.205-1.225-0.538-1.728-0.979c0,0-0.72-0.576-0.49-1.095l0,0
			c0,0,0.259-0.346,2.535-0.346c1.244-0.025,2.482,0.17,3.658,0.576h1.267c0.765,0.011,1.528-0.067,2.275-0.23
			c0.671-0.288,1.378-0.482,2.103-0.576l3.485-0.346h2.621 M45.126,72.439h0.23c0.81-0.118,1.554-0.515,2.103-1.123
			c0.613-1.135,1.152-2.309,1.613-3.514c0.49-1.44,1.325-3.917,1.815-5.53c0.437-1.128,0.718-2.31,0.835-3.514
			c0-0.346-0.605-0.806-1.267-1.008c-0.699-0.224-1.426-0.35-2.16-0.374c-0.713,0.125-1.385,0.421-1.959,0.864l-1.728,1.411
			c-1.006,0.495-2.057,0.89-3.14,1.181c-1.527,0.432-3.024,0.922-4.493,1.498l-3.6,1.296c-0.649,0.235-1.238,0.609-1.728,1.095
			c-0.231,0.36-0.231,0.821,0,1.181c0.701,0.793,1.528,1.464,2.448,1.987c1.31,0.825,2.666,1.576,4.061,2.247l3.888,1.699
			c0.92,0.364,1.892,0.578,2.88,0.634 M21.422,11.262h-2.88l-3.456,0.518c-0.888,0.129-1.758,0.361-2.592,0.691h-2.016
			c-1.429-0.481-2.928-0.725-4.436-0.72c-1.987,0-3.716,0-4.724,1.584l0,0v0.23c-0.423,0.914-0.423,1.967,0,2.88
			c0.265,0.415,0.596,0.785,0.979,1.095c0.763,0.693,1.667,1.214,2.65,1.527h0.49l2.016,0.778c0.581,0.34,1.105,0.767,1.555,1.267
			l0.49,0.662l-3.514,2.333c-2.967,2.074-3.37,3.024-3.543,3.514c-0.546,1.17-0.342,2.552,0.518,3.514
			c0.724,0.821,1.789,1.257,2.88,1.181c0.544-0.017,1.085-0.094,1.613-0.23h0.605l1.959-0.518l0,0l0.634,0.778
			c0.976,1.055,2.046,2.019,3.197,2.88c0.145,0.275,0.26,0.565,0.346,0.864v0.691c0.337,2.349,1.109,4.615,2.275,6.682
			c1.065,1.605,2.239,3.136,3.514,4.58c1.525,1.564,3.193,2.982,4.983,4.234c1.439,1.069,2.796,2.244,4.061,3.514
			c0.981,0.936,2.009,1.821,3.082,2.65l-2.333,0.922c-0.432,0.202-1.152,0.518-1.815,0.893c0,0-5.96,2.744-5.444,6.509l0,0v4.32
			c-0.056,2.049,1.063,3.95,2.88,4.896c1.52,0.665,3.267,0.558,4.695-0.288c0.377-0.237,0.725-0.518,1.037-0.835h0.346
			c1.011-0.013,1.974-0.427,2.679-1.152C34.153,73.707,35,73,36,71l6,2c0,2,0,2,0.246,3.788v0.317
			c0.522,1.566,1.434,2.973,2.65,4.09c1.241,0.955,2.755,1.489,4.32,1.527c0,0,2.166,0.418,3.975-1.152
			C55,80,53.969,72.641,53.969,72.641v-0.374c-0.046-0.966,0.031-1.934,0.23-2.88c0.202-0.893,0.979-3.312,1.699-5.444
			c0.461-1.239,1.037-2.88,1.383-4.061l0,0c1.19,0.317,2.355,0.721,3.485,1.21c1.11,0.544,2.179,1.17,3.197,1.872
			c0.955,0.95,1.813,1.992,2.563,3.111l0.49,0.72l0.49,1.066c1.037,1.527,2.391,3.514,3.485,5.329
			c1.699,2.506,4.148,5.761,5.444,7.575c1.308,1.745,2.894,3.263,4.695,4.493c1.242,0.514,2.573,0.778,3.917,0.778h2.88
			c1.077-0.036,2.127-0.343,3.053-0.893h0.173c1.711-0.862,2.767-2.637,2.707-4.551v-0.23c0.005-1.355-0.229-2.701-0.691-3.975l0,0
			l-0.403-1.44v-0.259l-0.806-1.555c-0.49-1.095-2.189-3.773-3.053-5.185c-1.296-2.045-2.88-4.436-3.86-5.559l-3.024-4.032
			c-0.811-1.185-1.551-2.416-2.218-3.687c1.105-0.843,1.789-2.126,1.872-3.514v-0.374c-0.046-0.482-0.152-0.956-0.317-1.411
			c0.574-1.091,0.574-2.394,0-3.485c-0.735-1.241-1.715-2.319-2.88-3.168l-1.411-1.152l-0.317-0.23l-0.893-0.749l-2.16-2.016
			l-0.547-0.518c-0.662-0.576-2.131-2.074-3.082-3.14c-0.95-1.066-2.88-2.88-4.81-4.839c0,0-5.053-2.797-5.962-3.312
			c-1.642-0.979-4.09-2.275-5.444-2.88c-1.77-0.748-3.588-1.374-5.444-1.872c-1.527-0.374-4.263-0.95-6.135-1.296
			c-1.613-0.263-3.196-0.687-4.724-1.267c-1.034-0.443-2.003-1.024-2.88-1.728c-1.03-1.031-2.127-1.994-3.284-2.88
			c-1.331-0.923-2.738-1.733-4.205-2.419c-1.453-0.739-3.021-1.226-4.637-1.44L21.422,11.262z M47.949,60.227
			c0.159-0.119,0.334-0.216,0.518-0.288h0.317c-0.075,0.507-0.221,1.002-0.432,1.469c-0.49,1.613-1.325,4.061-1.815,5.473
			c-0.35,0.986-0.764,1.948-1.239,2.88h-0.202C44.429,69.703,41.631,72.229,41,72c-0.979-0.374-2.934-1.482-4-2
			c-1.304-0.633-2-3-1.407-4.416l0,0l1.095-0.461l1.296-0.518c1.365-0.549,2.759-1.02,4.176-1.411
			c1.341-0.345,2.637-0.848,3.86-1.498l0,0c0.374-0.288,1.152-0.864,1.728-1.411L47.949,60.227z"/>
		<path fill="#FFFFFF" d="M88.088,0l0.288,0.691l1.699,4.58l5.156,14.401c0.6,2.642-1.007,5.282-3.629,5.962
			c-0.667,0.315-1.394,0.482-2.131,0.49c-1.914-0.006-3.657-1.101-4.493-2.823c-0.493-2.585,1.109-5.107,3.658-5.761
			c0.67-0.274,1.38-0.439,2.103-0.49h0.259L87.425,6.913l-11.089,7.086l5.386,14.833c0.45,3.005-1.622,5.805-4.626,6.255
			c-2.209,0.331-4.398-0.707-5.541-2.626c-0.619-2.635,0.98-5.283,3.6-5.962c0.681-0.261,1.403-0.398,2.131-0.403h0.288
			l-3.946-10.571l-1.671-4.752L88.088,0"/>
	</g>
</g>
<path fill="#FFFFFF" d="M66.757,80.59c-2.247-0.23-4.983-0.605-6.25-0.864c-1.8-0.526-3.509-1.322-5.069-2.362l-3.514-2.506
	C52,76,52,77,51.866,78.286c0.816,0.127,1.587,0.453,2.247,0.951c2.49,2.144,4.645,4.649,6.394,7.431
	c1.32,2.283,2.843,4.443,4.551,6.452h0.49l0.23-0.23c0.202,0,0.49-0.374-1.037-3.514c-0.605-1.239-2.16-4.176-2.88-5.386
	c0-0.317-0.317,0.029,0-0.317c1.027-0.679,2.264-0.965,3.485-0.807h0.979c4.205,0,4.522-0.547,4.522-0.864v-0.403
	C69.603,80.893,68.188,80.544,66.757,80.59z"/>
<g>
	<path fill="#FFFFFF" d="M28.075,63.309l-2.88-1.584c-0.683-0.401-1.455-0.629-2.247-0.662h-0.605
		c-0.284,0.104-0.5,0.341-0.576,0.634c-0.259,1.008,0.864,2.189,2.103,2.88c0.614,0.328,1.169,0.757,1.642,1.267
		C26,65,27,64,28.075,63.309z"/>
	<path fill="#FFFFFF" d="M45.357,72.439h-0.23l-0.202,0.029c-0.988-0.056-1.96-0.27-2.88-0.634l-3.888-1.699
		c-1.395-0.671-2.751-1.421-4.061-2.247c-0.832-0.473-1.574-1.082-2.23-1.778C31.951,66.992,33,70,33.49,70.279
		c0.029,0,0.144,0,0.374,0.202c0.825,0.58,1.714,1.064,2.65,1.44l3.111,1.354c1.443,0.717,2.947,1.305,4.493,1.757
		c0.258,0.264,0.411,0.611,0.432,0.979C44.55,76.011,44,74,45.357,72.439z"/>
</g>
</svg>
