<?xml version="1.0" encoding="utf-8"?>
<!-- Generator: Adobe Illustrator 25.4.1, SVG Export Plug-In . SVG Version: 6.00 Build 0)  -->
<svg version="1.1" id="Layer_1" xmlns="http://www.w3.org/2000/svg" xmlns:xlink="http://www.w3.org/1999/xlink" x="0px" y="0px"
	 width="52px" height="52px" viewBox="0 0 52 52" enable-background="new 0 0 52 52" xml:space="preserve">
<path fill="#FFFFFF" d="M48.626,27.552l-0.128,0.315c-0.705,1.735-1.651,2.969-3.066,3.994l-0.188,0.137
	c-1.655,1.196-2.748,1.986-3.646,3.297c-0.666,0.972-1.128,1.283-1.905,1.283l-5.401-0.001c-0.611-0.022-3.873-1.081-7.606-3.326
	c-3.158-1.9-4.284-3.071-4.955-3.771c-0.145-0.15-0.27-0.279-0.387-0.393c-0.792-0.754-2.169-1.52-3.704-1.52
	c-0.296,0-0.597,0.027-0.901,0.09c-1.489,0.305-3.498,0.203-4.614-0.708c-0.663-0.543-0.985-1.341-0.985-2.443
	c0-3.267,3.023-4.576,4.083-4.776c0.436-0.083,0.833-0.116,1.256-0.151c0.921-0.077,1.872-0.155,3.046-0.745
	c1.169-0.585,2.155-1.374,3.102-2.486l0.321-0.379c0.918-1.083,2.177-2.568,3.726-3.931c2.245-1.974,5.184-2.871,8.737-2.673
	c3.79,0.213,7.223,1.61,9.923,4.041c2.43,2.188,4.036,5.211,4.294,8.081C49.895,24.449,49.307,25.886,48.626,27.552 M51.926,21.28
	c-0.309-3.436-2.196-7.02-5.048-9.588c-3.096-2.787-7.017-4.388-11.337-4.631c-4.167-0.233-7.672,0.857-10.386,3.244
	c-1.679,1.474-3,3.034-3.964,4.174l-0.316,0.373c-0.741,0.867-1.496,1.477-2.382,1.919l-0.003,0.002
	c-0.772,0.389-1.402,0.441-2.199,0.508c-0.442,0.035-0.942,0.076-1.496,0.182c-2.305,0.438-5.959,2.736-5.959,7.042
	c0,0.867,0.148,1.589,0.377,2.19L0.197,40.08c-0.357,0.529-0.216,1.244,0.312,1.6c0.199,0.133,0.423,0.197,0.643,0.197
	c0.372,0,0.736-0.177,0.958-0.509l8.528-12.66c0.01,0.007,0.02,0.017,0.029,0.026c1.816,1.483,4.566,1.583,6.535,1.182
	c1.083-0.222,2.143,0.453,2.549,0.839c0.097,0.093,0.199,0.2,0.317,0.321c0.752,0.784,2.009,2.093,5.43,4.15
	c2.033,1.224,4.176,2.235,5.884,2.881l-3.861,4.556h-3.642c-0.635,0-1.152,0.516-1.152,1.152s0.517,1.153,1.152,1.153h6.568
	c0.638,0,1.152-0.517,1.152-1.153c0-0.607-0.469-1.098-1.063-1.144l3.256-3.841c0.188,0.032,0.358,0.052,0.492,0.052h0.001h5.345
	l0.062,3.781H36.41c-0.638,0-1.153,0.516-1.153,1.152s0.516,1.153,1.153,1.153h6.567c0.638,0,1.153-0.517,1.153-1.153
	s-0.516-1.152-1.153-1.152h-0.975l-0.072-4.429c0.663-0.437,1.159-1.038,1.57-1.638c0.672-0.978,1.583-1.638,3.095-2.731
	l0.189-0.137c1.763-1.277,2.986-2.863,3.85-4.995l0.126-0.309C51.488,26.643,52.242,24.802,51.926,21.28"/>
</svg>
