<svg xmlns="http://www.w3.org/2000/svg" width="100" height="76" viewBox="0 0 100 76">
  <g id="Layer_2" data-name="Layer 2">
    <g id="Layer_1-2" data-name="Layer 1">
      <g opacity="0.85">
        <path d="M33,2A31,31,0,1,1,2,33,31.036,31.036,0,0,1,33,2m0-2A33,33,0,1,0,66,33,33,33,0,0,0,33,0Z" fill="#fff"/>
      </g>
      <g opacity="0.85">
        <path d="M65,30A22,22,0,1,1,43,52,22.025,22.025,0,0,1,65,30m0-2A24,24,0,1,0,89,52,24,24,0,0,0,65,28Z" fill="#fff"/>
      </g>
      <circle cx="45" cy="63" r="4" fill="#fff" opacity="0.85"/>
      <circle cx="65" cy="29" r="4" fill="#fff" opacity="0.85"/>
      <circle cx="33" cy="33" r="1" fill="#fff" opacity="0.85"/>
      <circle cx="65" cy="52" r="1" fill="#fff" opacity="0.85"/>
      <circle cx="95" cy="23" r="5" fill="#fff" opacity="0.85"/>
    </g>
  </g>
</svg>
