<?xml version="1.0" encoding="UTF-8"?>
<!-- Generator: Adobe Illustrator 24.2.3, SVG Export Plug-In . SVG Version: 6.00 Build 0)  -->
<svg version="1.1" id="Layer_1" xmlns="http://www.w3.org/2000/svg" xmlns:xlink="http://www.w3.org/1999/xlink" x="0px" y="0px" width="78px" height="41px" viewBox="0 0 78 41" style="enable-background:new 0 0 78 41;" xml:space="preserve">
<path fill="#ffffff" d="M64.5,2.8l-0.2,1.6C69.8,5.6,76,9.3,76,14.1c0,2.3-2.8,3.4-5.1,3.6c-8.6,0-20.1-13.6-36.5-17.1l0,0  c0,0-2.9-1.1-10.7-0.3c-4.9,0.5-7.6,1.3-8.9,1.7l0,0c-0.1,0.1-0.3,0.1-0.4,0.2c-0.1,0-0.1,0-0.1,0.1C6.2,5.6,0,12.4,0,22.4  c0,11.3,6.9,17.9,17.1,17.8c7.3,0,14-3.1,18.4-9.1l-1.8-1c-4.4,5.4-9.1,8.2-16.8,8.3c-8,0-14.4-7-14.4-11.4  c0-6.6,4.9-10.2,12.1-10.6l0,0c0.3,0,1.2,0,1.5,0c9.8,0,23.8,8.8,33.1,12.1l2.1,0.5c2.1,0.5,4.4,0.7,8,0.7c7.2,0,18.8-3.3,18.6-14.7  C78,6.4,69.5,3.8,64.5,2.8z"/>
</svg>