<?xml version="1.0" encoding="utf-8"?>
<!-- Generator: Adobe Illustrator 16.2.0, SVG Export Plug-In . SVG Version: 6.00 Build 0)  -->
<!DOCTYPE svg PUBLIC "-//W3C//DTD SVG 1.1//EN" "http://www.w3.org/Graphics/SVG/1.1/DTD/svg11.dtd">
<svg version="1.1" id="Layer_1" xmlns="http://www.w3.org/2000/svg" xmlns:xlink="http://www.w3.org/1999/xlink" x="0px" y="0px"
	 width="16px" height="16px" viewBox="0 0 16 16" enable-background="new 0 0 16 16" xml:space="preserve">
<path fill="#FFFFFF" d="M8,2c3.309,0,6,2.691,6,6s-2.691,6-6,6s-6-2.691-6-6S4.691,2,8,2 M8,0C3.582,0,0,3.582,0,8s3.582,8,8,8
	s8-3.582,8-8S12.418,0,8,0L8,0z"/>
<path fill="#FFFFFF" d="M9.832,4.445C9.526,3.986,8.904,3.86,8.445,4.168C7.986,4.474,7.862,5.095,8.168,5.555L9.131,7H5
	C4.448,7,4,7.448,4,8s0.448,1,1,1h4.131l-0.963,1.445c-0.306,0.46-0.182,1.08,0.277,1.387C8.616,11.945,8.809,12,8.999,12
	c0.323,0,0.641-0.156,0.833-0.445L12.202,8L9.832,4.445z"/>
</svg>
