<?xml version="1.0" encoding="utf-8"?>
<!-- Generator: Adobe Illustrator 16.2.0, SVG Export Plug-In . SVG Version: 6.00 Build 0)  -->
<!DOCTYPE svg PUBLIC "-//W3C//DTD SVG 1.1//EN" "http://www.w3.org/Graphics/SVG/1.1/DTD/svg11.dtd">
<svg version="1.1" id="Layer_1" xmlns="http://www.w3.org/2000/svg" xmlns:xlink="http://www.w3.org/1999/xlink" x="0px" y="0px"
	 width="16px" height="16px" viewBox="-188.5 118.5 16 16" enable-background="new -188.5 118.5 16 16" xml:space="preserve">
<path fill="#FFFFFF" d="M-183.5,123c0,0.275-0.224,0.5-0.5,0.5h-3c-0.276,0-0.5-0.225-0.5-0.5v-3c0-0.275,0.224-0.5,0.5-0.5h3
	c0.276,0,0.5,0.225,0.5,0.5V123z"/>
<path fill="#FFFFFF" d="M-178.5,123c0,0.275-0.225,0.5-0.5,0.5h-3c-0.276,0-0.5-0.225-0.5-0.5v-3c0-0.275,0.224-0.5,0.5-0.5h3
	c0.275,0,0.5,0.225,0.5,0.5V123z"/>
<path fill="#FFFFFF" d="M-173.5,123c0,0.275-0.225,0.5-0.5,0.5h-3c-0.275,0-0.5-0.225-0.5-0.5v-3c0-0.275,0.225-0.5,0.5-0.5h3
	c0.275,0,0.5,0.225,0.5,0.5V123z"/>
<path fill="#FFFFFF" d="M-183.5,128c0,0.275-0.224,0.5-0.5,0.5h-3c-0.276,0-0.5-0.225-0.5-0.5v-3c0-0.275,0.224-0.5,0.5-0.5h3
	c0.276,0,0.5,0.225,0.5,0.5V128z"/>
<path fill="#FFFFFF" d="M-178.5,128c0,0.275-0.225,0.5-0.5,0.5h-3c-0.276,0-0.5-0.225-0.5-0.5v-3c0-0.275,0.224-0.5,0.5-0.5h3
	c0.275,0,0.5,0.225,0.5,0.5V128z"/>
<path fill="#FFFFFF" d="M-173.5,128c0,0.275-0.225,0.5-0.5,0.5h-3c-0.275,0-0.5-0.225-0.5-0.5v-3c0-0.275,0.225-0.5,0.5-0.5h3
	c0.275,0,0.5,0.225,0.5,0.5V128z"/>
<path fill="#FFFFFF" d="M-183.5,133c0,0.275-0.224,0.5-0.5,0.5h-3c-0.276,0-0.5-0.225-0.5-0.5v-3c0-0.275,0.224-0.5,0.5-0.5h3
	c0.276,0,0.5,0.225,0.5,0.5V133z"/>
<path fill="#FFFFFF" d="M-178.5,133c0,0.275-0.225,0.5-0.5,0.5h-3c-0.276,0-0.5-0.225-0.5-0.5v-3c0-0.275,0.224-0.5,0.5-0.5h3
	c0.275,0,0.5,0.225,0.5,0.5V133z"/>
<path fill="#FFFFFF" d="M-173.5,133c0,0.275-0.225,0.5-0.5,0.5h-3c-0.275,0-0.5-0.225-0.5-0.5v-3c0-0.275,0.225-0.5,0.5-0.5h3
	c0.275,0,0.5,0.225,0.5,0.5V133z"/>
</svg>
