<?xml version="1.0" encoding="utf-8"?>
<!-- Generator: Adobe Illustrator 16.2.0, SVG Export Plug-In . SVG Version: 6.00 Build 0)  -->
<!DOCTYPE svg PUBLIC "-//W3C//DTD SVG 1.1//EN" "http://www.w3.org/Graphics/SVG/1.1/DTD/svg11.dtd">
<svg version="1.1" id="Layer_1" xmlns="http://www.w3.org/2000/svg" xmlns:xlink="http://www.w3.org/1999/xlink" x="0px" y="0px"
	 width="16px" height="16px" viewBox="0 0 16 16" enable-background="new 0 0 16 16" xml:space="preserve">
<path fill="#FFFFFF" d="M8,14c-3.309,0-6-2.691-6-6s2.691-6,6-6s6,2.691,6,6S11.309,14,8,14 M8,16c4.418,0,8-3.582,8-8s-3.582-8-8-8
	S0,3.582,0,8S3.582,16,8,16L8,16z"/>
<path fill="#FFFFFF" d="M6.168,11.555c0.306,0.459,0.928,0.585,1.387,0.277c0.459-0.307,0.583-0.928,0.277-1.387L6.869,9H11
	c0.553,0,1-0.448,1-1s-0.447-1-1-1H6.869l0.963-1.445c0.306-0.46,0.182-1.08-0.277-1.387C7.384,4.055,7.191,4,7.001,4
	C6.678,4,6.36,4.156,6.168,4.445L3.798,8L6.168,11.555z"/>
</svg>
