<svg xmlns="http://www.w3.org/2000/svg" width="148.784" height="322" viewBox="0 0 148.784 322">
  <g id="Layer_2" data-name="Layer 2">
    <g id="Layer_1-2" data-name="Layer 1">
      <path d="M143.475,133.326l1.332-.372c-6.546-13.625-16.915-32.239-17.885-33.369-1.173-1.37-7.827-5.868-10.281-7.507l-.022-.012c-.227-.154-.415-.28-.56-.375-.03-.019-.059-.038-.083-.056-.08-.052-.138-.092-.181-.12-.013-.009-.025-.015-.034-.022a.186.186,0,0,0-.028-.018,38.256,38.256,0,0,0-6.3-3.375l-.049-.018c-.4-.139-.775-.264-1.146-.383l-.172-.058-.276-.084-.114-.035q-.3-.092-.581-.173l-.138-.04c-.2-.058-.39-.111-.565-.159l-.147-.04-.376-.1-.2-.051-.194-.05-.157-.039-.119-.029-.095-.023-.06-.014c-.01-.986-.067-1.58-.144-2.888,3.12-.326,5.959-.738,8.274-1.124,3.753-.627,6.14-1.182,6.14-1.182s1.2-10.114,1.2-13.975a42.808,42.808,0,0,0-.493-6.576c-.121-.788-.268-1.544-.428-2.284-.045-.21-.094-.414-.142-.62q-.195-.836-.417-1.63c-.049-.175-.1-.352-.147-.525-.2-.671-.408-1.327-.633-1.952-.237-.66-.49-1.288-.751-1.9-.068-.16-.14-.312-.21-.47-.193-.434-.389-.857-.591-1.265-.083-.168-.166-.333-.251-.5-.2-.395-.409-.776-.619-1.146-.075-.133-.15-.27-.226-.4-.266-.456-.534-.894-.8-1.309l-.048-.077c-.3-.453-.592-.879-.886-1.284-.057-.08-.114-.152-.171-.23-.229-.309-.456-.606-.679-.887-.083-.1-.163-.2-.245-.3q-.3-.369-.592-.7c-.076-.087-.151-.174-.226-.258-.21-.235-.412-.455-.609-.661-.046-.048-.094-.1-.139-.147-.242-.251-.472-.48-.687-.686-.028-.028-.052-.048-.08-.075-.182-.172-.351-.329-.509-.469-.059-.053-.109-.1-.165-.145q-.175-.155-.324-.279l-.141-.116c-.092-.075-.169-.137-.238-.191l-.083-.065-.175-.131-.025-.018c-6.724-5.8-18.458-2.451-18.458-2.451-.358-.033-.7-.051-1.039-.059-.086,0-.168,0-.253,0-.249,0-.5,0-.733.013-.027,0-.057,0-.084,0s-.059.009-.091.011a11.3,11.3,0,0,0-1.42.173l-.07.016a9.024,9.024,0,0,0-2.479.871c-.025.013-.052.025-.077.039a8.187,8.187,0,0,0-.972.625c-.038.028-.076.054-.113.083a8.35,8.35,0,0,0-.822.723l-.116.116a9.318,9.318,0,0,0-.7.814l-.1.136a10.689,10.689,0,0,0-.595.9c-.026.045-.051.091-.076.136q-.274.48-.508.988c-.016.035-.03.07-.045.1-.155.348-.3.7-.425,1.066l-.016.045c-.126.362-.237.731-.339,1.1-.012.045-.026.089-.038.134-.094.357-.176.717-.25,1.079-.013.065-.028.129-.04.194q-.1.526-.179,1.054c-.011.074-.022.148-.032.222-.048.346-.088.689-.121,1.031l-.021.229c-.03.341-.055.679-.073,1.013,0,.067-.006.132-.009.2-.016.341-.028.678-.033,1.006,0,.045,0,.088,0,.133,0,.348,0,.689,0,1.017a35.988,35.988,0,0,0,.317,4.185l-.03,1.048c-.361.4-.018.64-.018.64l-.283,10a1.237,1.237,0,0,0-.032,1.121L78.06,82.38A34.457,34.457,0,0,0,82.5,83.537a61.308,61.308,0,0,0,11.961.981c.1.763.172,1.525.223,2.279-.035,0-.075,0-.129,0a.032.032,0,0,0-.016,0,7.315,7.315,0,0,0-1.869.262v0a12.568,12.568,0,0,0-1.235.382,22.507,22.507,0,0,0-4.612,2.395,39.681,39.681,0,0,0-3.759,2.823c-.09.076-.164.162-.252.239-7.558,3.445-17.612,18.7-21.249,24.8l1.111,1.455h0c-1.08,1.468-2.858,4.667-2.858,4.667-.394-.31-.831-.638-1.307-.981l-.039-.028c-8.25-5.907-27.931-15.876-27.931-15.876h0c-.873-.708-2.334-1.72-2.334-1.72s1.466-4.48-.164-6.516a12.021,12.021,0,0,1-2.381-3.9,21.421,21.421,0,0,0-.683-2.313,2.813,2.813,0,0,0-1.648-1.664.519.519,0,0,0-.278-.025c-.191.046-.291.249-.348.445a.5.5,0,0,0-.016.061,10.039,10.039,0,0,0,.6,6.622s-7.1-2.615-8.743-3.965c0,0-4.2-1.918-4.722-1.2a1.948,1.948,0,0,0-.34.771,1.9,1.9,0,0,0-.023.7s8.3,5.249,8.429,5.691S9.619,97.47,8.877,97.818a1.014,1.014,0,0,0-.431.72,5.1,5.1,0,0,0-.125,1.043,10.383,10.383,0,0,0,.015,1.091l-.142.269c-.11.229-.273.575-.42.95a6.177,6.177,0,0,0-.242.739c-.215.884,11.569,7.721,13.016,7.8l2.006-.161,3.839,2.324h0S53.774,139.63,63.4,136.541a4.993,4.993,0,0,0,.543-.214c1.935-.888,4.224-3.275,6.786-6.631l1.113,1.455c1.08-.865,2.2-1.8,3.357-2.8,1.792-1.546,3.656-3.226,5.531-4.966.248,7.377-1.4,24.971-1.4,24.971s-.2.9-.531,2.42q-.142.664-.317,1.478c-.083.388-.172.8-.264,1.241s-.185.871-.28,1.336c-.509,2.41-1.109,5.32-1.719,8.411-1.28,6.481-2.613,13.772-3.251,19.009-1.438,11.759,4.514,52.566,5.952,56.717,1.432,4.132,5.147,63.2,5.179,63.714-.624.4-1.3.825-2,1.275a9.953,9.953,0,0,0-1.053-1.044,1.354,1.354,0,0,0-.524-.282.463.463,0,0,0-.505.193.66.66,0,0,0-.057.3,3.663,3.663,0,0,0,.527,1.86l-1.1.708a8.3,8.3,0,0,0-.766-.733,1.335,1.335,0,0,0-.525-.281.459.459,0,0,0-.5.192.676.676,0,0,0-.058.305,3.484,3.484,0,0,0,.337,1.494c-4.5,2.908-8.713,5.7-8.271,5.7l-.032,3.493s22.662.5,23.123,0a13.089,13.089,0,0,0,.919-3.384h0c.582-.767.619-6.537.592-9.789h.784s4.272-46.974,3.437-51.275c-1.136-5.88-4.926-17.061-4.926-17.061.413-2.305,1.029-47.5,1.029-47.5l2.872-.232s9.031,49.574,11.7,55.337,12.931,58.561,12.931,58.561h1.289c-.521,2.113-1.363,5.736-1.755,8.593,0,.01,0,.024,0,.035a11.351,11.351,0,0,0-.1,3.6c.534,2.073,4.727,5.109,6.658,6.415a1.55,1.55,0,0,0,1.865-.09c1.691-1.407,5.223-4.526,5.569-6.325a7.741,7.741,0,0,0-.46-2.89c-.292-1.044-.7-2.248-1.147-3.471-.78-2.135-1.68-4.332-2.329-5.868h1.092s-2-42.433-2.26-45.881c-.5-6.626-9.03-23.055-9.03-23.055s.4-44.05,0-50.725c-.015-.237-.031-.477-.049-.714-.074-1-.185-2.01-.327-3.024-.025-.194-.053-.385-.083-.579-.031-.215-.065-.427-.1-.643-.042-.268-.086-.536-.135-.8-.037-.225-.077-.446-.12-.671-.177-.956-.378-1.909-.6-2.856.213-.357.439-.749.671-1.163.372-.667,1.108-2.04,1.108-2.04s25.758-16.971,26.482-21.725C148.492,145.167,146.43,139.615,143.475,133.326ZM117.2,162.039c-.054-.155-.108-.31-.163-.461-.029-.083-.059-.165-.087-.246-.012-.037-.025-.071-.037-.1l0,0c-.1-.266-.191-.531-.287-.788-.176-.472-.348-.937-.524-1.389-.039-.108-.083-.212-.123-.318-.163-.421-.323-.834-.486-1.234l-.148-.369h0c-.293-.73-.585-1.426-.865-2.085-.025-.055-.049-.114-.071-.17-.037-.079-.068-.16-.1-.236-.218-.506-.429-.979-.632-1.434l-.033-.075c-.043-.1-.086-.194-.129-.289-.065-.139-.126-.278-.185-.41-.46-1.006-.859-1.842-1.179-2.5-.081-3.153,3.163-17.107,5.874-29.788l.946,1.647,9.947,15.606,1.368-.382,4.978,8.1Z" fill="#fff" stroke="#7e9092" stroke-miterlimit="10" opacity="0.5"/>
      <rect x="16.461" y="11.5" width="6" height="310" fill="#fff" stroke="#76b4be" stroke-miterlimit="10"/>
      <polygon points="23.961 11.5 14.961 11.5 12.961 5.5 25.961 5.5 23.961 11.5" fill="#fff" stroke="#76b4be" stroke-miterlimit="10"/>
      <rect x="6.961" y="0.5" width="25" height="5" fill="#fff" stroke="#76b4be" stroke-miterlimit="10"/>
      <rect x="4.795" y="61.5" width="30" height="27" rx="7.781" transform="translate(-15.538 5.946) rotate(-12.312)" fill="#fbb03b"/>
      <rect x="28.431" y="63.572" width="10.559" height="8.456" rx="2.815" transform="translate(-13.682 8.748) rotate(-12.312)" fill="#fbb03b"/>
      <rect x="-0.687" y="158.703" width="39.558" height="5.28" rx="2.495" transform="translate(47.186 1.322) rotate(16.706)" fill="#f7931e"/>
    </g>
  </g>
</svg>
