<svg xmlns="http://www.w3.org/2000/svg" width="104.536" height="286.865" viewBox="0 0 104.536 286.865">
  <g id="Layer_2" data-name="Layer 2">
    <g id="Layer_1-2" data-name="Layer 1">
      <polygon points="9.603 33.228 14.222 31.964 15.646 36.66 10.559 37.882 9.603 33.228" fill="#fff" stroke="#7e9092" stroke-miterlimit="10"/>
      <path d="M99.593,98.708l.885-.249C93.8,84.561,83.223,65.571,82.233,64.42c-1.2-1.4-7.983-5.988-10.487-7.657l-.022-.014c-.233-.157-.424-.286-.571-.382a.661.661,0,0,1-.085-.058l-.186-.122c-.012-.008-.025-.015-.034-.022s-.019-.012-.028-.019A39.1,39.1,0,0,0,64.39,52.7l-.05-.019c-.462-.164-.917-.315-1.345-.448l-.2-.062-.275-.085c-.144-.044-.282-.085-.419-.125l-.275-.08-.366-.1c-.165-.046-.317-.088-.46-.126L60.77,51.6l-.241-.062-.166-.042-.169-.042-.139-.034L59.99,51.4l-.075-.017h0c-.015-1.562-.147-2.149-.289-6.012-.078-2.245-.159-4.411-.218-5.973.179-.166.355-.331.507-.486a3.629,3.629,0,0,0,1.059-1.558c.022-.132.049-.292.077-.469a8.619,8.619,0,0,0,4.8-3.073,6.72,6.72,0,0,0,.584-.871,8.4,8.4,0,0,0,.546-3.9A25.913,25.913,0,0,1,69.25,37.5c0,.794,3.145-7.469,1.945-13.068,1.479.285,2.851.513,4,.687a38.394,38.394,0,0,0-1.8-7.152C70.062,8.711,64.252,4.363,63.753,4a.18.18,0,0,1-.025-.018c-6.86-5.922-18.829-2.5-18.829-2.5-.371-.034-.728-.052-1.077-.06-.062,0-.119,0-.18,0-.277,0-.549,0-.812.013-.027,0-.057,0-.084,0s-.059.009-.091.011a11.342,11.342,0,0,0-1.449.178c-.025,0-.049.011-.074.016a9.229,9.229,0,0,0-2.524.887c-.027.014-.056.027-.083.042a8.41,8.41,0,0,0-.988.635c-.039.029-.08.057-.119.087a8.621,8.621,0,0,0-.835.735c-.041.04-.081.081-.121.122a9.346,9.346,0,0,0-.711.828c-.035.046-.07.093-.1.14a10.855,10.855,0,0,0-.607.917c-.027.046-.052.093-.078.14-.187.327-.361.662-.518,1.008-.015.034-.029.069-.044.1-.16.359-.308.726-.439,1.1l-.008.023c-.132.376-.247.76-.353,1.147-.011.041-.023.082-.034.123-.1.369-.183.742-.26,1.116-.012.061-.025.12-.037.18-.071.365-.132.73-.186,1.094-.01.069-.02.136-.029.2q-.075.541-.126,1.076c-.007.068-.013.136-.019.2-.032.357-.058.711-.076,1.059,0,.06-.006.117-.009.176-.017.356-.029.708-.034,1.05,0,.039,0,.076,0,.115-.005.36-.005.713,0,1.052a36.764,36.764,0,0,0,.324,4.269c.043.311.072.481.072.481.2-.139.371-.281.558-.421a30.9,30.9,0,0,0,.733,6.1q.368,1.681.949,3.53s-.543,6.071.094,7.431,4.724,9.842,9.014,9.319a15.455,15.455,0,0,0,4.1-1.4,34.116,34.116,0,0,1,.708,5.061c-.036,0-.077,0-.133,0a.02.02,0,0,0-.015,0,7.466,7.466,0,0,0-1.906.268h0c-.375.095-.792.221-1.26.39-1.076.391-6.705,1.005-8.279,1.975-.055-.215-21.574,15.269-23.793,17.125l.223,1.509-1.856,1.793c.014-.25,2.237-18.642,4.965-28.414l1.343-2.276,7-3.339s.307-.3.173-.6c-.091-.21-.392-.415-1.156-.518a9.155,9.155,0,0,0-4.207.861,21.342,21.342,0,0,0-1.858-3.294,8.009,8.009,0,0,0-1.206-1.384,2.747,2.747,0,0,0-1.109-.651,14.784,14.784,0,0,0-5.978.264l.267,2.431.132,1.02.337,1.638-1.038,3.67a45.2,45.2,0,0,0-3.479,9.188s0,0-.006.019C2.77,66.954-2.6,91.67,2.77,95.327a3.035,3.035,0,0,0,2.624.3c5.7-1.548,10.139-5.814,14.078-8.62C19.75,87,20.75,88,20.75,88c1.186-.551,8.7-7.206,11.537-8.818a30.75,30.75,0,0,0,2.422,6.485c1.395,2.711-1.017,28.509-1.017,28.509s-.2.915-.54,2.469q-.147.678-.324,1.507c-.085.4-.176.819-.27,1.266s-.189.889-.285,1.364c-.519,2.458-1.131,5.426-1.754,8.579-1.306,6.613-2.666,14.049-3.316,19.392-1.467,12,4.6,53.624,6.071,57.857,1.459,4.214,5.248,64.415,5.284,65-5.695,3.618-15.465,9.888-14.8,9.888l-.033,3.563s23.118.513,23.589,0a13.425,13.425,0,0,0,.937-3.453c.595-.785.632-6.669.605-9.985h.8s4.358-47.919,3.507-52.306c-1.159-6-3.026-17.4-3.026-17.4.421-2.353-.951-48.454-.951-48.454l2.931-.236s2.212,50.571,4.935,56.45,10.192,59.739,10.192,59.739h1.315c-.532,2.155-1.391,8.849-1.791,11.764,0,.012,0,.026,0,.036a11.618,11.618,0,0,0-.107,3.674c.545,2.115,14.024,1.836,14.377,0a7.915,7.915,0,0,0-.47-2.948c-.3-1.065-.715-2.293-1.171-3.541-.8-2.177-1.713-7.419-2.374-8.985h1.113S76.1,226.121,75.83,222.6c-.509-6.759-2.212-23.519-2.212-23.519s3.4-44.936,3-51.745c-.016-.242-.032-.487-.05-.729q-.115-1.534-.334-3.084c-.024-.2-.053-.393-.085-.591-.031-.22-.066-.437-.1-.655-.045-.274-.088-.547-.138-.821-.038-.229-.079-.456-.123-.684-.181-.974-.386-1.947-.609-2.913.218-.364.448-.764.685-1.187.379-.68.772-1.406,1.129-2.082h0s26.276-17.313,27.015-22.163C104.25,110.829,102.9,105.586,99.593,98.708ZM72.317,128.129c-.054-.158-.109-.316-.166-.469-.028-.085-.059-.17-.087-.251-.013-.039-.026-.073-.039-.107l0,0c-.1-.271-.194-.54-.292-.8-.179-.481-.355-.955-.533-1.417-.042-.111-.086-.217-.127-.324-.165-.43-.329-.85-.5-1.26l-.15-.376h0c-.3-.745-.6-1.454-.882-2.126-.025-.056-.05-.117-.072-.173-.038-.081-.069-.163-.1-.242-.209-.484-.411-.937-.606-1.375-.023-.052-.049-.113-.072-.164-.044-.1-.088-.2-.132-.3-.066-.142-.129-.283-.188-.418-.47-1.025-.877-1.876-1.2-2.545-.084-3.213,3.226-17.451,5.992-30.389l.965,1.679,10.147,15.922L86,102.508l4.743,8.354Z" fill="#fff" stroke="#7e9092" stroke-miterlimit="10" opacity="0.5"/>
      <path d="M72.188,141.91l-9.046,4.016a1.315,1.315,0,0,1-1.856-.127L47.244,129.694a1.315,1.315,0,0,1,.127-1.856l9.046-4.017a1.318,1.318,0,0,1,1.857.127l14.041,16.106A1.315,1.315,0,0,1,72.188,141.91Z" fill="#f7931e"/>
      <rect x="3.178" y="28.818" width="23.337" height="13.228" rx="4.804" transform="translate(-10.431 6.503) rotate(-18.412)" fill="#fbb03b"/>
      <rect x="19.621" y="27.233" width="9.577" height="7.67" rx="2.553" transform="translate(-12.676 17.441) rotate(-31.668)" fill="#fbb03b"/>
      <path d="M22.7,24.616c-.085-.721-.4-1.163-1.188-.679a2.23,2.23,0,0,0-.907,1.222c-.186.576-.392,1.156-.527,1.748.048-1.105-.171-2.083-1.209-1.44a2.23,2.23,0,0,0-.907,1.218c-.119.373-.248.748-.36,1.129.087-1.186-.09-2.338-1.2-1.654a2.229,2.229,0,0,0-.907,1.218c-.152.467-.314.943-.444,1.423,0-.988-.259-1.771-1.215-1.18a2.212,2.212,0,0,0-.908,1.218c-.027.077-.05.151-.076.228a9.754,9.754,0,0,0-.6,2.531,3.25,3.25,0,0,0,.17,1.279.693.693,0,0,0,1.194.2,4.886,4.886,0,0,0,1.089-1.914,4.137,4.137,0,0,0,.125-.488,2.9,2.9,0,0,0,.158.748.694.694,0,0,0,1.2.193A4.9,4.9,0,0,0,17.277,29.7l.006-.02a3.132,3.132,0,0,0,.173,1.046.693.693,0,0,0,1.2.194A4.865,4.865,0,0,0,19.74,29a8.111,8.111,0,0,0,.185-.79,3.085,3.085,0,0,0,.173.98.7.7,0,0,0,1.2.2,4.991,4.991,0,0,0,1.089-1.914A8.746,8.746,0,0,0,22.7,24.616Z" fill="#fff" stroke="#7e9092" stroke-miterlimit="10" opacity="0.5"/>
      <path d="M71.655,128.75c-.518-.132-1.207-.294-1.98-.449h0c-.38-.076-.78-.149-1.19-.219a16.59,16.59,0,0,0-4.37-.247,4.047,4.047,0,0,0-1.383.381q-.267.139-.51.261l1.628,1.867c.345-.123.564-.211.564-.211l1.691,1.544-.7.446-2.218,1.4-9.458,3.4s5.373,6.579,5.548,6.589l9.614-.932s2.081-1.3,3.623-2.23c.7-.425,1.293-.774,1.524-.889a6.177,6.177,0,0,0,1.148-1.6" fill="#fff" stroke="#7e9092" stroke-miterlimit="10" opacity="0.5"/>
    </g>
  </g>
</svg>
