<svg xmlns="http://www.w3.org/2000/svg" width="113.665" height="302.908" viewBox="0 0 113.665 302.908">
  <g id="Layer_2" data-name="Layer 2">
    <g id="Layer_1-2" data-name="Layer 1">
      <g>
        <path d="M62.944,48.97c-.041,0-.081,0-.123-.008C62.258,48.893,62.669,48.982,62.944,48.97Z" fill="#fff" stroke="#7e9092" stroke-miterlimit="10" opacity="0.5"/>
        <path d="M87.452,122.112c1.116-3.24,1.769-5.688,1.769-5.688s-.521-1.638-1.372-4.284c-.934-2.9-2.265-7.012-3.745-11.508l2.338-.373s-3.5-21.245-5.228-29.579C79.516,62.474,66.6,57.2,66.194,57.039l-.009,0a24.119,24.119,0,0,0-4.93-2.559c-.49-.178,1.072-.31.681-.408v0c-.994-.25.338-.286,0-.279a.036.036,0,0,0-.017,0c-.058,0-.1,0-.139.006a35.792,35.792,0,0,1,.742-5.3c.806.374.669.468.419.479a5.807,5.807,0,0,0,5.367-2.289c.878-.1,4.809-9.163,4.088-13.858l-.006-.033c-.018-.231-.031-.375-.031-.375.409-1.289.738-2.523,1-3.7a32.376,32.376,0,0,0,.768-6.39c.2.147.377.3.584.441,0,0,.03-.178.076-.5a38.807,38.807,0,0,0,.339-4.471C75.235,11.2,73.709.5,62.44,1.53c0,0-12.539-3.583-19.725,2.619l-.026.019A12.829,12.829,0,0,0,39.28,8.933a26.319,26.319,0,0,0-2.1,7.965c-.438,1.265-.824,2.551-1.176,3.84-1.3,4.771.644,12.812,3.144,19.312.766,1.992,2.278,3.992,7.943,5.244-.026.717-.052,1.458-.079,2.21-.148,4.046-.286,4.662-.3,6.3l-.065.016-.105.025-.117.028-.182.045-.178.046-.247.063-.269.072-.371.1-.492.138-.2.058c-.184.053-.373.109-.571.17l-.154.047c-.094.029-.184.055-.28.086l-.18.06c-.4.127-.806.261-1.229.411l-.052.019a40.929,40.929,0,0,0-6.735,3.606.174.174,0,0,0-.03.02c-.009.007-.023.013-.036.023-.046.03-.108.073-.194.129-.027.019-.056.039-.089.059-.154.1-.356.237-.6.4a.236.236,0,0,0-.023.013C31.693,61.188,24.583,66,23.329,67.459c-1.036,1.207-12.117,21.1-19.112,35.659l1.392.389C2.437,110.252.278,116.163.518,117.756c.774,5.081,28.3,23.216,28.3,23.216h0a30.4,30.4,0,0,0,1.5,3.929,1.752,1.752,0,0,0,.216.323l.012.01c-.161.736-.325,1.472-.463,2.212-.012.067-.023.134-.035.2-.372.309-.611.6-.524.779a1.053,1.053,0,0,0,.334.316c-.015.093-.033.187-.048.281-.035.231-.072.458-.1.688-.033.207-.064.411-.09.619-.151,1.082-.27,2.158-.348,3.23-.02.254-.037.511-.053.764-.425,7.133-2,54.206-2,54.206s-7.117,17.557-7.65,24.637c-.28,3.685-2.415,49.031-2.415,49.031h1.167c-.693,1.64-1.656,3.989-2.489,6.27-.478,1.307-.914,2.593-1.225,3.709a8.308,8.308,0,0,0-.494,3.088c.371,1.923,4.146,5.256,5.953,6.76a1.657,1.657,0,0,0,1.992.1c2.064-1.4,6.546-4.64,7.116-6.856a12.187,12.187,0,0,0-.111-3.847c0-.012,0-.027,0-.037-.419-3.054-1.319-6.925-1.876-9.183h1.377s12.967-56.421,15.819-62.58,10.5-59.135,10.5-59.135l3.069.247s-1.342,48.294-.9,50.758c0,0-3.05,11.947-4.264,18.231-.891,4.6,4.674,54.794,4.674,54.794h.837c-.029,3.475-2.99,9.642-2.367,10.461h0a14.038,14.038,0,0,0,.981,3.616c.494.539,27.711,0,27.711,0l-.034-3.732c.7,0-9.535-6.568-15.5-10.359.035-.554,4.005-63.671,5.535-68.087,1.536-4.435,7.9-48.043,6.36-60.609-.61-5.009-1.815-11.774-3.043-18.106C81.891,136.422,85.432,127.972,87.452,122.112ZM21.2,107.866l10.63-16.678,1.01-1.76c.615,14.577.231,34.614-.139,43.82L14.419,116.111Z" fill="#fff" stroke="#7e9092" stroke-miterlimit="10" opacity="0.5"/>
      </g>
      <path d="M112.5,97.365l.025.031a8.015,8.015,0,0,1,.948,1.506,2.112,2.112,0,0,1,.168,1.214,6.343,6.343,0,0,1-.633,1.888,18.992,18.992,0,0,1-2.231,2.119c-.775.655-4.647,3.333-4.647,3.333l-3.444-.679-3.269,4.13-.064.028-7.029,8.689-7.636,9.457a17.4,17.4,0,0,1-1.338,1.328,3.675,3.675,0,0,1-1.33.745,3.02,3.02,0,0,1-.723-.1l-1.158-.273s.15.088-.469-.1a6.888,6.888,0,0,1-2.182-1.235c-.177-.287-.4-.563-.335-.762a.636.636,0,0,0,.052-.269l-.7-.45a5.183,5.183,0,0,1-1.11.165,4.532,4.532,0,0,1-1.521-1.006c-.394-.431-1.026-1.173-1.026-1.173a7.266,7.266,0,0,1-.825-1.261c-.092-.326.063-1,.946-2.278S93.147,100.2,93.147,100.2a10.277,10.277,0,0,1,.363-.992,5.974,5.974,0,0,1,.94-.9c.246-.158,5.36-2.873,5.36-2.873a3.867,3.867,0,0,1,1-.243,24.955,24.955,0,0,1,6.318-.225A11.1,11.1,0,0,1,112.5,97.365Z" fill="#f7931e"/>
      <path d="M88.847,126.835c-3.664-.257-7.181-3.079-7.181-3.079a8.913,8.913,0,0,1,.485-2.578c.116-.381.258-.766.417-1.156a23.923,23.923,0,0,1,1.272-2.6c.207-.381.425-.758.65-1.13.6-.99,1.24-1.946,1.864-2.818.263-.379.526-.739.778-1.083.695-.926,1.324-1.715,1.8-2.3.555-.676.908-1.074.908-1.074,3.143,1.2,6.5,5.343,6.5,5.343a13.12,13.12,0,0,1-1.082,3.771A30.225,30.225,0,0,1,88.847,126.835Z" fill="#fff" stroke="#7e9092" stroke-miterlimit="10" opacity="0.5"/>
      <rect x="20.314" y="125.654" width="23.337" height="19.706" rx="5.863" transform="translate(-91.585 71.35) rotate(-49.282)" fill="#fbb03b"/>
      <rect x="36.031" y="128.125" width="9.577" height="7.67" rx="2.553" transform="translate(-69.805 49.244) rotate(-36.025)" fill="#fbb03b"/>
      <path d="M19.86,134.819c4.977,3.53,8.958,6.153,8.958,6.153h0a30.4,30.4,0,0,0,1.5,3.929,1.752,1.752,0,0,0,.216.323,22.45,22.45,0,0,0,3.525,2.073s-3.185.7-2.9,1.3,3.283,1.855,4.177,2.019,7.246-6.725,7.078-7.514-3.929-6.805-7.995-8.252l0,0h0l-8.225-7.71" fill="#fff" stroke="#7e9092" stroke-miterlimit="10" opacity="0.5"/>
    </g>
  </g>
</svg>
