<svg enable-background="new 0 0 394 220" viewBox="0 0 394 220" xmlns="http://www.w3.org/2000/svg"><path clip-rule="evenodd" d="m307.579 177.027c-41.117 19.052-89.896 1.259-108.953-39.741-19.056-40.999-1.171-89.681 39.947-108.732 71.746-34.471 154.529 19.171 154.529 19.171s-6.853 95.307-85.523 129.302z" fill="#217d75" fill-rule="evenodd" opacity=".9"/><path clip-rule="evenodd" d="m133.091 55.044c45.329 0 82.075 36.649 82.075 81.858s-36.746 81.857-82.075 81.857c-79.614 1.114-132.091-82.353-132.091-82.353s46.398-83.589 132.091-81.362z" fill="#bc3232" fill-rule="evenodd" opacity=".9"/><path clip-rule="evenodd" d="m176.208 173.491c-9.713-19.198-2.042-42.616 17.134-52.305 19.175-9.691 42.596-1.982 52.308 17.217 17.531 33.482-6.628 73.598-6.628 73.598s-45.398-1.738-62.814-38.51z" fill="#6e4eaf" fill-rule="evenodd" opacity=".9"/><path clip-rule="evenodd" d="m205.912 34.192c19.878 23.039 17.268 57.821-5.83 77.688-23.1 19.868-57.939 17.298-77.816-5.74-35.482-39.974-15.848-103.326-15.848-103.326s63.055-13.154 99.494 31.378z" fill="#e18018" fill-rule="evenodd" opacity=".9"/><path clip-rule="evenodd" d="m239.593 78.932c2.246 21.268-13.217 40.328-34.541 42.572-21.322 2.246-40.428-13.174-42.675-34.441-4.472-37.297 32.296-66.063 32.296-66.063s41.724 17.617 44.92 57.932z" fill="#eeaa19" fill-rule="evenodd" opacity=".9"/><path clip-rule="evenodd" d="m256.077 121.209c-14.672 15.568-39.225 16.29-54.844 1.61-15.617-14.68-16.384-39.201-1.713-54.77 25.385-27.706 71.203-18.627 71.203-18.627s13.86 43.079-14.646 71.787z" fill="#217243" fill-rule="evenodd" opacity=".9"/><path clip-rule="evenodd" d="m239.593 78.932c-.878-11.074-4.665-20.431-9.694-28.186-10.752 2.718-21.746 7.883-30.378 17.304-14.306 15.181-13.926 38.869.581 53.65 1.633.034 3.283-.021 4.95-.196 21.324-2.244 36.787-21.305 34.541-42.572z" fill="#7fa030" fill-rule="evenodd" opacity=".9"/><g fill="#262524" opacity=".4"><path d="m127.538 151.127c.742-5.964-7.815-5.403-8.599.888-.714 5.739 7.809 5.453 8.599-.888z"/><path d="m172.821 177.048c-2.8 8.411-4.996 12.544-6.866 12.627-4.645.203 2.502-16.796 2.196-23.736-.316-7.168-7.874-6.353-12.35 1.05l.578-4.854-6.186.273c-.498 4.411-1.179 9.998-1.984 16.255-2.148 4.484-5.065 8.151-8.156 11.27 2.793-11.298 5.993-24.518 7.052-27.627l-5.894-.365-.838 3.05c-1.109-8.124-12.658-4.683-16.892 15.077-3.107 5.362-5.348 7.905-6.893 7.713-3.471-.433 1.91-14.273 6.595-27.328l-6.072-.756c-1.515 4.077-4.831 12.139-6.534 19.277-.755 1.085-1.527 2.109-2.333 3.025 1.458-8.484-4.265-16.698-3.431-22.807 1.392-2.974 2.69-6.256 3.922-9.988l-4.664-1.757c-3.049 5.756-3.918 10.497-3.594 16.109-5.321 8.709-10.545 19.267-17.105 17.714-3.97-.94-3.285-5.82-2.372-9.664 8.583.627 14.381-5.104 15.56-10.078 2.289-9.66-13.373-11.652-20.743 7.069-3.784 4.421-6.856 7.212-8.331 6.708-3.442-1.178 17.49-31.021 22.833-44.545l-5.382-1.84-13.804 24.805c.57-3.229-.348-5.217-2.868-6.078-9.752-3.332-27.791 26.722-18.033 30.055 3.884 1.327 7.502-1.469 10.489-5.089-.954 2.803-2.463 7.452.868 8.591 2.604.89 6.857-1.351 12.74-7.567-1.195 6.188.178 11.823 5.95 13.19 5.003 1.186 8.903-2.154 12.848-7.283 1.396-1.814 6.514-10.438 7.625-12.506.465 3.583 4.002 18.742-2.183 17.669-1.349-.233-2.102-.948-2.753-2.668l-4.868 2.372c.993 6.24 10.179 10.175 18.703-.27-.481 4.65.435 8.125 4.146 8.587 3.624.451 6.357-2.434 8.9-6.532-.298 11.129 7.487 10.419 11.885 3.542-.569 2.201-1 4.483-1.564 6.612-5.635 4.773-10.488 8.584-10.796 13.543-.236 3.81 1.948 5.82 5.183 6.021 7.632.474 9.564-13.037 11.487-21.221 2.789-2.555 5.634-5.618 8.167-9.442-1.317 5.015-1.604 10.229-1.604 10.229l6.258-.276 2.221-15.017c2.786-14.823 7.825-15.366 7.954-12.459.229 5.179-4.095 13.369-3.752 21.138.194 4.388 2.656 6.298 5.174 6.187 5.898-.261 8.768-8.747 11.57-17.087-.02-.432-1.627-.938-2.059-.918zm-81.744-18.3c2.512.595-.945 8.341-9.235 10.244 2.219-5.616 6.362-10.925 9.235-10.244zm-36.481 13.978c-3.732-1.277 8.415-21.396 12.334-20.058 5.291 1.81-7.932 21.561-12.334 20.058zm72.973 39.375c-.719-.045-1.402-.664-1.317-2.03.214-3.449 2.472-6.123 5.687-9.098-2.066 8.201-2.444 11.246-4.37 11.128zm2.531-23.363c-4.14-.259 2.543-22.857 6.596-22.605 5.582.345-1.952 22.892-6.596 22.605z"/></g><path d="m102.422 96.78c-.19-.479-2.202-.422-2.683-.231.175 10.941-1.009 16.592-3.967 17.765-3.038 1.205-5.576-4.266-8.256-10.79-.925-9.923-.857-16.857 5.943-16.512l-.011-7.028c-1.66-.453-3.099-.345-4.217.1-4.957 1.964-4.84 10.431-4.396 16.916-3.11-6.909-6.63-12.756-11.579-10.769-5.305 2.13-4.424 7.199-3.877 16.05.935 15.134 2.312 21.741.018 22.9-3.729 1.88-7.603-15.335-11.687-31.484l-6.521 3.299c2.437 10.282 2.495 10.789 5.402 20.591 3.535 14.998-.275 16.031-2.329 11.974-2.656-5.25-7.84-25.823-8.754-29.692l-6.522 3.3c0 0 1.531 6.84 4.66 17.787 2.312 7.957 6.647 20.924 14.003 17.204 2.993-1.514 3.938-5.171 3.724-9.786 2.362 3.527 5.179 5.284 8.556 3.575 2.797-1.414 3.778-4.231 3.918-7.839 1.276 3.086 3.454 4.375 6.521 3.16 3.438-1.364 4.445-6.76 4.688-13.146 2.764 5.103 6.09 8.595 10.168 6.978 4.638-1.841 7.407-8.86 7.198-24.322zm-22.243 24.641c-1.987.79-2.202-3.556-2.011-5.771l-4.938-.092c-.313-2.427-2.515-21.405.407-22.538 2.646-1.026 5.279 7.715 8.833 15.742.106 6.805-.292 11.867-2.291 12.659z" fill="#262524" opacity=".4"/><path d="m375.443 54.228c-.218-.101-1.052.679-1.172.94 2.756 2.854 6.072 6.44 5.53 7.617-.261.567-1.36.431-3.192-.412-5.337-2.456-8.452-5.463-11.113-7.544.361-.784.743-1.613.779-1.808l-1.869-1.336c-.137.413-.374 1.043-.695 1.741-3.147-2.347-6.261-4.308-9.736-6.171l-1.425 3.096c3.943 3.03 6.604 4.941 9.353 6.892-.422.916-.807 1.638-.947 1.942l1.909 1.248c.124-.154.465-.896.927-1.898 3.153 2.413 6.368 4.45 9.153 5.925 5.05 6.084 3.25 7.114 1.304 6.115-4.227-2.173-12.485-14.04-15.43-8.309-.922 1.794-.519 4.159.828 6.579l-2.619-1.939-1.887 3.671c2.785 2.037 6.411 4.742 10.45 7.807 2.077 3.129 2.771 5.843 1.602 7.831-1.382 2.349-4.35.941-6.621-.388 2.086-5.344-.425-10.162-3.362-11.891-5.865-3.451-10.151 6.748 1.011 15.042 5.14 7.951 3.026 8.72 1.183 7.418-3.216-2.271-6.083-8.116-9.729-10.691-3.896-2.75-6.908 1.556-4.166 7.813-4.526-4.023-7.449.169-4.772 6.092l-2.581-2.587-2.382 3.372c2.113 2.056 4.768 4.684 7.723 7.646 2.235 4.275 3.711 8.54 1.758 12.182-.837-4.365-4.189-9.718-7.694-12.781-5.724-5.004-9.496-1.812-7.908 3.796l-1.698-1.995-2.369 2.71c1.263 1.317 4.154 4.711 7.472 8.677.555 1.75.489 3.115.059 4.199-8.259-16.164-18.946-8.211-12.515.836l-1.55.877c.797 1.724 1.774 3.381 2.855 4.862 2.93 9.948.315 13.034-6.606 1.964.11-11.043-6.401-27.581-11.79-23.273-4.621 3.697 6.703 22.662 10.064 27.582.952 4.63.564 8.074-1.651 9.549-2.267 1.51-4.316-1.046-5.788-3.237 6.877-6.368 2.134-16.871-3.013-13.446-3.689 2.456-3.367 8.748-1.115 13.926-.012.005-.029.01-.039.015.362 3.129-.004 6.48-3.169 6.495.299-6.459-1.572-19.426-7.242-16.559-3.879 1.96-1.031 12.085 3.721 16.402.029 1.653-.07 3.37-.278 4.981-2.637-4.152-4.604-7.514-5.945-9.848-.192-1.896-.44-4.537-1.55-5.831l-3.041 1.537c.782 2.241 2.605 5.727 3.228 6.812 0 0 .156 3.085.111 3.101-.109 5.224-1.35 8.808-4.023 9.74-2.567.896-3.93-2.087-4.8-4.578 5.048-2.727 6.249-8.025 5.127-11.243-2.132-6.108-11.373-2.011-9.215 10.848-.178-.021-.333-.027-.416-.012-.771 4.199-1.677 7.155-2.762 7.36-2.395.453-.059-23.706-1.415-33.341l-3.726.704.156 18.924c-.731-2.061-1.918-2.91-3.663-2.581-6.751 1.275-7.323 24.636-.569 23.359 2.688-.508 3.867-3.319 4.408-6.401.36 1.88 1.003 5.135 3.33 4.695 1.964-.371 3.841-3.543 5.257-10.144 1.328 4.368 4.235 8.145 8.543 6.641 4.441-1.549 5.063-7.053 5.258-13.779-.019-.054.1-.188.173-.21 1.579 2.805 3.46 5.887 5.514 9.313l2.313-1.17c.721-1.978 1.225-4.491 1.405-7.218 1.651.163 4.475-1.313 4.838-5.141 2.419 3.722 6.023 6.361 9.689 3.92 3.106-2.067 3.26-5.95 2.451-10.742 3.036 3.724 5.644 5.125 7.847 3.363 1.979-1.582 2.005-4.643.563-9.893 7.357 7.489 12.443.616 9.955-6.794.631-1.24.946-2.733.894-4.313 10.266 12.341 9.587 13.084 14.236 17.147l2.116-2.421-10.67-13.024c4.129 1.075 9.57-3.848 6.225-12.819 2.047 2.565 4.434 4.634 4.434 4.634l2.409-3.412c-3.406-3.538-13.484-13.196-11.532-15.961.707-1 2.333.629 13.638 12.98l2.52-3.568c-1.201-1.378-3.946-4.315-6.707-7.146-6.936-7.771-5.132-10.677-3.539-9.553 2.823 1.994 5.376 7.617 9.611 10.608 2.392 1.689 4.403 1.171 5.373-.202 1.694-2.399.285-5.778-1.889-9.367 7.478 3.587 11.851-2.136 8.702-8.612 1.582 1.261 2.865 2.091 2.865 2.091l1.908-3.715c-3.085-2.422-15.538-11.249-13.748-14.729 1.212-2.36 7.111 6.3 12.203 8.916 4.494 2.311 8.46-1.566 3.064-8.745 3.141 1.268 5.42 1.344 6.213-.38 1.3-2.835-1.131-5.592-6.925-11.375zm-83.451 82.336c1.659-.843 3.017 9.545 3.164 11.79-3.185-4.487-4.717-11.004-3.164-11.79zm-28.605 29.871c-2.584.485-2.16-15.176.554-15.688 3.663-.693 2.494 15.111-.554 15.688zm17.758-19.656c.585 1.677.181 5.325-2.634 8.188-1.491-7.678 1.718-10.821 2.634-8.188zm24.096-4.388c-3.359-7.068-1.032-10.898.512-8.585.983 1.478 1.5 5.112-.512 8.585zm.762-30.173c1.056-.841 5.762 7.123 7.742 18.52-4.489-7.843-8.754-17.711-7.742-18.52zm18.186 13.743c-4.935-5.192-2.772-9.743 1.524-5.224 1.752 1.844 3.545 4.775 4.532 7.347-1.994 1.036-4.27-.244-6.056-2.123zm.389 3.405c2.074 1.207 4.336 1.705 6.326.873 1.12 5.016-3.135 3.532-6.326-.873zm16.666-7.546c-1.805 2.064-5.136-2.707-6.63-4.521-4.896-7.08-3.602-10.031.159-6.745 3.325 2.907 7.924 9.604 6.471 11.266zm14.541-44.989c1.53.9 3.582 3.945 3.287 7.948-6.101-4.887-5.689-9.363-3.287-7.948z" fill="#262524" opacity=".4"/><path d="m349.795 52.152c-.278-.229-1.486.487-1.715.766 2.63 4.644 4.131 8.205 3.256 9.271-1.925 2.341-19.074-22.683-28.097-30.83l-3.008 3.663 15.327 18.018c-5.902-3.484-10.798 3.639-.916 16.421-.012.009-.03.021-.039.029 5.481 12.997 2.246 13.004.364 11.042-3.406-3.551-5.534-11.404-9.396-15.431-4.148-4.325-8.42.369-7.158 7.447l-2.306-3.359-3.725 3.572c2.037 2.928 4.567 6.63 7.375 10.799-.043.021-.087.045-.113.064 1.818 6.273 1.675 11.012-1.167 13.123-2.729 2.025-5.461-1.021-7.434-3.672 8.178-8.395 1.579-21.202-4.624-16.594-9.098 6.754 3.778 32.765 13.941 25.219 3.686-2.736 3.688-7.485 2.433-13.286 1.941 4.016 4.805 7.667 4.805 7.667l3.768-3.615-6.865-10.625c-6.4-10.807-3.551-13.93-1.868-12.175 2.99 3.117 4.786 10.625 9.271 15.3 2.533 2.643 5.126 2.484 6.642 1.031 2.755-2.644 1.641-7.388-.317-12.54 2.842 2.695 7.469 5.907 9.938 2.899 2.17-2.645 1.045-6.285-.908-9.673 1.932 1.586 5.104 4.089 6.958 1.831 1.751-2.134.675-7.442-4.422-16.362zm-39.966 38.985c-4.642-8.596-1.993-13.551.088-10.752 1.323 1.781 2.201 6.287-.088 10.752zm32.556-20.694c-4.173-3.426-10.516-12.437-8.878-14.431.837-1.02 2.386-.447 4.102.961 7.775 6.384 11.404 18.91 4.776 13.47z" fill="#262524" opacity=".4"/><path d="m324.392 45.106c-.127-.141-.978.165-1.146.317 3.661 9.675 1.556 9.659-4.148 1.129-.704-1.462-1.414-2.817-2.127-4.119.509-.458 1.045-.941 1.132-1.071l-.941-1.556c-.229.257-.598.642-1.05 1.049-1.555-2.69-3.206-5.091-5.15-7.532l-2.004 1.806c1.92 3.437 3.257 5.658 4.645 7.937-.593.534-1.098.938-1.295 1.116l.997 1.505c.139-.073.619-.506 1.268-1.091 1.442 2.568 3.029 4.921 4.51 6.807 1.881 6.542.212 6.776-.91 5.364-1.939-2.44-2.82-7.519-5.02-10.286-2.375-2.988-5.331-.232-4.952 4.276l-1.258-2.253-2.559 2.033c1.237 2.187 2.802 5.01 4.534 8.192.122 1.259-.106 2.207-.543 2.931-4.36-13.709-13.729-8.871-9.885-.975l-1.325.483c.563 2.046 1.431 4.021 2.461 5.681.366 2.761.213 4.277-.331 4.619-1.582.992-1.485-4.511-3.136-7.142-1.151-1.836-3.344-2.255-5.094-2.683-.535-1.997-1.247-3.704-2.452-5.91l-2.858.807c.844 3.147 1.853 5.354 4.041 6.798 1.551 4.188 1.962 11.064-2.053 14.75-.725-1.654-1.477-3.426-2.186-5.271.732-11.078-3.143-23.384-7.551-20.614-.966.605-1.592 1.896-1.355 3.632.747 5.052 7.35 22.94 11.734 29.927 2.343 3.735 4.28 3.462 5.762 2.532 2.854-1.79.814-8.196-4.514-9.553 2.006-2.381 3.622-6.671 2.122-14.21 3.97 2.316 2.393 5.671 4.436 8.928.909 1.449 2.095 2.052 3.608 1.102 1.602-1.005 1.78-3.039 1.478-5.499 4.238 4.493 8.447.404 7.512-5.434.566-.767.978-1.711 1.186-2.754.982 2.702 2.636 5.265 2.636 5.265l2.588-2.058c-1.429-2.739-7.545-13.183-5.116-15.111.327-.261.688-.111.948.217 1.703 2.142 2.395 6.982 4.949 10.195 2.467 3.105 6.798 1.754 4.942-5.831 2.018 2.134 3.771 3.049 4.946 1.99 1.833-1.652.928-4.417-1.476-10.435zm-44.687 8.948c1-.629 3.861 6.461 4.435 15.077-2.77-7.417-5.079-14.673-4.435-15.077zm13.655 32.49c-1.245.78-3.807-4.612-4.475-5.987 3.571.817 5.883 5.104 4.475 5.987zm9.766-29.043c1.129 1.669 2.147 4.191 2.584 6.328-1.693.55-3.305-.746-4.455-2.446-3.177-4.695-.897-7.972 1.871-3.882zm-2.01 6.592c1.463 1.213 3.165 1.897 4.828 1.506.224 4.133-2.96 2.259-4.828-1.506z" fill="#262524" opacity=".4"/><g fill="#262524" opacity=".4"><path d="m231.515 143.094c.892 1.271 3.26.118 2.391-1.117-.882-1.256-3.263-.122-2.391 1.117z"/><path d="m239.3 150.255c-.805-1.307-3.252-.321-2.457.97.81 1.325 3.25.316 2.457-.97z"/><path d="m249.156 161.489c-1.201-2.297-10.847 1.24-13.174 2.428-5.372.261-.097-1.521 5.061-3.036l-.691-1.241-1.086.353c2.466-1.92-1.635-4.339-7.06-1.485-2.894.199-2.047-1.175 4.587-3.232.183.311.377.638.434.696l.902-.322c-.109-.146-.269-.377-.431-.651 1.55-.521 2.961-1.12 4.424-1.868l-.722-1.223c-1.973.63-3.258 1.087-4.58 1.563-.213-.36-.369-.664-.439-.784l-.881.357c.023.077.195.371.43.767-1.85.595-3.527 1.339-4.768 2.036-1.219.133-1.921.057-2.11-.252-.584-.966 5.327-2.717 7.075-3.317l-.891-1.448c-1.249.413-3.888 1.185-5.788 2.167-.735.019-1.449-.03-2.132-.126 2.977-1.256 6.449-2.743 7.316-3.023l-.898-1.372-.817.32c1.963-1.933-2.29-3.717-7.234-.677-1.96.261-2.038-.425-1.348-.912 1.343-.941 3.573-1.8 6.528-3.02l-.977-1.392c-1.264.506-3.985 1.485-5.829 2.633-.975.131-1.619-.046-.827-.65 2.254-1.707 8.562-3.979 11.826-6.228l-.956-1.258-7.026 3.583c.633-.656.729-1.257.281-1.847-1.733-2.279-10.549 1.861-8.815 4.139.689.908 1.958.824 3.208.452-2.31 1.715-1.289 2.841 1.198 2.63-1.494 1.407-.494 2.882 1.598 2.75-1.436 1.475-.147 2.772 1.907 2.622-.584.239-1.164.522-1.73.751-1.998-.459-3.652-.905-4.807-.148-1.621 1.061-.803 4.22 3.753 2.226l2.397-1.045c.701.133 1.464.226 2.276.255-1.987 1.443-.968 3.174 1.522 3.034-1.694 1.377-.751 2.619 1.168 2.605-1.61 1.453-.222 3.068 2.576 2.655-2.622 1.478-1.658 2.722 1.153 2.689-1.049.751-1.448 1.518-1.02 2.338.604 1.152 2.358 1.271 5.743.834.107 0 .074-.46.024-.556-5.12.579-5.76-.908-.812-2.803 4.445.91 11.806-.396 10.462-2.967zm-28.252-19.742c1.432-1.09 4.844-2.452 5.363-1.768.268.35-.038.809-.627 1.256-2.65 2.016-7.023 2.247-4.736.512zm.6 11.991c-.584.239-1.006.324-1.191.04-.109-.167-.086-.422.231-.631.802-.525 1.772-.468 2.969-.246zm5.062-4.201c1.523-.997 5.024-2.072 5.484-1.37.24.368-.096.804-.714 1.208-2.835 1.857-7.148 1.72-4.77.162zm6.461 10.428c1.588-.885 5.16-1.705 5.568-.971.214.383-.153.795-.8 1.153-2.976 1.66-7.245 1.2-4.768-.182zm14.765 2.758c-2.172 1.114-5.818 1.351-7.896 1.308 6.679-2.266 9.197-1.99 7.896-1.308z"/></g><g fill="#262524" opacity=".4"><path d="m206.49 172.518c-1.049-1.509-3.916-.165-2.877 1.33 1.067 1.53 3.913.157 2.877-1.33z"/><path d="m207.937 184.76l1.429-.785-1.275-1.624c-1.584.884-3.699 2.037-6.077 3.31-1.058.126-2.09.13-3.073.047 3.484-1.701 7.548-3.711 8.568-4.104l-1.166-1.585-.959.438c2.019-2.217-2.196-4.313-8.147-.703-3.078.533-3.115-.406-2.259-1 1.614-1.126 4.299-2.146 7.852-3.597l-1.167-1.675c-1.422.563-4.386 1.617-6.578 2.87-.278.032-.563.074-.827.083 2.331-1.488 3.089-4.854 4.756-6.041 1.041-.342 2.133-.777 3.321-1.33l-.638-1.534c-2.072.568-3.436 1.434-4.734 2.808-4.468.936-7.234 1.63-8.164.095-.703-1.16.61-2.14 1.742-2.823 1.857 2.188 4.574 2.226 6.031 1.343 2.977-1.803-.738-6.183-7.092-3.015-1.908.143-3.838-.114-2.344-.895 2.988-1.552 10.934-2.953 15.25-4.945l-.873-1.683-9.036 2.801c.88-.646 1.116-1.338.708-2.126-1.051-2.021-6.32-1.341-9.323.219-3.749 1.948-2.039 4.514 1.759 4.063-3.208 1.641-2.278 3.516 2.498 3.396-1.511 1.14-2.312 2.664-1.363 4.229 1.217 2.012 3.975 1.311 7.285.709.003-.002 1.406-.311 2.14-.506-1.132 1.379-1.95 2.754-3.192 3.574-1.33.876-2.137-.197-1.578-1.348l-1.688-.64c-1.289 1.667-.115 4.643 3.947 4.501-2.405 1.918-1.023 3.969 2.068 3.578-2.234 2.094-.482 3.735 2.084 3.404-.686.326-1.361.703-2.025 1.014-2.425-.419-4.438-.845-5.77.138-1.025.753-1.071 1.741-.432 2.611 1.528 2.075 5.499-.404 7.881-1.603.731.098 1.512.163 2.337.168-.931.466-1.604.893-1.604.893l1.291 1.643c1.757-.903 8.351-4.714 9.562-3.176.163.207.066.435-.141.598-1.359 1.068-4.419 1.486-6.456 3.088-1.152.904-1.19 1.943-.672 2.604 1.217 1.549 4.073.677 6.877-.183.113-.09-.063-.623-.15-.735-5.1 1.58-5.41.497-4.41-.291 1.547-1.217 4.758-1.754 6.514-3.133 1.884-1.488.174-3.368-2.687-3.145zm-23.821-22.774c-.607-1.168 6.954-3.219 7.589-1.996.861 1.657-6.874 3.37-7.589 1.996zm11.519 5.651c-.76.461-2.586.641-4.278-.439 3.597-1.525 5.472-.283 4.278.439zm-5.031 19.621c-.141-.195-.13-.502.238-.771.927-.684 2.094-.678 3.541-.492-1.864.899-3.336 1.864-3.779 1.263zm7.218-5.496c1.758-1.295 5.885-2.813 6.481-2.002.313.426-.061.969-.776 1.494-3.298 2.432-8.446 2.526-5.705.508z"/></g><g fill="#262524" opacity=".4"><path d="m160.191 13.028c-1.484-1.759-4.896.247-3.428 1.987 1.5 1.78 4.886-.251 3.428-1.987z"/><path d="m173.93 35.51c-2.496.533-4.287 1.235-5.52 2.911-1.403.439-2.904.83-4.424 1.062-.058.031-.013.007-.039.03-2.951.593-5.127.972-6.011-.455-.899-1.448.74-2.669 2.14-3.552 3.84 4.425 10.5 1.675 8.464-1.612-1.857-2.994-7.724-2.071-11.164.345-3.56.587-3.633-.321-1.646-1.678 3.035-2.066 5.661-2.774 7.621-3.524.305.447.625.918.718 1l1.318-.571c-.177-.206-.438-.536-.71-.933 2.271-.931 4.326-1.968 6.443-3.23l-1.2-1.759c-2.894 1.136-4.774 1.946-6.705 2.79-.355-.521-.616-.96-.735-1.133l-1.283.62c.042.116.329.538.718 1.108-2.722 1.076-5.193 2.365-6.983 3.535-1.744.356-2.771.338-3.095-.088-1.173-1.546 6.345-3.117 8.656-4.869 2.39-1.814.292-4.203-3.285-3.984l1.802-.951-1.561-2.056c-10.409 5.584-7.027 3.543-10.15 4.994-.562.024-.937-.067-1.118-.283-.941-1.11 4.529-3.777 9.754-6.493l-1.644-1.951c-3.781 1.915-13.004 6.041-10.366 9.167.31.367.687.604 1.117.746-.016.009-.05.03-.05.03l1.576 2.079c2.223-1.096 10.54-5.711 12.016-3.765.882 1.163-4.198 2.194-6.881 3.584l.006-.018c-3.907 2.224-6.338 3.333-11.75 6.266-.53-.651-.927-1.203-1.104-1.421l-1.635.97c.07.149.499.676 1.081 1.39-3.27 1.625-6.234 3.476-8.442 5.145-5.957 1.003-8.14-2.502-3.859-6.165 5.487-4.7 11.214-3.442 8.481-1.102-.912.78-2.586 1.529-4.14 1.807l.632 2.828c4.63-1.292 8.527-4.74 6.038-7.645-2.989-3.491-10.157-1.031-14.146 2.594-2.691.755-4.129.73-4.346.492-.785-.859 11.994-8.22 12.994-8.791l-1.918-2.096-1.95 1.187c1.141-1.421 1.224-2.636.224-3.728-3.874-4.238-20.708 5.568-16.834 9.809 1.566 1.712 4.076 1.315 6.498.348-1.309 1.19-3.159 3.006-1.869 4.419.814.891 2.563 1 5.462.263-2.948 4.058-.719 8.403 6.649 7.534-3.981 3.828-1.272 6.063 2.604 5.408-2.114 2.533-.549 5.765 4.649 4.835-3.502 4.304.867 8.125 6.625 7.004.296.203.622.376.96.535-1.705.564.239-.176-17.334 7.4 1.227-1.088 1.484-2.151.764-3.272-2.785-4.332-19.186 1.838-16.398 6.176 1.109 1.727 3.395 1.754 5.689 1.264-1.262.814-3.275 2.159-2.327 3.635.806 1.252 3.505 1.669 8.426.82-2.63 2.114-4.357 5.153-2.163 7.697 2.203 2.555 5.967 1.362 10.441-.249.171-.062 2.681-1.136 3.796-1.706-.827 1.6-3.691 8.842-5.93 6.641-.487-.48-.593-.988-.371-1.881l-2.675-.412c-1.367 2.832 1.265 7.116 7.833 5.196-1.546 1.791-2.187 3.496-.78 4.751 1.271 1.136 3.051.854 5.081.03-2.853 4.083.313 6.014 4.069 4.522-.873.727-1.714 1.527-2.566 2.227-3.68.289-6.762.42-8.334 2.342-1.208 1.477-.91 2.93.344 3.955 2.958 2.421 7.687-2.495 10.859-5.254 1.214-.145 2.502-.372 3.839-.729-1.303 1.128-2.226 2.131-2.226 2.131l2.502 1.881c2.211-2 10.29-10.055 12.631-8.293 1.595 1.188-5.563 4.465-8.137 7.889-1.319 1.754-.977 3.273.031 4.031 2.359 1.773 6.164-.592 9.896-2.918.129-.174-.331-.879-.504-1.01-3.754 2.357-5.914 3.254-6.662 2.691-1.864-1.393 6.308-5.692 8.391-8.463 2.157-2.872-1.029-4.953-5.102-3.52l1.767-1.689-2.475-1.861c-1.907 1.849-4.449 4.261-7.316 6.942-1.598.653-3.21 1.062-4.775 1.323 4.433-3.768 9.592-8.197 10.929-9.15l-2.283-1.869-1.232.994c2.023-3.804-4.289-5.54-11.713 1.609-4.854 2.19-5.25.755-4.18-.443 1.969-2.201 5.529-4.619 10.213-7.967l-2.281-2.039c-1.772 1.237-5.395 3.584-8.12 6.016-.648.245-1.286.455-1.905.609 3.021-3.079 3-8.075 5.086-10.35 1.419-.826 2.887-1.805 4.457-2.988l-1.417-2.049c-2.905 1.501-4.607 3.211-6.065 5.596-3.218 1.424-9.893 4.83-12.234 2.119-1.333-1.547.374-3.32 1.87-4.611 3.293 2.77 7.321 2.146 9.257.479 3.42-2.956-1.043-8.025-8.975-4.068-.001.001 0 0-.001 0-1.391.487-6.478 1.599-7.152.547-.539-.825 6.446-3.621 7.355-4 14.966-4.919 29.792-13.322 32.052-9.826 1.206 1.853-7.514 2.525-11.511 5.106-2.05 1.325-2.272 3.042-1.513 4.218 1.779 2.754 6.654 1.747 11.439.75.201-.13-.008-1.044-.139-1.245-8.985 1.901-8.901-.104-7.271-1.157 2.754-1.78 8.162-2.181 11.287-4.199 3.354-2.17.818-5.56-3.971-5.627l2.489-1.085-1.867-2.889c-2.788 1.236-6.508 2.84-10.69 4.602-.409-.091-.777-.228-1.101-.409 14.251-5.062 8.863-14.762.677-10.434l-.556-1.376c-2.362.735-4.837 1.913-6.792 3.413-2.247.48-3.58.466-4.01-.086-1.183-1.522 6.036-4.712 13.318-8.157l-2.09-2.68c-2.536 1.164-8.101 3.474-11.661 6.023-4.324 1.016-5.989-.066 3.406-5.689 1.575-.662 3.037-1.337 4.442-2.018.455.56.935 1.148 1.066 1.247l1.685-.907c-.257-.254-.642-.663-1.046-1.159 2.667-1.367 5.08-2.843 7.52-4.551.812.745 2.053.877 3.498.71-2.588 2.358-.885 4.273 2.741 3.762-1.076 1.263-1.449 2.744-.52 4.243 1.55 2.498 4.993 1.359 9.124.561.001 0 .001-.004.002-.005l2.875-.43c-1.985 3.037-4.565 1.657-7.215 3.137-1.179.658-1.702 1.568-1.015 2.799 1.2 2.147 4.749 1.368 8.378.853.188-.101.051-.769-.043-.938-3.655.529-5.555.388-5.877-.188-.719-1.289 3.614-.988 5.756-2.184 1.493-.834 1.911-2.545 2.318-3.906 1.596-.342 2.971-.835 4.758-1.695zm-7.098-.84c.528.851-2.642 2.241-5.739.312 2.305-1.007 5.091-1.357 5.739-.312zm-52.314-7.756c-1.559-1.697 9.838-8.15 11.36-6.485 2.099 2.291-9.616 8.393-11.36 6.485zm16.839 79.215c-.277-.229-.373-.68.059-1.209 1.094-1.336 2.791-1.762 4.965-2.031-2.372 1.998-4.152 3.95-5.024 3.24zm17.128-15.986c2.164 1.771-7.479 8.719-9.278 7.246-1.603-1.312 7.708-8.533 9.278-7.246zm-16.921-15.118c-1.009.869-3.666 1.592-6.438.418 4.96-3.164 8.013-1.781 6.438-.418zm-18.665-6.824c-1.066-1.662 9.942-5.771 11.06-4.029 1.518 2.352-9.802 5.983-11.06 4.029zm30.851-18.249c4.869-3.537 8.321-1.202 4.15 1.832-1.716 1.246-4.334 2.407-6.566 2.941-.638-1.762.669-3.502 2.416-4.773zm-2.855-.05c-1.225 1.582-1.884 3.396-1.414 5.133-4.282.373-2.558-2.987 1.414-5.133z"/><path d="m147.537 38.564c1.909 2.448 6.523-.093 4.666-2.473-1.884-2.416-6.532.081-4.666 2.473z"/><path d="m145.324 81.773c2.085 1.862 5.761-1.127 3.736-2.938-2.06-1.838-5.771 1.121-3.736 2.938z"/></g><g fill="#262524" opacity=".4"><path d="m226.453 69.792c-.262-3.992-5.796-2.557-5.519 1.664.258 3.872 5.8 2.551 5.519-1.664z"/><path d="m228.287 86.654c-3.303 10.693-5.311 9.174-5.459 6.951-.258-3.929.764-9.575 1.947-17.159l-4.071.27c-.451 2.691-1.5 7.892-1.804 12.57-1.751 4.175-3.107 6.214-4.196 6.207-2.327-.016.108-9.452 2.22-18.609l-4.08-.023c-1.396 5.674-1.513 6.006-2.563 11.6-2.068 8.347-4.222 7.89-4.207 5.352.021-3.292 2.686-14.813 3.219-16.973l-4.08-.023c-.259 1-2.998 12.006-3.023 16.59-.02 3.215.831 5.523 3.375 5.537 1.871.012 3.273-1.563 4.342-3.909.274 2.354 1.226 3.942 3.338 3.955 2.586.016 4.21-2.385 5.629-5.577.236 3.239 1.261 5.521 3.815 5.352 3.928-.26 5.237-5.927 6.985-11.526-.028-.344-1.076-.606-1.387-.585z"/></g><g fill="#262524" opacity=".4"><path d="m204.485 59.396l1.147-1.892-8.275-7.309c1.179.485 2.01.301 2.548-.584 1.379-2.275-2.499-7.115-5.876-9.163-4.21-2.551-5.741.7-2.982 4.219-3.945-2.416-4.568.328-1.921 4.475-2.021-.798-3.991-.67-4.979 1.194-1.063 2.006-.004 4.194 5.453 9.525-2.058-.313-3.924-.315-5.485-1.073-1.681-.814-1.065-2.263.409-2.384l-.363-2.075c-2.42-.297-4.731 2.628-2.168 6.632-3.355-1.269-4.576 1.352-2.343 4.22-3.431-1.004-4.05 1.725-2.187 4.113-.734-.494-1.515-.946-2.224-1.429-1.021-2.683-1.791-4.956-3.57-5.711-1.366-.579-2.387-.038-2.878 1.123-1.174 2.77 3.717 5.304 6.296 6.958.34.798.743 1.626 1.234 2.463-1.031-.665-1.871-1.093-1.871-1.093l-.882 2.271 4.998 3.141c4.848 3.315 4.239 5.191 3.189 4.78-1.88-.729-4.118-3.55-6.936-4.644-1.593-.617-2.657-.04-3.012.874-.831 2.14 1.741 4.489 4.271 6.792.156.06.588-.433.648-.589-4.762-4.311-3.597-5.089-2.329-4.599 2.583 1.003 8.093 7.382 9.455 3.879.425-1.095.047-2.443-.882-3.765l1.637.966.871-2.244c-1.822-1.061-4.225-2.491-6.902-4.113-.766-.993-1.389-2.035-1.894-3.079 3.782 2.485 8.217 5.369 9.221 6.159l.896-2.114-1.01-.702c3.44.71 3.011-4.768-4.128-8.588-1.181-1.379-1.669-2.289-1.452-2.765.561-1.229 4.919 2.25 9.376 5.625l.987-2.166c-1.42-1.1-4.271-3.475-6.848-4.928-.187-.247-.364-.495-.523-.743 3.057 1.455 6.706.203 8.894 1.169.961.839 2.049 1.678 3.312 2.539l1.158-1.555c-1.823-1.758-3.506-2.595-5.635-3.074-3.464-3.777-6.024-6.147-4.996-8.09.742-1.398 2.508-.67 3.869.054-1.076 3.168.513 5.911 2.27 6.841 3.607 1.909 5.762-4.512-1.309-8.956-1.018-1.434-1.574-2.525-1.305-2.969.751-1.239 10.117 9.081 15.026 12.384zm-12.971-17.067c.796-1.311 7.43 4.979 6.594 6.356-1.125 1.861-7.533-4.806-6.594-6.356zm-21.345 21.5c.109-.258.425-.429.915-.221 1.238.524 1.926 1.698 2.602 3.263-2.024-1.343-3.857-2.24-3.517-3.042zm15.679 9.292c-.241.567-1.009.514-1.964.11-4.371-1.853-7.573-6.98-3.903-5.426 2.345.994 6.326 4.233 5.867 5.316zm6.981-15.906c-.916-.485-2.19-2.206-2.123-4.547 3.68 2.688 3.56 5.307 2.123 4.547z"/><path d="m191.366 68.9c-.9 1.98 2.172 4.019 3.046 2.096.891-1.951-2.162-4.028-3.046-2.096z"/></g><path d="m260.922 96.688c1.918-.223 3.796-3.369-.124-7.213 1 .4 1.12.837 3.503 1.594l.396-1.873c-2.089-.879-8.064-3.116-7.746-4.633.037-.172.166-.258.512-.184.926.195 5.322 2.162 7.58 3.18l.416-1.959c-1.948-.931-8.208-3.185-7.842-4.922.339-1.578 7.89 5.218 8.697 1.415.301-1.421-1.127-2.669-2.87-3.866 4.194.254 5.11-3.252 1.929-5.537 1.099.269 2.016.379 2.016.379l.035-1.912c-1.773-.375-8.656-1.485-8.631-3.278.039-1.612 8.735 3.626 8.805-.26.021-1.213-1.122-2.079-2.63-2.824 1.623-.116 2.625-.554 2.593-1.446-.051-1.429-1.615-2.055-5.178-3.226-.111.003-.291.494-.285.626 1.715.6 3.813 1.382 3.834 1.976.01.286-.469.458-1.391.491-2.68.096-4.594-.493-6.105-.794-.014-.396-.027-.813-.053-.9l-1.041-.16c.029.196.063.503.074.855-1.771-.311-3.449-.471-5.256-.516l.055 1.56c2.238.426 3.723.659 5.25.891.016.462.008.836.012.991l1.039.117c.02-.089.006-.463-.012-.968 1.733.327 3.418.496 4.835.533 1.793.792 2.677 1.404 2.669 1.889-.039 1.987-8.724-3.416-8.777.128-.018.924.627 1.814 1.67 2.537l-1.469-.268-.035 1.892c1.464.259 3.365.612 5.482 1.022 3.351 1.871 3.685 4.669-.266 4.281-.174-2.623-2.152-4.137-3.709-4.283-2.99-.281-2.987 4.458 2.912 5.952 4.1 2.665 3.336 3.425 2.285 3.202-2.126-.45-7.211-4.703-7.824-1.814-.215 1.012.365 2.102 1.453 3.119-2.472-.815-3.246 1.291-.906 3.429l-1.555-.622-.393 1.852c1.21.463 2.727 1.058 4.42 1.734-.026.039-.054.079-.063.104 1.748 1.504 3.193 3.131 2.951 5.08-1.08-1.729-3.4-3.464-5.404-4.195-3.277-1.193-4.361.794-2.756 2.932l-1.057-.572-.564 1.551c.715.335 2.357 1.221 4.283 2.284.722.804.973 1.512.953 2.134-6.069-5.684-9.452-.611-5.271 2.3l-.533.618c.562.569 1.183 1.083 1.819 1.53 3.043 4.173 2.136 5.683-2.433 2.022-1.571-4.632-6.905-11.017-8.621-8.288-1.441 2.3 6.349 8.82 8.607 10.472 2.056 3.47.952 6.228-2.309 3.764 1.221-2.327.32-4.65-.93-5.586-2.43-1.818-4.895 2.328-.542 6.672.834 1.77.338 2.623-.468 2.943-.923-2.79-3.85-8.063-5.814-5.904-1.338 1.471 1.53 5.337 4.279 6.412.283.704.523 1.455.699 2.18-1.811-1.346-3.203-2.463-4.16-3.242-.357-.711-.921-1.867-1.619-2.242l-1.049 1.156c.628.744 1.842 1.852 2.496 2.387l.639 1.262c.035.032.104.023.179.002.854 2.137.97 3.811.04 4.674-.916.852-2.006-.146-2.857-1.041 1.619-2.073 1.148-4.52.086-5.665-2.125-2.284-5.34 1.622-1.54 6.731.562 1.977.621 3.714-.331 2.508-1.962-2.465-4.464-9.186-7.102-12.867l-1.363 1.078 4.09 7.647c-.734-.681-1.396-.772-2.035-.267-2.47 1.952 2.272 11.558 4.74 9.601.984-.778.863-2.171.428-3.536 2.369 2.962 3.478.887 2.573-3.043 1.338 1.245 2.922 1.769 4.198.583 1.514-1.406.884-3.695-.188-6.4 1.067.875 2.272 1.809 3.594 2.846l.801-.88c-.016-.964-.213-2.122-.58-3.319.8-.219 1.579-1.331 1.303-2.711 1.636 1.197 3.479 1.588 4.611.077 1.009-1.348.51-3.018-.54-4.927 1.836 1.111 3.153 1.31 3.831.229.63-1.002.134-2.372-1.347-4.491 4.412 2.206 5.666-1.517 3.382-4.406.092-.729-.064-1.533-.434-2.3 6.52 3.625 6.57 4.183 9.162 5.114l.506-1.385zm-2.045-23.19c.809.076 2.254.942 2.908 2.661-3.475-.842-4.186-2.782-2.908-2.661zm-15.006 39.758c-3.894-3.535-2.335-6.618 1.102.851-.371-.248-.743-.525-1.102-.851zm-8.09 13.844c-.943.751-4.101-5.704-3.113-6.484 1.337-1.062 4.228 5.601 3.113 6.484zm3.492-7.481c-2.104-3.044-1.22-4.8-.4-3.924.555.598 1.057 2.205.4 3.924zm7.903-13.353c.65.488 1.432 1.979 1.094 3.787-2.614-2.617-2.059-4.504-1.094-3.787zm-2.647-9.284c2.264 1.443 4.512 4.775 5.623 6.771-5.982-5.19-6.951-7.609-5.623-6.771zm7.346.572c.602-1.191 3.541.747 5.031 2.481-1.524 1.648-5.613-1.288-5.031-2.481zm2.785 3.913c1.082.199 2.135.064 2.865-.604 1.273 2.005-.829 1.991-2.865.604zm6.074-6.067c-.25.688-1.321.438-1.932.092-5.186-2.918-4.982-4.669-2.697-3.842 1.901.694 4.975 2.799 4.629 3.75z" fill="#262524" opacity=".4"/><path d="m239.484 178.377l-1.174-1.945c-3.146 1.041-5.197 1.793-7.303 2.578-.348-.576-.602-1.057-.717-1.25l-.977.407c2.227-3.269-4.2-7.204-11.618-2.344-1.902.161-2.994.013-3.284-.479-.784-1.336 5.461-3.162 11.418-5.07l-1.377-2.346c-3.736 1.142-3.863 1.147-7.52 2.486-5.475 1.658-5.964.274-4.499-.588 1.898-1.111 9.39-3.506 10.82-3.939l-1.377-2.346c-1 .291-7.195 2.212-9.771 3.512-1.434-.014-2.377-.421-1.021-1.203 3.586-2.064 9.675-3.24 17.047-6.173 1.242-.494-1.074-2.499-1.074-2.499l-9.082 3.258c3.423-2.749-1.244-6.617-10.046-2.803-.3-.108-.575-.238-.806-.404 11.765-2.716 8.372-10.916 1.488-8.227l-.314-1.145c-1.938.367-3.984 1.065-5.707 2.092-3.354.12-3.402-.873-2.6-1.318.98-.543 4.018-.541 5.811-1.533 1.596-.883 2.049-2.705 2.49-4.158 1.705-.355 3.173-.877 5.083-1.787l-.546-2.441c-2.926.613-4.668 1.42-5.902 3.084-3.502 1.081-10.136 3.12-12.637.258 5.287.912 14.328-2.528 12.409-6.105-.483-.902-1.613-1.387-3.134-1.516l1.643-.59-1.133-2.115c-2.009.859-9.422 3.416-15.193 5.383-2.555.555-5.562 1.471-7.867 2.729l1.014 1.889 10.634-3.592c-.826 1.168-.716 2.523-.081 3.709 1.787 3.335 5.709 2.742 9.658 2.219 1.947-.266 3.594-.676 3.594-.676-2.126 3.229-4.885 1.751-7.713 3.316-1.261.697-1.821 1.666-1.092 2.982.683 1.234 2.097 1.565 3.857 1.528-3.258 3.098-.205 6.603 4.559 6.229.359.313.779.579 1.237.8-5.34 2.908-2.758 6.296 2.283 5.468-4.212 2.46-2.326 4.277 1.387 4.428-2.47 1.936-1.433 4.753 2.688 4.301-1.255.959-1.842 2.045-1.129 3.26.754 1.284 2.295 1.544 4.19 1.414-2.686 2.748-1.523 6.423 4.417 6.716-1.643 1.175-2.396 2.319-1.783 3.335 1.075 1.781 3.506 1.473 8.865.443.137-.082.019-.834-.08-.998-8.826 1.528-8.014-.346-.273-3.611 1.322-.35 2.555-.721 3.745-1.102.298.492.612 1.014.706 1.105l1.436-.529c-.176-.23-.436-.598-.699-1.035 2.474-.859 4.722-1.841 7.05-3.062zm-43.475-41.383c8.327-2.844 9.818-.832 6.778.795-2.595 1.391-7.854 2.686-8.549 1.389-.501-.936.803-1.856 1.771-2.184zm7.975 17.93c-3.459-.091-1.729-2.62 1.592-3.949-1.117 1.144-1.805 2.527-1.592 3.949zm8.575-4.145c.953 1.69-3.759 3.667-7.073 4.068-.751-3.175 6.108-5.755 7.073-4.068zm-4.553 9.791c2.494-1.439 8.186-2.91 8.873-1.717.352.609-.226 1.275-1.252 1.867-4.621 2.665-11.595 2.139-7.621-.15zm14.282 22.153c-4.806-.035-6.007-3.092-2.157-5.383 4.952-2.956 9.315-1.203 6.838.281-.824.492-2.246.855-3.51.863l.115 2.316c1.861-.19 4.158-.874 5.42-2.237.121.22.33.567.594 1.003-2.789.93-5.359 2.075-7.3 3.157z" fill="#262524" opacity=".4"/><path clip-rule="evenodd" d="m93.063 134.509c-.736 1.625-1.661 3.509-2.729 5.564.44-.031.874-.064 1.291-.102 11.215-1.004 59.285-4.518 62.063-8.222 4.5-6 8.5-8 2-6-4.33 1.332-35.286 5.438-61.681 8.548-.048.049-.383.121-.944.212z" fill="#252423" fill-rule="evenodd" opacity=".1"/><path clip-rule="evenodd" d="m74.063 140.233l2.023-3.636c-7.598.922-14.795 1.88-15.086 2.403-.248.445 5.771.996 13.063 1.233z" fill="#252423" fill-rule="evenodd" opacity=".1"/><path d="m263.998 111.325c-2.181 3.417-4.796 6.737-7.921 9.884-.784.832-1.602 1.612-2.438 2.358 5.94-4.6 36.314-21.172 47.473-29.567-13.123 3.22-30.524 11.055-37.114 17.325z" fill="#252423" opacity=".1"/></svg>