<svg xmlns="http://www.w3.org/2000/svg" viewBox="0 0 178 40"><g fill="#fff"><path d="m13.13 11.08c-.753 2.257.458 4.908 2.716 7.722 2.88 3.599 3.861 8.541 3.01 12.63-1.44 6.708-8.181 9.915-13.842 7.657-6.806-2.717-6.282-12.762-.851-16.886 3.828-2.912 6.25 1.703 6.05 1.768-7.821 1.932-9.162 11.225-3.993 13.646 3.567 1.668 7.788-.099 8.966-4.681.752-2.912-.065-7.396-3.24-11.321-2.749-3.468-3.436-7.755-1.505-10.994 2.127-3.567 7-4.385 9.653-3.174 5.137 2.389 4.287 8.573 1.407 10.504-3.763 2.519-5.563-2.127-5.563-2.127 5.105-1.211 5.596-5.825 3.109-7-2.289-1.078-5.169.034-5.922 2.259"/><path d="m36.823 27.965c.556-.229 1.113.229.72 1.243-1.276 3.142-3.501 5.433-6.05 4.745-1.636-.425-2.291-2.16-2.389-4.646-.655 1.963-1.898 4.319-4.254 4.483-2.749.196-4.352-3.338-3.501-7.854.884-4.776 4.352-8.02 7.886-6.707 1.08.392.491 1.799.295 1.701-.164-.033-.327-.099-.524-.099-1.603-.098-2.781 2.324-3.37 4.582-.654 2.486-.785 5.693.262 6.02.884.229 2.225-1.275 3.305-5.104.098-1.015.196-2.095.392-3.239.753-4.712 3.534-5.235 5.399-3.338 0 0-1.309 2.585-1.996 6.414-.523 2.945-.458 5.694.491 5.923 1.08.229 2.421-1.8 3.272-4.123 0-.002.033-.002.065-.002"/><path d="m44.613 32.383c1.047.229 2.683-2.062 3.534-4.418h.065c.557-.196 1.113.229.72 1.277-1.276 3.141-3.763 5.692-6.315 5.04-2.487-.654-3.174-4.777-1.145-10.635l-.294.065c-.556.065-1.047.033-1.473-.065-.556 2.029-1.407 4.254-2.487 6.283-.524.981-1.276.817-1.473.229-.033-.034-.033-.066-.033-.066 1.146-1.832 2.029-4.875 2.421-7.297-1.178-1.048-1.44-2.814-.654-3.893.098-.099.229-.099.229-.099s1.178 1.407 4.221 1.178c5.072-.425 5.235 0 4.188 2.781-2.289 6.05-2.486 9.425-1.504 9.622"/><path d="m64.61 35.36c-.949 2.389-3.436 3.633-5.465 3.043-2.388-.72-3.403-3.73-3.272-8.573-.72 1.833-1.898 3.829-4.09 3.96-2.749.196-4.319-3.338-3.501-7.854.883-4.776 4.287-7.787 7.918-6.707.523.163.981.491 1.375.883 1.21-1.8 3.01-1.734 4.352-.361 0 0-1.276 2.585-1.996 6.414-.85 4.68-.621 9.719 1.244 10.145.949.229 2.159-.753 2.683-2.226h.065c.589-.23 1.113.229.687 1.276m-8.507-8.868c.098-1.079.262-2.225.458-3.402.099-.688.229-1.309.426-1.801-.262-.261-.622-.424-1.047-.458-1.604-.098-2.749 2.324-3.37 4.582-.655 2.486-.786 5.693.261 6.02.85.229 2.192-1.245 3.272-4.942"/><path d="m76.53 17.495c5.694-1.702 7.951-7.919 4.974-8.803-2.945-.883-7.198 3.469-9.391 11.91-1.702 6.578.883 11.846 4.09 12.5 2.813.589 7-2.063 8.08-5.138 0 0 .032 0 .032-.032.589-.229 1.112.229.752 1.275-1.537 3.829-6.512 6.741-10.863 5.792-3.959-.883-8.476-5.269-6.643-13.906 2.291-10.569 10.308-14.79 14.823-13.678 3.992 1.015 4.254 8.246-.099 11.551-3.597 2.717-5.758-1.471-5.758-1.471"/><path d="m90.37 18.64c.393-.687.916-1.243 1.571-1.603 2.454-1.375 6.479-.328 5.104 8.704-.098.688-.261 1.406-.522 2.127 1.995-.786 3.436-2.979 4.188-5.105h.032c.589-.196 1.112.229.752 1.277-1.112 2.649-3.141 4.908-5.66 5.464-1.407 2.814-3.894 5.203-6.937 4.908-3.338-.327-5.857-3.305-5.236-7.951.491-3.829 3.501-7.168 6.708-7.821m-1.079 3.206c-.622 1.112-1.146 2.422-1.342 3.861-.557 3.437.327 5.693 2.323 5.825 1.211.098 2.454-.655 3.436-1.964-.099 0-.196-.033-.262-.065-3.371-.654-4.548-4.352-4.155-7.657m5.268 6.283c.327-.72.59-1.506.72-2.389.851-4.974-.621-7.166-2.389-5.759-2.159 1.668-2.159 7.623 1.669 8.148"/><path d="m103.1 31.827c.852.229 2.226-1.571 3.338-5.367.033-1.015.163-2.128.359-3.37.753-4.777 3.764-5.235 5.661-3.305 0 0-1.407 2.814-2.062 6.414-.589 2.912-.458 5.857.622 5.987 1.047.1 2.355-1.864 3.206-4.221h.033c.59-.196 1.112.229.72 1.277-1.439 3.632-3.894 5.595-6.02 4.744-1.407-.524-2.356-2.062-2.52-4.909-.785 2.16-2.553 5.334-5.01 5.04-3.043-.36-3.795-4.68-2.225-10.667 1.275-4.974.92-5.217.92-5.217 4.237-1.789 4.742-.642 3.269 4.725-1.295 4.725-1.602 8.54-.293 8.869"/><path d="m120.12 15.171c1.275.229 1.994.442 3.074.279l.425-.065c1.473.654.977 2.368-.818 2.716-.951.185-1.896-.083-3.532-.377-.425 1.538-.817 3.337-1.177 5.661-.524 3.206-.786 8.377.13 8.736.982.359 2.356-1.8 3.207-4.124l.032-.032c.59-.196 1.112.263.721 1.277-1.244 3.141-3.861 5.726-6.05 4.744-2.095-.917-2.618-6.218-2.127-10.602.229-2.291.557-4.68 1.047-6.61-3.338-.785-6.839-1.571-9.293-1.178-3.469.523-5.771 2.222-5.771 2.222-1.603-1.669-.868-5.576 3.517-6.197 3.239-.458 8.308 1.096 12.431 2.438.295-.72.687-1.276 1.047-1.636 2.454-2.257 4.482-.131 4.482-.131s-.621.948-1.341 2.879"/><path d="m129.25 27.965c.589-.196 1.113.229.72 1.277-1.243 3.141-3.502 5.692-6.05 5.04-2.454-.654-3.306-5.137-2.095-10.372.982-3.992 3.371-5.367 5.891-3.567 0 0-1.374 2.291-2.094 5.594-.721 3.338-.654 6.25.294 6.447 1.08.229 2.454-2.062 3.305-4.418h.033m-2.531-9.964c-1.539-.425-2.028-1.865-1.734-3.239.425-1.931 2.192-2.454 3.796-1.734 1.995.851 2.028 2.062 1.145 3.534-.721 1.177-2.095 1.766-3.207 1.439"/><path d="m130.91 18.574c2.192-1.439 4.188.785 4.188.785s-.687.557-1.309 4.449c2.389-4.351 4.712-6.05 6.774-5.333 1.537.524 1.7 3.141.621 7.722-1.538 6.446-1.44 9.783-.229 10.962 1.211 1.178 3.469 1.015 5.203-1.702h.065c.589-.065 1.015.491.394 1.408-2.521 3.664-6.12 3.696-7.985 2.225-2.094-1.637-3.174-6.119-1.57-12.239 1.014-3.894 1.014-5.234.327-5.497-.622-.163-2.062 1.343-4.09 6.152-.786 6.217-1.735 7.134-4.124 6.217 0 0-.13-.425-.13-1.538-.032-7.558-.196-12.236 1.865-13.611"/><path d="m160.14 6.729c-1.702 5.596-6.086 8.835-10.929 10.242-.491 2.356-.885 4.745-1.211 7.04 2.257-3.927 5.04-5.693 6.74-5.301 1.374.393 1.832 2.912.72 7.493-.687 2.978-.884 5.661.131 5.89 1.08.229 2.814-1.767 3.665-4.123h.032c.59-.196 1.112.229.721 1.277-1.276 3.173-3.993 5.398-6.185 5.136-2.259-.294-3.633-3.108-2.455-7.526 1.048-3.894.786-5.07.132-5.202-.622-.163-1.898 1.112-3.895 5.89-.752 6.185-1.767 7.102-4.123 6.185 0 0-.163-.458-.13-1.57.032-4.385.425-9.555 1.341-14.397-2.585.164-5.104-.164-7.265-.884-4.221-1.407-3.796-5.399-1.931-6.708 0 0 .753 1.93 4.124 2.912 1.767.491 3.86.752 5.987.654 1.146-4.319 2.749-8.08 5.01-10.569 4.484-4.909 11.945-4.386 9.524 3.566m-9.982 6.315c3.862-1.08 7.265-3.403 8.542-7.395 1.145-3.73-1.735-5.301-4.418-2.127-1.669 2.029-3.043 5.53-4.124 9.522"/><path d="m167.47 19.03l.49-.328c2.127-1.21 5.53.786 4.614 7.04-.065.556-.197 1.111-.36 1.669 1.734-.36 3.272-2.585 4.03-4.647h.032c.589-.229 1.112.229.721 1.244-1.048 2.65-2.75 4.876-5.399 4.974-1.375 3.043-3.96 5.727-7.166 5.432-3.338-.327-5.891-3.305-5.27-7.983.623-4.614 3.96-7.788 7.854-7.461l.459.065m-.786.981c-1.374-.033-2.715 2.323-3.239 5.661-.557 3.469.36 5.726 2.356 5.823 1.407.132 2.944-.98 3.959-2.78-3.501-1.079-4.516-6.02-3.076-8.704m3.763 7.198c.131-.458.262-.948.359-1.472.458-2.782-.883-4.02-1.701-3.37-.981.752-1.113 3.894 1.342 4.842"/></g></svg>