<svg enable-background="new 0 0 240 398" height="398" viewBox="0 0 240 398" width="240" xmlns="http://www.w3.org/2000/svg" xmlns:xlink="http://www.w3.org/1999/xlink"><g opacity=".15"><path d="m141.5 275.57l-2 3.43 2 3.428 2-3.428z"/><path d="m146.5 273.857l-2-3.429-2 3.429 2 3.428z"/><path d="m149.5 268.713l-2-3.428-2 3.428 2 3.43z"/><path d="m152.5 263.57l-2-3.427-2 3.427 2 3.43z"/><path d="m155.5 258.428l-2-3.428-2 3.428 2 3.429z"/><path d="m156.5 256.713l2-3.428-2-3.428-2 3.428z"/><path d="m161 249h-3l1.5 2.57z"/><path d="m144.5 280.713l-2 3.43 2 3.427 2-3.427z"/><path d="m147.5 275.57l-2 3.43 2 3.428 2-3.428z"/><path d="m152.5 273.857l-2-3.429-2 3.429 2 3.428z"/><path d="m155.5 268.713l-2-3.428-2 3.428 2 3.43z"/><path d="m156.5 267l2-3.43-2-3.427-2 3.427z"/><path d="m161.5 258.428l-2-3.428-2 3.428 2 3.429z"/><path d="m162.5 256.713l2-3.428-2-3.428-2 3.428z"/><path d="m167 249h-3l1.5 2.57z"/><path d="m147.5 285.857l-2 3.428 2 3.428 2-3.428z"/><path d="m150.5 280.713l-2 3.43 2 3.427 2-3.427z"/><path d="m151.5 279l2 3.428 2-3.428-2-3.43z"/><path d="m156.5 277.285l2-3.428-2-3.429-2 3.429z"/><path d="m161.5 268.713l-2-3.428-2 3.428 2 3.43z"/><path d="m162.5 267l2-3.43-2-3.427-2 3.427z"/><path d="m167.5 258.428l-2-3.428-2 3.428 2 3.429z"/><path d="m168.5 256.713l2-3.428-2-3.428-2 3.428z"/><path d="m173 249h-3l1.5 2.57z"/><path d="m150.5 291l-2 3.428 2 3.429 2-3.429z"/><path d="m151.5 289.285l2 3.428 2-3.428-2-3.428z"/><path d="m156.5 280.713l-2 3.43 2 3.427 2-3.427z"/><path d="m157.5 279l2 3.428 2-3.428-2-3.43z"/><path d="m162.5 277.285l2-3.428-2-3.429-2 3.429z"/><path d="m167.5 268.713l-2-3.428-2 3.428 2 3.43z"/><path d="m168.5 267l2-3.43-2-3.427-2 3.427z"/><path d="m173.5 258.428l-2-3.428-2 3.428 2 3.429z"/><path d="m174.5 256.713l2-3.428-2-3.428-2 3.428z"/><path d="m179 249h-3l1.5 2.57z"/><path d="m151.5 299.57l2 3.43 2-3.43-2-3.427z"/><path d="m156.5 291l-2 3.428 2 3.429 2-3.429z"/><path d="m157.5 289.285l2 3.428 2-3.428-2-3.428z"/><path d="m162.5 280.713l-2 3.43 2 3.427 2-3.427z"/><path d="m163.5 279l2 3.428 2-3.428-2-3.43z"/><path d="m168.5 277.285l2-3.428-2-3.429-2 3.429z"/><path d="m173.5 268.713l-2-3.428-2 3.428 2 3.43z"/><path d="m174.5 267l2-3.43-2-3.427-2 3.427z"/><path d="m179.5 258.428l-2-3.428-2 3.428 2 3.429z"/><path d="m180.5 256.713l2-3.428-2-3.428-2 3.428z"/><path d="m185 249h-3l1.5 2.57z"/><path d="m156.5 301.285l-2 3.428 2 3.43 2-3.43z"/><path d="m157.5 299.57l2 3.43 2-3.43-2-3.427z"/><path d="m162.5 291l-2 3.428 2 3.429 2-3.429z"/><path d="m163.5 289.285l2 3.428 2-3.428-2-3.428z"/><path d="m168.5 280.713l-2 3.43 2 3.427 2-3.427z"/><path d="m169.5 279l2 3.428 2-3.428-2-3.43z"/><path d="m174.5 277.285l2-3.428-2-3.429-2 3.429z"/><path d="m179.5 268.713l-2-3.428-2 3.428 2 3.43z"/><path d="m180.5 267l2-3.43-2-3.427-2 3.427z"/><path d="m185.5 258.428l-2-3.428-2 3.428 2 3.429z"/><path d="m186.5 256.713l2-3.428-2-3.428-2 3.428z"/><path d="m191 249h-3l1.5 2.57z"/><path d="m158 309h3l-1.5-2.572z"/><path d="m162.5 301.285l-2 3.428 2 3.43 2-3.43z"/><path d="m163.5 299.57l2 3.43 2-3.43-2-3.427z"/><path d="m168.5 291l-2 3.428 2 3.429 2-3.429z"/><path d="m169.5 289.285l2 3.428 2-3.428-2-3.428z"/><path d="m174.5 280.713l-2 3.43 2 3.427 2-3.427z"/><path d="m175.5 279l2 3.428 2-3.428-2-3.43z"/><path d="m180.5 277.285l2-3.428-2-3.429-2 3.429z"/><path d="m185.5 268.713l-2-3.428-2 3.428 2 3.43z"/><path d="m186.5 267l2-3.43-2-3.427-2 3.427z"/><path d="m191.5 258.428l-2-3.428-2 3.428 2 3.429z"/><path d="m192.5 256.713l2-3.428-2-3.428-2 3.428z"/><path d="m197 249h-3l1.5 2.57z"/><path d="m164 309h3l-1.5-2.572z"/><path d="m168.5 301.285l-2 3.428 2 3.43 2-3.43z"/><path d="m169.5 299.57l2 3.43 2-3.43-2-3.427z"/><path d="m174.5 291l-2 3.428 2 3.429 2-3.429z"/><path d="m175.5 289.285l2 3.428 2-3.428-2-3.428z"/><path d="m180.5 280.713l-2 3.43 2 3.427 2-3.427z"/><path d="m181.5 279l2 3.428 2-3.428-2-3.43z"/><path d="m186.5 277.285l2-3.428-2-3.429-2 3.429z"/><path d="m191.5 268.713l-2-3.428-2 3.428 2 3.43z"/><path d="m192.5 267l2-3.43-2-3.427-2 3.427z"/><path d="m197.5 258.428l-2-3.428-2 3.428 2 3.429z"/><path d="m198.5 256.713l2-3.428-2-3.428-2 3.428z"/><path d="m203 249h-3l1.5 2.57z"/><path d="m170 309h3l-1.5-2.572z"/><path d="m174.5 301.285l-2 3.428 2 3.43 2-3.43z"/><path d="m175.5 299.57l2 3.43 2-3.43-2-3.427z"/><path d="m180.5 291l-2 3.428 2 3.429 2-3.429z"/><path d="m181.5 289.285l2 3.428 2-3.428-2-3.428z"/><path d="m186.5 280.713l-2 3.43 2 3.427 2-3.427z"/><path d="m187.5 279l2 3.428 2-3.428-2-3.43z"/><path d="m192.5 277.285l2-3.428-2-3.429-2 3.429z"/><path d="m197.5 268.713l-2-3.428-2 3.428 2 3.43z"/><path d="m198.5 267l2-3.43-2-3.427-2 3.427z"/><path d="m203.5 258.428l-2-3.428-2 3.428 2 3.429z"/><path d="m204.5 256.713l2-3.428-2-3.428-2 3.428z"/><path d="m176 309h3l-1.5-2.572z"/><path d="m180.5 301.285l-2 3.428 2 3.43 2-3.43z"/><path d="m181.5 299.57l2 3.43 2-3.43-2-3.427z"/><path d="m186.5 291l-2 3.428 2 3.429 2-3.429z"/><path d="m187.5 289.285l2 3.428 2-3.428-2-3.428z"/><path d="m192.5 280.713l-2 3.43 2 3.427 2-3.427z"/><path d="m193.5 279l2 3.428 2-3.428-2-3.43z"/><path d="m198.5 277.285l2-3.428-2-3.429-2 3.429z"/><path d="m203.5 268.713l-2-3.428-2 3.428 2 3.43z"/><path d="m204.5 267l2-3.43-2-3.427-2 3.427z"/><path d="m209.5 258.428l-2-3.428-2 3.428 2 3.429z"/><path d="m182 309h3l-1.5-2.572z"/><path d="m186.5 301.285l-2 3.428 2 3.43 2-3.43z"/><path d="m187.5 299.57l2 3.43 2-3.43-2-3.427z"/><path d="m192.5 291l-2 3.428 2 3.429 2-3.429z"/><path d="m193.5 289.285l2 3.428 2-3.428-2-3.428z"/><path d="m198.5 280.713l-2 3.43 2 3.427 2-3.427z"/><path d="m199.5 279l2 3.428 2-3.428-2-3.43z"/><path d="m204.5 277.285l2-3.428-2-3.429-2 3.429z"/><path d="m209.5 268.713l-2-3.428-2 3.428 2 3.43z"/><path d="m210.5 267l2-3.43-2-3.427-2 3.427z"/><path d="m188 309h3l-1.5-2.572z"/><path d="m192.5 301.285l-2 3.428 2 3.43 2-3.43z"/><path d="m193.5 299.57l2 3.43 2-3.43-2-3.427z"/><path d="m198.5 291l-2 3.428 2 3.429 2-3.429z"/><path d="m199.5 289.285l2 3.428 2-3.428-2-3.428z"/><path d="m204.5 280.713l-2 3.43 2 3.427 2-3.427z"/><path d="m205.5 279l2 3.428 2-3.428-2-3.43z"/><path d="m210.5 277.285l2-3.428-2-3.429-2 3.429z"/><path d="m213.5 272.143l2-3.43-2-3.428-2 3.428z"/><path d="m194 309h3l-1.5-2.572z"/><path d="m198.5 301.285l-2 3.428 2 3.43 2-3.43z"/><path d="m199.5 299.57l2 3.43 2-3.43-2-3.427z"/><path d="m204.5 291l-2 3.428 2 3.429 2-3.429z"/><path d="m205.5 289.285l2 3.428 2-3.428-2-3.428z"/><path d="m208.5 284.143l2 3.427 2-3.427-2-3.43z"/><path d="m211.5 279l2 3.428 2-3.428-2-3.43z"/><path d="m216.5 277.285l2-3.428-2-3.429-2 3.429z"/><path d="m200 309h3l-1.5-2.572z"/><path d="m204.5 301.285l-2 3.428 2 3.43 2-3.43z"/><path d="m205.5 299.57l2 3.43 2-3.43-2-3.427z"/><path d="m208.5 294.428l2 3.429 2-3.429-2-3.428z"/><path d="m211.5 289.285l2 3.428 2-3.428-2-3.428z"/><path d="m214.5 284.143l2 3.427 2-3.427-2-3.43z"/><path d="m217.5 279l2 3.428 2-3.428-2-3.43z"/><path d="m126 249h-4l16.5 28.285 2-3.428z"/><path d="m132 249h-4l13.5 23.143 2-3.43z"/><path d="m138 249h-4l10.5 18 2-3.43z"/><path d="m144 249h-4l7.5 12.857 2-3.429z"/><path d="m150 249h-4l4.5 7.713 2-3.428z"/><path d="m155 249h-3l1.5 2.57z"/><path d="m138.5 280.713l-16.5 28.287h4l14.5-24.857z"/><path d="m141.5 285.857l-13.5 23.143h4l11.5-19.715z"/><path d="m144.5 291l-10.5 18h4l8.5-14.572z"/><path d="m147.5 296.143l-7.5 12.857h4l5.5-9.43z"/><path d="m150.5 301.285l-4.5 7.715h4l2.5-4.287z"/><path d="m152 309h3l-1.5-2.572z"/><path d="m209 249h-3l1.5 2.57z"/><path d="m211 249l-2.5 4.285 2 3.428 4.5-7.713z"/><path d="m217 249l-5.5 9.428 2 3.429 7.5-12.857z"/><path d="m223 249l-8.5 14.57 2 3.43 10.5-18z"/><path d="m229 249l-11.5 19.713 2 3.43 13.5-23.143z"/><path d="m235 249l-14.5 24.857 2 3.428 16.5-28.285z"/><path d="m206 309h3l-1.5-2.572z"/><path d="m210.5 301.285l-2 3.428 2.5 4.287h4z"/><path d="m213.5 296.143l-2 3.427 5.5 9.43h4z"/><path d="m216.5 291l-2 3.428 8.5 14.572h4z"/><path d="m219.5 285.857l-2 3.428 11.5 19.715h4z"/><path d="m222.5 280.713l-2 3.43 14.5 24.857h4z"/></g><path d="m183.71 278.994c-.841 2.16-2.017 3.721-3.192 5.016.744-4.152 1.633-9.121 1.92-10.176h-1.248c-.216.959-.504 2.592-.816 4.367-1.303 6.209-3.096 6.57-3.096 4.609 0-2.496 1.32-7.658 1.561-8.977h-1.272c-.127.688-.8 3.371-1.174 5.885-2.18 5.449-3.111 4.914-2.689 2.107.288-2.256.815-5.018 1.416-7.969h-1.08l-.336 1.68c-.362-3.256-3.951-2.48-5.173 4.266-.396.957-.791 1.771-1.188 2.432.563-1.939-1.889-5.555-2.04-8.113.312-1.031.479-2.088.601-3.457l-1.009-.191c-.286 1-.674 2.266-.288 4.393-.48 1.488-2.04 6.264-3.744 9.721l.432.24c1.681-3.313 3.097-7.777 3.48-9.025.457 2.449 1.369 4.273 1.369 6.002 0 2.656-2.617 2.729-2.617.936l-1.104.047c-.152 2.416 3.475 3.82 5.898-1.287-.263 4.348 2.581 4.898 4.373-.225-.118 1.145-.317 3.625.865 3.625.807 0 1.521-1.033 2.635-3.521-.376 4.398 1.927 4.611 3.46 1.072-.168 1.008-.336 2.041-.528 3-1.632 1.656-3.119 3.098-3.119 4.922 0 1.08.6 1.703 1.439 1.703 1.992 0 2.352-3.984 2.904-7.057 1.344-1.393 2.832-3.168 3.84-5.783.024-.146-.312-.242-.48-.242zm-13.488 4.824c-1.838 0 .216-9.17 2.04-9.17 2.404 0-.283 9.17-2.04 9.17zm8.112 6.145c-.507 2.943-3.476.76.623-3.504z" fill="#fff"/><path d="m200.316 279.041c-1.056 2.762-1.848 4.105-2.472 4.105-1.164 0 .036-4.77 1.056-9.313h-2.04c-.301 1.277-.956 3.697-1.277 5.949-.909 2.252-1.613 3.363-2.178 3.363-1.55 0 1.08-5.559 1.08-7.873 0-2.416-2.572-2.229-4.2.24.096-.457.191-.889.264-1.32 2.266-2.777 5.593-8.568 1.896-8.568-2.051 0-2.845 2.209-4.896 14.641-.462 1.221-.863 3.203-.721 4.512h1.945c1.312-10.576 3.6-10 3.6-9 0 1.729-1.561 4.393-1.561 6.984 0 2.488 2.609 3.449 4.587-.631.017 1.609.453 2.768 1.726 2.768 1.968 0 2.808-2.785 3.863-5.521 0-.172-.517-.336-.672-.336zm-7.752-11.857c.947 0-1.122 4.15-1.56 4.994.865-3.985 1.178-4.994 1.56-4.994z" fill="#fff"/><path d="m199.957 270.568c0-2.006-2.809-1.463-2.809.648 0 1.929 2.809 1.483 2.809-.648z" fill="#fff"/><path d="m238.142 221.061c-3.367-.617-8 2-14 0-9.274-3.043-10.692-9.68-15.68-8.055h-5.273c-.86-.262-1.692-.328-2.742-.061 0-2.67-1.954-4.381-4.315-4.238 0 0 .599-1.123-1.818-1.123-4.063 0-5.249-.354-5.629 1.316-.547 2.402-.871 4.637-1.961 4.105-.971-.473-3.005-.355-4.574.934.56-1.299-.265-2.914-1.629-3.314-.848-.25-1.55-.455-1.962-.576 1.215-1.846 2.375-6.115 5.786-6.398 7.511-.623 48.538 1.086 51.53 1.17 5.661.158 3.711-2.092 2.563-2.117-5.374-.123-58.518-1.141-59.703-3.115-1.282-2.774-3.682-2.088-4.683-2.719-.868-.546-1.403-1.247-1.403-2.511 0-4.493-5.529-5.374-7.731-1.794-2.908-.632-4.528 1.582-5.349 4.443-.693 2.382-9.664 3.857-18.117 4.092-5.98.166-18.258.496-19 .629-.742.131-.43.895.998.85 1.428-.047 13.008.529 17.002.521 9.986-.021 15.143 2.26 17 4.998.875 1.293.312 3.254-.062 4.727-.241-.039-.484-.072-.74-.072-.544 0-1.077.086-1.593.254h-.707c.059-2.564-1.788-4.324-4.07-4.324-2.542 0-4.609 2.16-4.609 4.816 0 .021.005.041.005.063-2.518 1.295-2.783 3.783-4.533 4.5-6.896 2.828-16.235.227-17.485.893-1.25.668-1.156 1.938.156 2.188 1.574.299 8.328.428 12.329.92 5.066.621 9.74 6.82 10.892 7.244 1.621.48.319.186 7.769.186 1.022.143 2.083.248 3.358-.365.559.285 1.176.467 1.828.543-.341 1.879-.367 2.811-.362 4.742-4.126.855-8.876 1.543-15.126 1.293-9.733-.391-21.674-.092-21.97.213-.488.502.15.84.998.85s17.262.109 21.222.625c7.697 1.002 20.095.992 18.404 4.826-.311.705.007 1.668.605 2.002.599.332 1.576 1.672 3.002 1.672s1.917-.377 1.917-.377c1.12.215 2.37.068 3.502-.527 1.178.801 3.108.918 4.639-.168 1.34.961 3.264.98 4.632.15 1.368.773 3.133.891 4.694.09 1.175.65 2.565.643 3.689.156 1.094.486.271.258 9.734.197 1.367.377 2.855.082 4.097-1.049 11.278-10.271 23.035-5.877 33.586-5.877 2.993 0 2.334-2.295-.412-2.363-7.606-.195-.638 1.404-29.695-1.74-1.199-.129-1.891-1.102-2.544-2.383-1.002-1.969-3.223-2.67-5.242-1.9-.076-.035-.152-.07-.229-.102l.013-.113h-.333c-.774-.236-1.612-.213-2.355 0h-4.325l-.003.021h-.787c-.622-.168-1.181-.18-1.743-.094-.521-.143-1.053-.281-1.586-.418.245-.08.488-.176.726-.305 1.258.699 2.802.654 4.03.063 1.384.65 3.014.596 4.337-.146 1.288.781 2.786.891 4.217.484l6.9-.063c1.294.381 2.888.17 4.183-.781 4.923-3.615 6.516-3.59 11.74-3.586 3.535.002 12 1 15 1s2.168-4.422-1.003-5.002z" opacity=".15"/><path d="m177.209 204.857c-2.375 6.307-5.207 4.852-4.557.482 1.596-.293 3.506-2.184 3.506-3.842 0-2.388-3.995-1.781-4.626 4.172-.813 2.004-1.6 3.449-2.156 3.449-1.552 0 .966-5.504.966-7.516 0-1.58-1.827-2.744-4.137 2.539l.315-1.344c1.124-2.283 4.788-9.448 2.268-9.448-1.678 0-2.191 2.066-3.937 12.481-1.947 4.697-2.804 3.643-2.804 1.545 0-3.486.435-2.891 1.784-6.361h.883l.125-.672h-.756c.542-1.473 1.612-4.872.043-4.872-.777 0-1.407.588-2.247 4.872h-.798l-.126.672h.798c0 1-1.831 9.049.566 9.049.802 0 1.464-.789 2.215-2.385-.171.771-.282 1.457-.282 2.238h1.05c.126-.799.23-1.596.336-2.373.84-3.633 2.457-6.404 3.213-6.404 1.753 0-3.295 8.881.084 8.881.945-.016 1.818-1.404 2.555-3.082.065 1.73.704 3.125 2.232 3.125 1.932 0 3.171-3.066 3.863-4.998.001-.061-.272-.208-.376-.208zm-1.932-3.337c0 .986-.799 2.455-2.563 3.275.734-4.006 2.563-4.896 2.563-3.275zm-6.552-7.455c1.083 0-1.63 6.519-2.078 7.539.693-3.76 1.406-7.539 2.078-7.539zm-4.598 2.205c.832 0-.266 3.291-.547 4.074h-.672c.442-2.563.82-4.074 1.219-4.074zm-1.323 4.746h.524l-.84 2.1z" fill="#fff"/><path d="m149.75 214.672c1.785 0 2.263-2.99.529-2.99-1.761 0-2.273 2.99-.529 2.99z" fill="#fff"/><path d="m176.291 212.877c0-1.916-2.689-1.406-2.689.621 0 1.852 2.689 1.416 2.689-.621z" fill="#fff"/><path d="m197.451 212.877c0-1.918-2.69-1.404-2.69.621 0 1.857 2.69 1.406 2.69-.621z" fill="#fff"/><path d="m212.723 220.996c-1.881 4.916-2.829 4.273-2.829 3.148 0-2.279 3.249-8.393.161-8.393-.966 0-1.886.689-2.621 1.795l.252-1.541h-1.977c-.243 1.535-.578 3.533-.967 5.756-.352.598-.762.963-1.197 1.164 2.422-8.174-4.091-10.443-5.995-1.311-1.704 4.248-2.583 3.6-2.583 2.529 0-1.885.668-4.553 1.473-8.139h-1.955c-.304 1.285-.977 3.775-1.264 6.02-1.609 3.916-2.256 3.316-2.256 1.43 0-2.811.688-4.781 1.059-6.346.414 0 .851 0 .942-.023l.207-1.08c-.207.021-.528.045-.896.045.391-1.84.62-3.586.735-5.473h-1.633c-.528 2.322-.827 3.863-1.127 5.449-.482 0-.873-.021-1.034-.021l-.161 1.08c.092.023.482.023 1.012.023-.372 1.65-.601 3.254-.707 4.652-1.18 2.773-2.564 4.395-2.146 2.084.322-2.275.759-4.76 1.448-7.818h-1.632l-.253 1.289c-.456-2.93-4.297-1.908-5.311 4.805-.797 1.857-1.438 2.736-1.865 2.736-1.128 0 .689-2.791.689-4.668 0-1.311-.988-2.23-1.747-3.012.368-1.195.552-2.299.644-3.816l-1.725-.506c-.58 1.889-.772 3.334-.115 4.783-.403 1.941-2.082 7.289-3.082 7.289-1.115 0 .026-4.531 1.012-8.922h-1.955c-.302 1.279-.971 3.754-1.261 5.992-.794 1.82-1.826 3.32-3.522 3.711 1.311-1.678 2.184-4.576 2.184-6.807 0-3.623-2.329-4.01-3.863-1.656l.185-1.24h-1.725c-.082.93-.433 3.275-.853 5.932-.234.543-.479 1.064-.758 1.518v-.092c0-2.574-2.254-4.967-2.323-6.898.276-1.012.506-2.115.69-3.357l-1.564-.299c-.646 1.98-.661 3.525-.252 5.266-.414 1.045-.823 2.02-1.12 2.785h-.001c-.019.047-.034.088-.052.135-.001 0-.001.002-.001.002l0 0c-.978 2.551-1.552 3.932-2.14 3.932-2.08 0 3.406-9.176-.299-9.176-.966 0-1.886.689-2.622 1.795l.254-1.541h-1.979c-.252 1.6-.604 3.697-1.015 6.033-.808 1.934-1.439 2.889-1.952 2.889-1.115 0 .026-4.531 1.012-8.922h-1.955c-.754 3.193-2.877 10.6.254 10.6.751 0 1.329-.428 1.818-1.104-.097.586-.139.988-.139.988h2l .92-4.76c1.071-4.578 2.713-4.863 2.713-3.863 0 1.656-1.494 4.209-1.494 6.691 0 1.404.759 2.047 1.564 2.047 1.83 0 2.725-2.73 3.701-5.289h.002c.253-.689.552-1.402.805-2.16.342 1.102 2.281 5.68.275 5.68-.437 0-.713-.186-1.012-.691l-1.402 1.014c.651 1.9 3.643 2.545 5.679-.777-.856 5.281-1.446 6.047-1.446 8.986h1.541l1.334-7.957c.889 1.781 4.266 2.209 6.418-1.494.008 1.563.425 2.689 1.654 2.689 1.885 0 2.531-2.854 3.544-5.477l0 0 .849-2.25c1.29 2.467-.598 3.674-.598 6.002 0 1.035.414 1.725 1.494 1.725 1.118 0 1.855-.939 2.482-2.25.234 3.441 3.001 3.012 4.234-.256 0 3.535 1.929 3.346 3.712-.365.047 1.762.464 2.871 1.417 2.871 1.002 0 1.654-.744 2.384-2.33.069 1.371.51 2.33 1.641 2.33 1.249 0 2.023-1.174 2.698-2.727.454 4.129 4.117 3.465 5.65.174.459-.162.896-.445 1.3-.795-.489 1.578-.655 3.232-.655 3.232h2.001c.357-1.848 1.391-9.082 3.266-9.082 1.688 0-3.627 9.197.437 9.197 1.886 0 2.92-2.666 3.933-5.289 0-.136-.506-.32-.643-.32zm-50 11.795c0-.045.023-.184.046-.322-.023.162-.046.277-.046.322zm.091-.621c0-.092.023-.16.047-.275-.023.115-.047.207-.047.275zm3.887-7.404c-1.953 0 .076-7.334 1.518-7.334 1.258 0-.043 7.334-1.518 7.334zm17.043 0c-1.326 0 .358-7.334 1.655-7.334 1.787 0-.17 7.334-1.655 7.334zm15.34-3.08c.322 1.104.943 2.023 1.909 2.391-1.307 2.179-2.238.134-1.909-2.391zm2.393 1.425c-2.246-.648-1.742-5.523-.207-5.842.045 0 .115-.023.16-.023 1.397 0 .962 3.66.047 5.865z" fill="#fff"/><path d="m203.609 237.398c-.924 2.416-1.764 4.264-2.477 4.264-1.562 0 .965-5.301.965-7.518 0-1.697-2.044-2.393-3.652 1.428.172-1.002.466-2.855-.756-2.855-1.051 0-1.659 1.135-2.331 2.646.21-1.113.399-2.1.44-2.479h-1.112c-.229 1.426-.61 3.557-.993 5.631-.867 2.08-1.575 3.166-1.989 3.166-.837 0 .766-7.275 1.071-8.775h-.945l-.294 1.469c-.328-2.961-3.629-2.029-4.58 4.059-2.192 5.037-4.764 3.617-4.134-.551 1.596-.295 3.506-2.184 3.506-3.844 0-2.387-3.993-1.781-4.626 4.172-.893 2.211-1.588 3.43-2.114 3.43-1.207 0 .566-3.15.566-4.934 0-1.408-.966-2.289-1.49-3.107.273-.92.482-2.24.504-3.359l-.987-.273c-.271 1.008-.608 2.818-.168 3.758-1.113 6.057-4.79 12.641-3.717 3.338.567-1.176 1.134-2.371 1.575-3.506h.881l.127-.672h-.756c.544-1.48 1.609-4.871.041-4.871-.776 0-1.406.588-2.246 4.871h-.798l-.126.672h.798c0 0-.452 2.494-.608 4.521-.351.85-.701 1.572-1.051 2.156.482-1.734-1.651-4.852-1.785-7.098.273-.902.42-1.826.525-3.023l-.883-.168c-.286 1-.577 2.053-.252 3.842-.42 1.303-1.784 5.48-3.275 8.504l.379.211c1.469-2.898 2.708-6.803 3.044-7.895.399 2.141 1.196 3.736 1.196 5.248 0 2.32-2.288 2.391-2.288.818l-.966.043c-.134 2.107 3.096 3.455 5.293-1.416.007 2.033.283 3.305 1.238 3.305 1.121 0 1.884-1.816 3.08-4.998.001 0 .006.002.006.002.006-.016.143-.404.213-.609 0 0-.001 0-.001-.002.249-.746.5-1.604.712-2.455.295.693.735 1.344.735 2.352 0 1.377-2.275 5.67.126 5.67 1.024 0 1.683-1.199 2.431-3.051.146 3.479 3.041 4.648 5.159.357-.08 3.539 2.305 3.893 3.834-.477-.412 3.951 1.076 4.129 2.572 1.123-.246 1.086-.367 1.926-.367 1.941h1.135c.245-1.268 1.51-8.797 3.128-8.797.315 0 .378.377.378.777 0 .902-1.008 5.711-1.512 8.02h1.197c.409-1.73 1.494-8.881 3.316-8.881.315 0 .483.293.483.797 0 1.598-3.097 8.189-.294 8.189 1.54 0 2.664-3.271 3.297-4.934.001-.042-.251-.232-.378-.232zm-18.163-3.337c0 .986-.798 2.457-2.562 3.275.734-4.008 2.562-4.895 2.562-3.275zm-9.282-5.248c.835 0-.263 3.285-.545 4.072h-.672c.441-2.561.819-4.072 1.217-4.072zm-1.322 4.744h.525l-.84 2.1zm13.65 8.062c-1.61 0 .189-8.02 1.784-8.02 2.108.001-.249 8.02-1.784 8.02z" fill="#fff"/><g opacity=".15"><defs><path id="a" d="m121 124h119v64h-119z" opacity=".15"/><pattern id="b" height="20" overflow="visible" patternUnits="userSpaceOnUse" viewBox="0 -22 11 20" width="11" x="-178" y="620"><path d="m0-22h11v20h-11z" fill="none"/><path d="m11-20v20h-11v-20zm-7 17h-1v-4-1h-2v1h1v4h-1v1h3zm1-14c0-.553-.447-1-1-1h-2c-.553 0-1 .447-1 1v4c0 .553.447 1 1 1h2c .553 0 1-.447 1-1zm5 10c0-.553-.447-1-1-1h-2c-.553 0-1 .447-1 1v4c0 .553.447 1 1 1h2c .553 0 1-.447 1-1zm0-6h-1v-4-1h-2v1h1v4h-1v1h3z" opacity=".15"/><path d="m2-13h2v-4h-2z" opacity=".15"/><path d="m7-3h2v-4h-2z" opacity=".15"/><path d="m11-2h-11v-20h11z" fill="none"/><path d="m11-40v20h-11v-20zm-7 17h-1v-4-1h-2v1h1v4h-1v1h3zm1-14c0-.553-.447-1-1-1h-2c-.553 0-1 .447-1 1v4c0 .553.447 1 1 1h2c .553 0 1-.447 1-1zm5 10c0-.553-.447-1-1-1h-2c-.553 0-1 .447-1 1v4c0 .553.447 1 1 1h2c .553 0 1-.447 1-1zm0-6h-1v-4-1h-2v1h1v4h-1v1h3z" opacity=".15"/></pattern><clipPath id="c"><use overflow="visible" xlink:href="#a"/></clipPath><pattern id="d" patternTransform="translate(0 -.1094)" xlink:href="#b"/><clipPath id="e"><use overflow="visible" xlink:href="#f"/></clipPath><path id="f" d="m121 0h119v60h-119z" opacity=".15"/></defs><g clip-path="url(#c)"><path d="m192.463 161.879l-5.332-5.332-5.264 5.332 5.264 5.264z"/><path d="m182.072 174.731l5.332 5.332 5.264-5.332-5.264-5.264z"/><path d="m175.578 155.18l5.332 5.332 5.264-5.332-5.264-5.263z"/><path d="m198.889 155.18l-5.332-5.332-5.264 5.332 5.264 5.264z"/><path d="m181.867 148.686l5.264 5.264 5.332-5.264-5.332-5.332z"/><path d="m231.496 162.905c-2.546 1.313-2.269 3.364-2.188 4.58l.039.101-6.515-7.853c.624.055 1.417.079 2.374-.452 4.193-2.569 1.526-8.286-2.552-7.65 4.394-5.296 2.878-3.443 6.635-8.118-.016.04-.035.072-.05.114-1.57 2.618-.104 6.221 3.555 6.221.924 0 1.487-.232 1.777-.41 3.83-2.347 2.097-7.725-2.188-7.725-1.979.036-2.598.889-2.598.889-4.294 3.895-9.972 10.474-10.338 11.475-.51.723-.761 1.143-.736 1.24l-1.552-1.208c.842-1.613-.371-10.36-8.976-9.457l-.249.249-.169-.169.281-.422c.349-1.687.319-3.102-.684-5.537-1.388-3.232-7.52-3.552-8.099-2.526l-.256-.256c2.121-.877.054-9.797-7.847-8.292-.097.097-.152.188-.184.276l-.153-.153.269-.191c.564-1.128-.276-7.621-4.683-9.263-1.861-.69-4.413-.579-4.956-.308-.061.091-.096.182-.137.272l-.329-.329c4.593-1.064 4.154-8.347-1.927-7.941l-1.162.547c-3.352 2.095-2.161 7.239 1.474 7.481l-.358.359c-.022-.118-.115-.184-.295-.184-.533-.265-2.482-.047-3.076 0l-1.982.547c-3.943 1.245-5.486 7.279-4.307 9.16l.091.045-.232.233c.112-.92-4.126-1.137-6.763 1.499-2.098 2.097-2.375 4.393-1.572 6.152l.41.273-.415.415c-.585-1.196-5.525-.49-7.173 1.431-1.819 1.82-2.19 4.733-1.572 6.152.183.419.349.813.349.813l-.265.265c-.815-.952-5.396-.488-7.262 1.998-2.129 2.801-2.281 4.593-1.914 7.041l.078.059-.737.737c-.741-2.354-11.38-13.197-11.782-13.032-3.586-1.193-6.084 1.04-6.084 3.76 0 6.506 10.919 4.664 7.269-2.402l.046.009 6.688 8.194c-1.004-.146-1.825.219-2.724.556l-.957.82c-2.374 3.694.159 7.022 3.505 6.74-4.136 4.986-2.649 3.186-6.513 7.889l-.101.05c.217-.958-.133-1.972-.515-2.99-2.448-3.554-7.588-1.811-7.588 2.188 0 4.866 6.541 5.237 7.855 1.583 1.001-.929 4.104-3.593 8.606-9.24.703-.696 2.412-3.316 2.337-3.417l1.42 1.215c-.713 1.777.556 10.308 8.902 9.381l.218-.261.292.292c-.863 1.382-.398 2.873-.1 4.617.091.183.262.502.513.957 2.087 3.808 6.969 3.458 7.987 2.826l.26.26-.352.195c-1.383 2.481 1.521 9.249 8.203 8.135l.273-.205.15.15c-.113.075-.175.148-.287.26-.244.244-.091 2.205-.034 2.563.258 1.636.854 3.098 2.256 4.648 1.985 2.201 4.126 2.448 7.075 2.153l.246-.369 1.271 1.271c-5.358.238-5.2 8.121-.014 8.121 5.313 0 5.605-7.659.469-8.101.149-.186.742-.766.927-.951.065.242.212.37.45.37.873.441 3.563-.241 4.512-.479 2.938-.821 4.922-4.252 4.922-6.289.096-.952.306-2.325-.205-3.145h-.137l.352-.352c.035.776.67.762 1.494.762 6.87-.709 8.112-6.496 6.494-8.477l-.205-.068.391-.39c.324 1.038 2.312.815 4.805.117 3.534-1.358 4.296-3.786 3.965-7.588l-.413-.886.216-.216c2.11 1.691 10.565-1 9.289-9.084l.837-1.042c.134.252.36.598.691 1.05.124.558 4.758 5.733 10.092 11.131.351 1.053 1.835 2.259 3.692 2.259 7.188-.951 3.573-10.425-1.84-7.718zm-14.743-9.202l-8.508-8.493c6.55 2.046 6.562 2.929 8.508 8.493zm-11.849-15.476c2.731 2.734 1.442 3.939 2.285 5.928l-7.334-7.32c1.152.331 2.837-.613 5.049 1.392zm-12.373-9.639c1.683.388 2.121.309 3.965 1.846 2.035 2.272 1.959 3.548 2.141 5.185l-6.988-6.976c.193.012.675-.038.882-.055zm-3.008-3.486l.872 2.29-8.574-8.559c1.917.882 6.407.29 7.702 6.269zm-13.09-5.537c.924-.199 1.604-.389 2.04-.57l-8.596 8.596c1.095-2.681.93-6.813 6.556-8.026zm-12.749 11.143c2.02-1.802 3.176-1.692 5.228-2.151l-7.353 7.353c.273-1.783.221-2.943 2.125-5.202zm-10.323 12.578c-.113-1.93-.036-2.903 1.504-4.443 2.474-2.188 3.738-1.295 5.514-1.754l-7.26 7.26c.051-.132.211-.916.242-1.063zm-3.349 2.802l1.841-.473-8.25 8.25c.704-1.9 1.463-6.878 6.409-7.777zm-4.922 13.467l-.649-1.948 8.07 8.07c-1.041-.375-5.915-.766-7.421-6.122zm12.51 14.219c-4.111-2.339-2.998-5.066-3.674-6.681l6.988 6.988c-1.382-.15-1.768.205-3.314-.307zm6.972 6.768c-1.044-1.042-1.958-2.396-2.354-5.157l7.097 7.097c-1.224-.338-2.545.26-4.743-1.94zm-20.439-25.225l36.128-36.128 36.813 36.812-36.096 36.161zm29.394 34.521c-2.028-1.642-2.223-4.398-2.902-6.047l8.443 8.444c-1.065-.705-3.872-.634-5.541-2.397zm8.711 2.979l9-9c-1.26 2.468-.658 7.943-9 9zm15.044-12.002c-2.568 2.649-3.869 1.443-5.102 2.06l7.332-7.332c-.283 1.582-.356 3.342-2.23 5.272zm8.443-7.861c-2.249 2.087-3.229.984-5.174 1.551l7.547-7.547c-1.013 2.007.423 3.499-2.373 5.996zm6.22-7.725l-3.082.963 8.632-8.632c-.591 1.627-1.163 6.144-5.55 7.669z"/><path d="m175.51 142.192l5.263 5.332 5.332-5.332-5.332-5.264z"/><path d="m180.91 190.043l.342.41 34.59-34.59-.28-.264.007-.009-35.342-35.342c-.256.362-34.208 34.344-34.521 34.658.424.319 34.829 34.762 35.204 35.137zm-33.291-35.136l32.643-32.643 33.494 33.43-32.675 32.675z"/><path d="m174.553 169.467l-5.332 5.332 5.332 5.264 5.263-5.264z"/><path d="m186.242 181.43l-5.263-5.263-5.333 5.263 5.333 5.332z"/><path d="m167.238 148.686l-5.332-5.332-5.263 5.332 5.263 5.264z"/><path d="m179.68 135.766l-5.332-5.332-5.264 5.332 5.264 5.264z"/><path d="m173.391 142.26l-5.264-5.263-5.332 5.263 5.332 5.332z"/><path d="m185.832 129.545l-5.332-5.332-5.264 5.332 5.264 5.264z"/><path d="m161.906 156.547l-5.263 5.332 5.263 5.264 5.332-5.264z"/><path d="m168.264 162.836l-5.264 5.332 5.264 5.264 5.332-5.264z"/><path d="m169.084 148.891l5.264 5.332 5.332-5.332-5.332-5.264z"/><path d="m155.686 149.917l-5.332 5.263 5.332 5.332 5.263-5.332z"/><path d="m186.857 141.303l5.332-5.263-5.332-5.332-5.263 5.332z"/><path d="m179.816 161.606l-5.263-5.264-5.332 5.264 5.332 5.332z"/><path d="m188.498 168.032l5.264 5.332 5.332-5.332-5.332-5.264z"/><path d="m186.242 168.1l-5.263-5.332-5.333 5.332 5.333 5.332z"/><path d="m163.068 155.18l5.264 5.264 5.332-5.264-5.332-5.332z"/><path d="m193.352 147.661l5.263-5.264-5.263-5.332-5.332 5.332z"/><path d="m194.924 161.333l5.264 5.332 5.332-5.332-5.332-5.264z"/><path d="m199.777 154.155l5.264-5.332-5.264-5.264-5.332 5.264z"/><path d="m206.408 160.375l5.264-5.332-5.264-5.332-5.332 5.332z"/></g></g><path d="m197.604 157.042c-1.057 2.76-2.088 3.936-2.664 3.936-.672 0-.528-1.704-1.272-2.808 2.944-1.644 4.306-6.577 1.656-6.577-1.056 0-2.017.984-2.784 2.592l.384-1.992c2.264-2.775 5.592-8.569 1.896-8.569-2.02 0-2.811 2.118-4.804 14.09-.929 2.285-1.674 3.359-2.155 3.359-1.181 0 .72-2.912.72-4.873 0-1.368-1.032-2.328-1.823-3.144.383-1.248.575-2.4.672-3.984l-1.801-.528c-.63 2.049-.786 3.522-.12 4.993-.324 1.563-1.075 4.876-2.471 5.521 1.366-4.632.104-7.465-1.849-7.465-2.561 0-3.444 3.256-3.946 4.663 0 .001-.001-.001-.002 0-.446 1-1.181 3.826-3.06 3.018 1.191-2.488 3.135-9.073.385-9.073-1.944 0-3.117 5.767-1.776 8.617-1.21 2.699-2.231 3.144-2.231 1.008 0-1.68.551-4.705 1.176-7.993h-2.017c-.336 1.68-.672 3.456-.864 5.041-.624 2.88-1.512 4.272-2.016 4.272-.943 0 .728-7.594 1.056-9.313h-2.04c-1.021 5.185-2.25 11.065.504 11.065.889 0 1.704-1.176 2.353-2.856.204 3.676 2.911 4.025 5.136-.072.741.327 1.927.16 2.764-.78.046 5.279 4.265 4.662 5.948 1.044 1.104-.391 2.07-1.498 2.635-2.857.001 0 .005.001.005.001.055-.143.061-.151.07-.175 0-.001-.003-.003-.003-.004l.893-2.366c1.345 2.573-.624 3.836-.624 6.265 0 2.289 2.354 2.45 3.68.321-.049.563-.036 1.106-.008 1.359h1.943c.168-1.344.385-2.736.6-4.104h.361c.383 1.464.359 4.225 2.304 4.225 1.681 0 2.808-2.784 3.864-5.521-.004-.145-.531-.336-.675-.336zm-2.665-11.858c.844 0-1.159 4.246-1.561 4.993.865-3.985 1.177-4.993 1.561-4.993zm-21.718 12.553c-.121-.528-.168-1.152-.168-1.776 0-2.232.623-4.705 1.127-4.705 1.122.001-.548 5.37-.959 6.481zm5.158.024c.337 1.152.984 2.112 1.992 2.497-1.306 2.183-2.349.246-1.992-2.497zm2.497 1.489c-1.08-.312-1.829-2.032-1.829-3.328 0-1.536.917-2.625 1.613-2.769 1.896 0 .945 4.34.216 6.097zm11.879-1.825c-.216-.072-.479-.144-.769-.144.173-1.062 1.373-3.96 2.641-3.96 1 .223-.641 3.096-1.872 4.104z" fill="#fff"/><path d="m121 61h119v62h-119z" fill="url(#d)"/><path d="m204.141 79.612c-.33.858-.683 1.672-1.101 2.354v-.088c0-2.465-2.157-4.753-2.223-6.601.265-.968.484-2.024.66-3.212l-1.496-.286c-.631 1.929-.624 3.394-.242 5.039-.418 1.056-.836 2.046-1.122 2.794v.002c-.33.857-.682 1.67-1.1 2.352v-.088c0-2.465-2.156-4.753-2.223-6.601.265-.968.484-2.024.66-3.212l-1.496-.286c-.624 1.915-.627 3.382-.242 5.039-1.224 3.093-2.23 6.403-4.333 6.403-1.247 0-1.386-1.499-1.386-2.706 2.596-.418 3.916-2.531 3.916-4.093 0-2.928-4.546-2.619-5.608 3.191h-.001c-.969 2.42-2.156 3.608-3.213 3.608-2.819 0-1.325-7.239.572-7.239.909 0 .197 2.326-.286 3.146l1.408.748c2.976-6.394-3.633-7.539-4.873-.262-.003 0-.009-.002-.011-.002-.396 1.034-.924 1.584-1.496 1.848 2.282-7.72-3.275-8.814-4.945-3.805-1.517 4.549-3.349 6.834-3.349 5.191 0-.77 1.013-2.596 1.013-4.004 0-1.254-.947-2.134-1.673-2.882.353-1.145.528-2.201.616-3.653l-1.65-.484c-.57 1.857-.727 3.224-.109 4.577-.584 2.793-1.896 7.087-4.664 7.723 1.254-1.606 2.09-4.379 2.09-6.513 0-3.492-2.242-3.82-3.696-1.584l.177-1.188h-1.65c-.507 5.708-2.574 13.855-2.574 16.612h1.474l1.276-7.613c.439.88 1.298 1.254 2.223 1.254 2.705 0 4.048-2.508 5.061-5.171 0 0-.001-.001-.001-.002l.88-2.331c1.232 2.353-.572 3.521-.572 5.743 0 .99.396 1.65 1.43 1.65 1.312 0 2.076-1.351 2.769-3.05.226 4.511 3.958 3.787 5.438.608.668-.237 1.295-.715 1.805-1.354 0 .019-.002.037-.002.056 0 4.568 3.675 5.59 6.396.364.086 1.915.883 3.486 2.689 3.486 2.156 0 3.257-2.289 4.357-5.171 0 0-.001-.001-.001-.002.242-.66.527-1.341.77-2.066.328 1.061 2.184 5.435.265 5.435-.419 0-.683-.176-.969-.66l-1.342.968c.308.902 1.144 1.497 2.178 1.497 2.377 0 3.609-2.531 4.621-5.171 0 0-.001 0-.001-.001.241-.66.528-1.342.771-2.067.328 1.06 2.18 5.435.264 5.435-.418 0-.682-.176-.969-.66l-1.342.968c.309.902 1.145 1.497 2.178 1.497 2.377 0 3.609-2.531 4.621-5.171-.002-.132-.487-.309-.617-.309zm-13.553-3.63c.734 0 .373 2.514-2.024 3.696.264-1.826 1.122-3.696 2.024-3.696zm-28.203 7.239c-1.753 0-.016-7.019 1.451-7.019 1.204 0-.041 7.019-1.451 7.019zm12.253-2.949c.308 1.056.902 1.936 1.826 2.288-1.218 2.034-2.156.189-1.826-2.288zm2.288 1.365c-.99-.286-1.55-1.537-1.55-2.726 0-2.868 2.364-4.194 2.364-1.147 0 1.166-.33 2.707-.814 3.873z" fill="#fff"/><path d="m178.429 99.895c.968 0 1.54-.924 1.54-1.716 0-.616-.309-1.144-1.034-1.144-.968 0-1.54.946-1.54 1.738 0 .593.33 1.122 1.034 1.122z" fill="#fff"/><path d="m195.766 105.945c-.33.858-.683 1.672-1.101 2.354 0-2.62-2.156-4.809-2.223-6.689.265-.968.484-2.024.66-3.212l-1.496-.286c-.631 1.929-.624 3.394-.242 5.039-.418 1.056-.836 2.046-1.122 2.794-2.022 5.225-3.824 5.226-3.146-.638.881-1.078 2.355-3.234 3.257-6.117 2.477-7.687-3.617-9.439-5.067 6.758-.003 0-.012-.003-.015-.003-2.033 5.247-3.827 5.202-3.146-.638.88-1.078 2.354-3.234 3.257-6.117 2.479-7.696-3.618-9.429-5.067 6.758-.003 0-.012-.003-.015-.003-.969 2.53-1.694 3.763-2.267 3.763-1.066 0 .021-4.315.968-8.537h-1.869c-.252 1.066-.768 2.998-1.082 4.893-.951 2.44-1.874 3.49-2.394 3.49-.616 0-.484-1.562-1.167-2.574 1.695-.946 2.816-3.081 2.816-4.533 0-1.896-2.268-2.438-3.85.88l.352-1.827c2.073-2.541 5.128-7.855 1.738-7.855-2.979 0-2.89 6.891-4.834 14.559-.018.029-.032.066-.05.095 0-2.674-1.979-4.701-2.2-6.315.374-1.232.682-2.42.902-3.564l-1.76-.308c-.586 1.793-.617 3.61-.221 5.148-.857 2.201-2.024 4.929-3.389 7.701l.616.308c1.276-2.508 2.288-4.796 3.059-6.931.323 1 2.118 5.281.22 5.281-.418 0-.682-.176-.968-.66l-1.343.968c.562 1.643 3.088 2.358 4.83-.012-.051.574-.038 1.056-.012 1.289h1.782c.153-1.232.353-2.508.55-3.763h.33c.352 1.342.33 3.873 2.112 3.873 1.071 0 1.897-1.235 2.627-2.831-.039 1.365.204 2.831 1.575 2.831 1.359 0 2.132-1.45 2.845-3.238.037 2.134.569 3.349 1.841 3.349 1.195 0 2.101-1.172 3.124-3.609 0 1.624.229 3.609 1.848 3.609 1.431 0 2.529-1.65 3.828-5.171l0 0c .241-.66.528-1.342.771-2.068.328 1.06 2.18 5.435.264 5.435-.418 0-.682-.176-.969-.66l-1.342.968c.309.902 1.145 1.497 2.178 1.497 2.377 0 3.609-2.531 4.621-5.171.001-.133-.484-.31-.614-.31zm-5.721-10.385c-.022 2.684-1.65 6.359-2.75 8.361 1.218-7.815 2.75-9.938 2.75-8.361zm-4.973 0c-.021 2.684-1.65 6.359-2.75 8.361 1.213-7.773 2.75-9.948 2.75-8.361zm-11.417-.484c.774 0-1.063 3.892-1.431 4.577.794-3.653 1.079-4.577 1.431-4.577zm-2.003 11.221c-.197-.066-.439-.132-.703-.132.425-2.646 2.684-4.529 2.684-3.19 0 .836-1.012 2.53-1.981 3.322z" fill="#fff"/><path d="m181.272 89.92h2.171l-.097.588c0 0-.252.012-.587.012-.049 1.271-.372 2.411-1.008 3.13.516.744.036 1.307-.647.528-.324.168-.696.276-1.115.276-2.927 0-2.879-3.46-.972-4.917-.891-4.83 3.059-4.655 3.059-2.471 0 .504-.192 1.02-.54 1.367l-.695-.54c1.235-1.536-.924-2.796-.924-.12 0 1.487.6 3.73 1.476 5.301.239-.576.287-1.451.3-2.555-.168 0-.336 0-.517-.012zm-2.123.264c-.749 1.301-.438 3.682.959 3.682 1.433 0-.147-.241-.959-3.682z" fill="#fff"/><g clip-path="url(#e)" opacity=".15"><path d="m175.75 38.967h9.5v9.5h-9.5z" transform="matrix(.7071 -.7071 .7071 .7071 21.9511 140.4314)"/><path d="m175.75 56.967h9.5v9.5h-9.5z" transform="matrix(.7071 -.7071 .7071 .7071 9.2236 145.703)"/><path d="m175.75 38.967h9.5v9.5h-9.5z" transform="matrix(.7071 -.7071 .7071 .7071 21.9511 140.4314)"/><path d="m175.75 56.967h9.5v9.5h-9.5z" transform="matrix(.7071 -.7071 .7071 .7071 9.2236 145.703)"/><path d="m175.75 38.967h9.5v9.5h-9.5z" transform="matrix(.7071 -.7071 .7071 .7071 21.9511 140.4314)"/><path d="m175.75 56.967h9.5v9.5h-9.5z" transform="matrix(.7071 -.7071 .7071 .7071 9.2236 145.703)"/><path d="m175.75 2.967h9.5v9.5h-9.5z" transform="matrix(.7071 -.7071 .7071 .7071 47.406 129.8882)"/><path d="m175.75 20.967h9.5v9.5h-9.5z" transform="matrix(.7071 -.7071 .7071 .7071 34.6786 135.1598)"/><path d="m186.703 16.717l9-9-15.203-15.203-15.203 15.203 9 9-9 9 9 9-9 9 9 9-9 9 15.203 15.203 15.203-15.203-9-9 9-9-9-9 9-9zm3.343 27l-9 9 9 9-9.546 9.546-9.546-9.546 9-9-9-9 9-9-9-9 9-9-9-9 9.546-9.546 9.546 9.546-9 9 9 9-9 9z"/><path d="m175.75 56.967h9.5v9.5h-9.5z" transform="matrix(.7071 -.7071 .7071 .7071 9.2236 145.703)"/><path d="m172.5 76.92v-5.657l-9.546-9.546 9-9-9-9 9-9-9-9 9-9-9-9 9.546-9.546v-5.657l-15.203 15.203 9 9-9 9 9 9-9 9 9 9-9 9z"/><path d="m164.5 76.92v-5.657l-9.546-9.546 9-9-9-9 9-9-9-9 9-9-9-9 9.546-9.546v-5.657l-15.203 15.203 9 9-9 9 9 9-9 9 9 9-9 9z"/><path d="m156.5 76.92v-5.657l-9.546-9.546 9-9-9-9 9-9-9-9 9-9-9-9 9.546-9.546v-5.657l-15.203 15.203 9 9-9 9 9 9-9 9 9 9-9 9z"/><path d="m148.5 76.92v-5.657l-9.546-9.546 9-9-9-9 9-9-9-9 9-9-9-9 9.546-9.546v-5.657l-15.203 15.203 9 9-9 9 9 9-9 9 9 9-9 9z"/><path d="m140.5 76.92v-5.657l-9.546-9.546 9-9-9-9 9-9-9-9 9-9-9-9 9.546-9.546v-5.657l-15.203 15.203 9 9-9 9 9 9-9 9 9 9-9 9z"/><path d="m188.297-7.486v5.657l9.546 9.546-9 9 9 9-9 9 9 9-9 9 9 9-9.546 9.546v5.657l15.203-15.203-9-9 9-9-9-9 9-9-9-9 9-9z"/><path d="m196.297-7.486v5.657l9.546 9.546-9 9 9 9-9 9 9 9-9 9 9 9-9.546 9.546v5.657l15.203-15.203-9-9 9-9-9-9 9-9-9-9 9-9z"/><path d="m204.297-7.486v5.657l9.546 9.546-9 9 9 9-9 9 9 9-9 9 9 9-9.546 9.546v5.657l15.203-15.203-9-9 9-9-9-9 9-9-9-9 9-9z"/><path d="m212.297-7.486v5.657l9.546 9.546-9 9 9 9-9 9 9 9-9 9 9 9-9.546 9.546v5.657l15.203-15.203-9-9 9-9-9-9 9-9-9-9 9-9z"/><path d="m220.297-7.486v5.657l9.546 9.546-9 9 9 9-9 9 9 9-9 9 9 9-9.546 9.546v5.657l15.203-15.203-9-9 9-9-9-9 9-9-9-9 9-9z"/></g><path d="m153.098 31.493c-1.225 3.216-2.232 4.896-2.784 4.896-.958 0 .882-8.348 1.224-10.033h-1.08l-.336 1.68c-.119-1.08-.527-1.848-1.488-1.848-3.167 0-5.608 11.209-2.424 11.209 1.296 0 2.232-1.704 2.904-3.625-.119 1.143-.318 3.625.864 3.625 1.008 0 1.872-1.608 3.552-5.665-.001-.046-.288-.239-.432-.239zm-6.457 4.825c-.504 0-.72-.696-.72-1.704 0-2.665 1.44-7.465 2.761-7.465.647 0 .959.768.959 1.92 0 2.376-1.703 7.249-3 7.249z" fill="#fff"/><path d="m172.273 24.581c.6 0 .983-.576.983-1.128 0-.432-.216-.816-.72-.816-.648 0-.984.648-.984 1.176.001.408.217.768.721.768z" fill="#fff"/><path d="m184.585 18.268c-.528 0-1.177.48-1.584 1.488-.82 2.052-2.083 7.519-2.899 12.577-2.561 6.175-5.604 4.546-4.877-.288 3.575-.658 5.453-5.88 2.641-5.88-2.998 0-3.708 5.514-4.111 6.514-.95 2.367-1.703 3.687-2.346 3.687-1.181 0 .397-6.769 1.08-10.033h-1.271c-.34 1.649-.858 3.859-1.165 5.871-1.052 2.673-1.816 4.21-2.435 4.21-1.379 0 .648-3.601.648-5.64 0-1.608-1.104-2.616-1.704-3.552.311-1.039.551-2.539.576-3.84l-1.128-.312c-.31 1.155-.694 3.221-.192 4.296-.552 1.104-1.344 1.873-2.496 2.208-.37-4.827-4.296-3.689-4.296-1.56 0 1.125.93 2.28 3.072 2.28 0 7.419-6.022 11.244-3.072-3.937 6.515-6.788 2.182-10.005.84-7.033-1.225 2.688-2.76 8.881-2.76 13.297 0 8.309 6.24 4.967 6.24-2.497 1.199-.36 2.04-1.152 2.664-2.28.384.672 1.057 1.992 1.057 3.144 0 1.573-2.602 6.48.143 6.48 1.127 0 1.828-1.306 2.623-3.306-.076 1.23-.038 3.234 1.192 3.234 1.205 0 1.983-1.459 2.864-3.682.084 4.196 3.476 5.545 5.919.581-.771 5.511-.922 8.549 1.226 8.549 1.944 0 3.052-4.393.264-6.625 1.536-.528 2.832-2.088 3.912-4.464 0-.072-.313-.264-.432-.264-.961 2.544-2.664 3.889-3.961 4.152.145-1.176.336-2.424.576-3.72 1.889-3.315 6.316-13.655 3.192-13.655zm.144.888c1 0-.776 6.167-2.976 10.873 1.08-5.76 2.328-10.873 2.976-10.873zm-6.984 7.657c1 0 .659 3.166-2.448 4.608.408-2.232 1.416-4.608 2.448-4.608zm-17.256.12c.983 0 1.464 1.224 1.584 2.808-2.902 0-2.898-2.808-1.584-2.808zm.912-7.801c.448 0 .722 2.708-2.185 6.265.722-3.409 1.657-6.265 2.185-6.265zm19.679 22.994c-1.166 0-.536-4.288-.408-5.497 2.301 1.85 1.587 5.497.408 5.497z" fill="#fff"/><path d="m190.921 24.581c.601 0 .983-.576.983-1.128 0-.432-.215-.816-.72-.816-.647 0-.983.648-.983 1.176 0 .408.215.768.72.768z" fill="#fff"/><path d="m217.873 31.493c-.553 1.417-1.152 2.088-1.944 2.472 1.296-3.312 1.128-7.752-1.416-7.752-3.319 0-3.873 4.575-4.309 5.684-1.124 2.866-1.985 4.445-2.628 4.445-1.379 0 .648-3.601.648-5.641 0-1.608-1.104-2.616-1.704-3.552.312-1.041.552-2.544.576-3.84l-1.128-.312c-.31 1.154-.696 3.217-.192 4.296-1.312 7.13-5.55 14.299-4.344 3.816.647-1.344 1.296-2.712 1.8-4.008h1.008l.145-.768h-.864c.621-1.689 1.842-5.569.048-5.569-.888 0-1.607.672-2.568 5.569h-.912l-.144.768h.912c0 0-.479 2.644-.669 4.877-2.245 5.741-3.219 4.598-3.219 3.5 0-2.796 3.452-9.241.457-9.241-1.441 0-2.329 1.632-3.193 3.432l.576-3.336h-1.296c-.179 1.47-.555 3.712-.938 5.912-1.935 4.948-2.949 4.685-2.949 3.137 0-1.968.744-5.376 1.512-9.049h-1.271c-.631 3.061-2.714 11.065-.193 11.065.916 0 1.584-.849 2.239-2.226-.236 1.028-.358 1.879-.391 2.105h1.296l.889-4.752c.888-3.144 2.328-5.376 3.12-5.376 1.731 0-1.152 5.634-1.152 8.545 0 1.829 2.124 3.47 4.415-2.099.002 2.368.314 3.851 1.416 3.851 1.241 0 2.14-1.644 3.672-5.841 0-.001-.001-.002-.001-.003.346-.965.711-2.177 1.01-3.373.336.792.84 1.536.84 2.688 0 1.573-2.6 6.48.144 6.48 1.268 0 2.048-1.615 2.995-4.035-.323 5.269 3.575 5.211 5.501 1.298 1.177-.336 2.041-1.344 2.641-2.928.046-.143-.315-.239-.435-.239zm-14.305-9.817c.952 0-.302 3.76-.623 4.657h-.769c.505-2.928.937-4.657 1.392-4.657zm-1.511 5.425h.6l-.959 2.4zm9.312 3.816c.047 1.92.887 3.72 2.951 3.888-1.116 2.917-4.248 3.351-2.951-3.888zm3.215 3.217c-3.791 0-2.834-7.822-.119-7.297 1.532.296 1.368 4.152.119 7.297z" fill="#fff"/><path d="m62.279 389.551c1.251.754 2.526 1.449 3.721 1.449v-1c-.954 0-2.135-.658-3.272-1.346z" fill="#fff"/><path d="m58.655 388.42c.354-.182.664-.311.845-.311s.491.129.845.309l.448-.895c-.493-.248-.936-.414-1.292-.414s-.8.166-1.292.414z" fill="#fff"/><path d="m56.721 389.551l-.449-.896c-1.137.687-2.318 1.345-3.272 1.345v1c1.196 0 2.47-.695 3.721-1.449z" fill="#fff"/><path d="m113 390c-1.012 0-2.384 0-4 0v1h4z" fill="#fff"/><path d="m89 390c-1.345 0-2.683 0-4 0v1h4z" fill="#fff"/><path d="m83 390c-1.377 0-2.712 0-4 0v1h4z" fill="#fff"/><path d="m40 390c-1.285 0-2.626 0-4 0v1h4z" fill="#fff"/><path d="m28 390c-1.341 0-2.679 0-4 0v1h4z" fill="#fff"/><path d="m22 390c-1.371 0-2.707 0-4 0v1h4z" fill="#fff"/><path d="m16 390c-1.421 0-2.76 0-4 0v1h4z" fill="#fff"/><path d="m10 390c-1.632 0-2.982 0-4 0v1h4z" fill="#fff"/><path d="m34 390c-1.316 0-2.655 0-4 0v1h4z" fill="#fff"/><path d="m46 390c-1.223 0-2.568 0-4 0v1h4z" fill="#fff"/><path d="m71 390c-1.746 0-2.125 0-3 0v1h3z" fill="#fff"/><path d="m51 390c-.876 0-1.255 0-3 0v1h3z" fill="#fff"/><path d="m77 390c-1.434 0-2.775 0-4 0v1h4z" fill="#fff"/><path d="m95 390c-1.32 0-2.659 0-4 0v1h4z" fill="#fff"/><path d="m101 390c-1.292 0-2.631 0-4 0v1h4z" fill="#fff"/><path d="m107 390c-1.237 0-2.581 0-4 0v1h4z" fill="#fff"/><path d="m118 393h1c0-2.209-1.791-3-4-3v1c1.654 0 3 .346 3 2z" fill="#fff"/><path d="m1 393c0-1.654 1.346-2 3-2v-1c-2.209 0-4 .791-4 3z" fill="#fff"/><path d="m0 377h4v1h-4z" fill="#fff"/><path d="m6 377h4v1h-4z" fill="#fff"/><path d="m12 377h4v1h-4z" fill="#fff"/><path d="m18 377h4v1h-4z" fill="#fff"/><path d="m24 377h4v1h-4z" fill="#fff"/><path d="m30 377h4v1h-4z" fill="#fff"/><path d="m36 377h4v1h-4z" fill="#fff"/><path d="m42 377h4v1h-4z" fill="#fff"/><path d="m48 377h4v1h-4z" fill="#fff"/><path d="m54 377h4v1h-4z" fill="#fff"/><path d="m60 377h4v1h-4z" fill="#fff"/><path d="m66 377h4v1h-4z" fill="#fff"/><path d="m72 377h4v1h-4z" fill="#fff"/><path d="m78 377h4v1h-4z" fill="#fff"/><path d="m84 377h4v1h-4z" fill="#fff"/><path d="m90 377h4v1h-4z" fill="#fff"/><path d="m96 377h4v1h-4z" fill="#fff"/><path d="m102 377h4v1h-4z" fill="#fff"/><path d="m108 377h4v1h-4z" fill="#fff"/><path d="m114 377h4v1h-4z" fill="#fff"/><path d="m56.721 367.447c-1.251-.754-2.526-1.447-3.721-1.447v1c .954 0 2.135.658 3.272 1.346z" fill="#fff"/><path d="m60.345 368.58c-.354.182-.664.311-.845.311s-.491-.129-.845-.311l-.448.895c.493.25.936.416 1.292.416s.8-.166 1.292-.416z" fill="#fff"/><path d="m62.279 367.447l.449.898c1.137-.687 2.318-1.345 3.272-1.345v-1c-1.196 0-2.47.693-3.721 1.447z" fill="#fff"/><path d="m6 367c1.012 0 2.384 0 4 0v-1h-4z" fill="#fff"/><path d="m30 367c1.345 0 2.683 0 4 0v-1h-4z" fill="#fff"/><path d="m36 367c1.377 0 2.712 0 4 0v-1h-4z" fill="#fff"/><path d="m79 367c1.285 0 2.626 0 4 0v-1h-4z" fill="#fff"/><path d="m91 367c1.341 0 2.679 0 4 0v-1h-4z" fill="#fff"/><path d="m97 367c1.371 0 2.707 0 4 0v-1h-4z" fill="#fff"/><path d="m103 367c1.421 0 2.76 0 4 0v-1h-4z" fill="#fff"/><path d="m109 367c1.632 0 2.982 0 4 0v-1h-4z" fill="#fff"/><path d="m85 367c1.316 0 2.655 0 4 0v-1h-4z" fill="#fff"/><path d="m73 367c1.223 0 2.568 0 4 0v-1h-4z" fill="#fff"/><path d="m48 367c1.746 0 2.125 0 3 0v-1h-3z" fill="#fff"/><path d="m68 367c .876 0 1.255 0 3 0v-1h-3z" fill="#fff"/><path d="m42 367c1.434 0 2.775 0 4 0v-1h-4z" fill="#fff"/><path d="m24 367c1.32 0 2.659 0 4 0v-1h-4z" fill="#fff"/><path d="m18 367c1.292 0 2.631 0 4 0v-1h-4z" fill="#fff"/><path d="m12 367c1.237 0 2.581 0 4 0v-1h-4z" fill="#fff"/><path d="m1 363.891v-.109h-1v .109c0 2.209 1.791 3.109 4 3.109v-1c-1.654 0-3-.455-3-2.109z" fill="#fff"/><path d="m118 363.891v.109c0 1.654-1.346 2-3 2v1c2.209 0 4-.791 4-3v-.109z" fill="#fff"/><path d="m59.5 327.891c-6.904 0-12.5 5.596-12.5 12.5 0 6.902 5.596 12.5 12.5 12.5s12.5-5.598 12.5-12.5c0-6.905-5.596-12.5-12.5-12.5zm-4.16 19.81h-3.037v-9.76h3.037zm-1.517-11.094c-.975 0-1.76-.789-1.76-1.76s.786-1.76 1.76-1.76c.97 0 1.758.789 1.758 1.76s-.788 1.76-1.758 1.76zm12.88 10.985h-3.033v-4.746c0-1.133-.02-2.588-1.577-2.588-1.579 0-1.819 1.232-1.819 2.506v4.828h-3.03v-9.76h2.908v1.334h.042c.405-.768 1.395-1.576 2.871-1.576 3.072 0 3.639 2.02 3.639 4.648v5.354z" fill="#fff"/><g opacity=".15"><path d="m7.546 296.686c-2.979 0-5.546-2.422-5.546-5.4v-18.646c0-2.979 2.567-5.402 5.546-5.402 2.946 0 5.342 2.424 5.342 5.402v1.121c0 .23-.155.387-.386.387h-.118c-.202 0-.386-.186-.386-.387v-1.121c0-2.455-1.997-4.453-4.452-4.453s-4.546 1.997-4.546 4.452v18.646c0 2.455 2.091 4.451 4.546 4.451s4.452-1.996 4.452-4.451v-1.299c0-.246.173-.445.386-.445h.118c.116 0 .386.043.386.445v1.299c0 2.979-2.396 5.401-5.342 5.401z"/><path d="m26.5 296.938c-2.979 0-5.5-2.422-5.5-5.4v-18.646c0-2.979 2.521-5.402 5.5-5.402 2.946 0 5.452 2.424 5.452 5.402v18.646c0 2.978-2.506 5.4-5.452 5.4zm0-28.5c-2.455 0-4.551 1.998-4.551 4.453v18.646c0 2.455 2.096 4.451 4.551 4.451s4.562-1.996 4.562-4.451v-18.646c0-2.455-2.107-4.453-4.562-4.453z"/><path d="m51.494 296.939c-.245 0-.445-.172-.445-.385v-23.662c0-2.455-2.127-4.707-4.549-4.707-2.455 0-4.551 1.998-4.551 4.453v23.662c0 .201-.184.385-.386.385h-.177c-.202 0-.386-.184-.386-.385v-23.662c0-2.979 2.521-5.402 5.5-5.402 2.946 0 5.498 2.678 5.498 5.656v23.662c0 .201-.184.385-.386.385z"/><path d="m63.485 296.449c-.202 0-.386-.184-.386-.385v-28.115h-3.213c-.202 0-.386-.184-.386-.385v-.119c0-.246.173-.445.386-.445h7.317c.213 0 .386.199.386.445v.119c0 .201-.184.385-.386.385h-3.213v28.115c0 .23-.155.385-.386.385z"/><path d="m85.437 296.686c-.202 0-.386-.184-.386-.385v-13.41h-9.102v13.41c0 .213-.2.385-.445.385h-.118c-.202 0-.386-.184-.386-.385v-23.662c0-2.979 2.554-5.402 5.5-5.402 2.979 0 5.5 2.424 5.5 5.402v23.662c0 .201-.184.385-.386.385zm-.386-14.795v-9.252c0-2.455-2.096-4.453-4.551-4.453-2.422 0-4.551 1.998-4.551 4.453v9.252z"/><path d="m99.5 296.686c-2.979 0-5.5-2.422-5.5-5.4v-18.646c0-2.979 2.521-5.402 5.5-5.402 2.946 0 5.5 2.424 5.5 5.402v1.121c0 .23-.155.387-.386.387h-.118c-.202 0-.386-.186-.386-.387v-1.121c0-2.455-2.155-4.453-4.61-4.453s-4.551 1.998-4.551 4.453v18.646c0 2.455 2.096 4.451 4.551 4.451s4.61-1.996 4.61-4.451v-1.299c0-.246.173-.445.386-.445h.118c.116 0 .386.043.386.445v1.299c0 2.978-2.554 5.4-5.5 5.4z"/><path d="m116.446 296.449c-.202 0-.386-.184-.386-.385v-28.115h-3.214c-.202 0-.386-.184-.386-.385v-.119c0-.246.173-.445.386-.445h7.317c.213 0 .386.199.386.445v.119c0 .201-.184.385-.386.385h-3.213v28.115c0 .23-.155.385-.386.385z"/></g><path d="m5.546 293.686c-2.979 0-5.546-2.422-5.546-5.4v-18.646c0-2.979 2.567-5.402 5.546-5.402 2.946 0 5.342 2.424 5.342 5.402v1.121c0 .23-.155.387-.386.387h-.118c-.202 0-.386-.186-.386-.387v-1.121c0-2.455-1.997-4.453-4.452-4.453s-4.546 1.997-4.546 4.452v18.646c0 2.455 2.091 4.451 4.546 4.451s4.452-1.996 4.452-4.451v-1.299c0-.246.173-.445.386-.445h.118c.116 0 .386.043.386.445v1.299c0 2.979-2.396 5.401-5.342 5.401z" fill="#fff"/><path d="m24.5 293.938c-2.979 0-5.5-2.422-5.5-5.4v-18.646c0-2.979 2.521-5.402 5.5-5.402 2.946 0 5.452 2.424 5.452 5.402v18.646c0 2.978-2.506 5.4-5.452 5.4zm0-28.5c-2.455 0-4.551 1.998-4.551 4.453v18.646c0 2.455 2.096 4.451 4.551 4.451s4.562-1.996 4.562-4.451v-18.646c0-2.455-2.107-4.453-4.562-4.453z" fill="#fff"/><path d="m49.494 293.939c-.245 0-.445-.172-.445-.385v-23.662c0-2.455-2.127-4.707-4.549-4.707-2.455 0-4.551 1.998-4.551 4.453v23.662c0 .201-.184.385-.386.385h-.177c-.202 0-.386-.184-.386-.385v-23.662c0-2.979 2.521-5.402 5.5-5.402 2.946 0 5.498 2.678 5.498 5.656v23.662c0 .201-.184.385-.386.385z" fill="#fff"/><path d="m61.485 293.449c-.202 0-.386-.184-.386-.385v-28.115h-3.213c-.202 0-.386-.184-.386-.385v-.119c0-.246.173-.445.386-.445h7.317c.213 0 .386.199.386.445v.119c0 .201-.184.385-.386.385h-3.213v28.115c0 .23-.155.385-.386.385z" fill="#fff"/><path d="m83.437 293.686c-.202 0-.386-.184-.386-.385v-13.41h-9.102v13.41c0 .213-.2.385-.445.385h-.118c-.202 0-.386-.184-.386-.385v-23.662c0-2.979 2.554-5.402 5.5-5.402 2.979 0 5.5 2.424 5.5 5.402v23.662c0 .201-.184.385-.386.385zm-.386-14.795v-9.252c0-2.455-2.096-4.453-4.551-4.453-2.422 0-4.551 1.998-4.551 4.453v9.252z" fill="#fff"/><path d="m97.5 293.686c-2.979 0-5.5-2.422-5.5-5.4v-18.646c0-2.979 2.521-5.402 5.5-5.402 2.946 0 5.5 2.424 5.5 5.402v1.121c0 .23-.155.387-.386.387h-.118c-.202 0-.386-.186-.386-.387v-1.121c0-2.455-2.155-4.453-4.61-4.453s-4.551 1.998-4.551 4.453v18.646c0 2.455 2.096 4.451 4.551 4.451s4.61-1.996 4.61-4.451v-1.299c0-.246.173-.445.386-.445h.118c.116 0 .386.043.386.445v1.299c0 2.978-2.554 5.4-5.5 5.4z" fill="#fff"/><path d="m114.446 293.449c-.202 0-.386-.184-.386-.385v-28.115h-3.214c-.202 0-.386-.184-.386-.385v-.119c0-.246.173-.445.386-.445h7.317c.213 0 .386.199.386.445v.119c0 .201-.184.385-.386.385h-3.213v28.115c0 .23-.155.385-.386.385z" fill="#fff"/><g opacity=".15"><path d="m12.13 228.541c0 2.209-3.035 3.359-5.376 3.359-4.624 0-5.737-4.324-3.612-4.324.669 0 .63.34.63.924l-.168.336c0 2.963 6.09 3.135 6.09-.336 0-2.641-4.309-2.172-6.447-4.768-2.672-3.24.488-10.008 3.947-8.988.083.025 2.924 1.799 2.969 1.828 1.906 1.127 1.631 3.129 1.631 5.586 0 .709-1.54 1.387-2.025.461-.34-.645-.243-2.357-.243-3.443 0-3.125-2.34-3.701-3.78-1.303-1.244 2.074-1.014 5.039-.315 5.943 1.446 1.875 6.699 2.102 6.699 4.725z"/><path d="m20.761 214.766c2.406 1.477 3.066 2.506 3.066 5.039 0 2.129-.35 3.193-1.05 3.193-.924 0-1.386-.533-1.386-1.598.353-3.023.294-2.16.294-3.904 0-3.924-5.292-1.17-5.292 8.23 0 5.68 4.048 6.18 5.502 4.242.504-.672.783-1.098.84-1.281.185-.602.151-2.078.756-2.078 1.949 0 .094 5.166-3.864 5.166-6.098 0-7.437-9.898-3.276-15.625 1.646-2.263 1.728-3.134 4.41-1.384z"/><path d="m27.754 219.848c-.698-3.488-.122-6.174.966-6.174 2.727 0-.89 5.039 1.428 5.039.42 0 .798-.223 1.134-.672.336-.447.63-.672.882-.672 1.022 0 1.932 1.041 1.932 1.68l-.168.463c-2.824 5.359-1.42 12.553.021 10.457.154-.223.266-.35.336-.377 1.864-.736-1.116 4.441-3.339.209-1.457-2.775-.835-7.203-.084-10.248-.757.189-1.229.336-1.974.336-1.101 4.395-1.848 9.93-1.848 10.836l.21.588c0 .619-.004 1.01-.714 1.01-1.657-.001-.462-4.192 1.218-12.475z"/><path d="m45.331 216.949c1.161-1.16 2.604-.201 2.604.799-1.38 5.969-1.674 12.389.168 12.389.582 0 .366-.289.798-.504.28 0 .42.184.42.547 0 1-3.167 2.516-4.41-2.814-1.334 3.016-2.376 4.535-4.41 4.535-4.412 0-6.292-9.143-2.184-14.236 3.227-4.005 2.993-3.145 7.014-.716zm-5.418 3.067c-1.287 2.723-2.083 7.363-.756 9.807 1.075 1.986 3.588 1.645 4.347-1.219.819-3.092 1.2-6.514 1.449-8.924 0-3.174-2.917-4.162-5.04.336z"/><path d="m52.509 213.379c.819-.498 2.397.439 2.397 1.225-.722 1.99-1.428 6.146-1.428 8.939 2.604-11.418 9.912-7.65 9.912-.041 0 5.641-4.526 9.738-9.534 7.139-.517 3.164-.501 8.188 0 9.627 0 .439.061.551-.469.834-.918.488-2.345.344-2.345-.842 0-1 .222-17.115.546-20.254.346-2.379.72-5.633.714-5.578 0-.395-.085-.871.207-1.049zm1.347 15.457c.113.084.247.309.401.672.753 1.768 6.612 2.646 6.612-5.502 0-6.457-2.895-6.871-4.494-5.146-1.579 1.704-2.519 7.831-2.519 9.976z"/><path d="m69.194 228.744c0 2.52-2.176 3.059-2.877.719-1.416-4.721.856-19.051 1.407-23.094-.142-.807-.126-.695-.126-1.137 0-1.563 4.061-1.42 2.997.885-.674 1.459-2.387 14.314-2.534 15.316-.037.25-.086 5.172-.001 5.344.028.057.07.111.126.168 1.151-1.16.392-11.088 5.46-11.088 3.977 0 6.494 8.244 2.73 13.166-1.232 1.611-2.688 2.416-4.368 2.416-2.317 0-3.125-2.352-1.974-2.352.224 0 .448.266.672.797.224.533.742.799 1.554.799 4.629 0 4.249-13.146.672-13.146-2.583 0-2.861 2.703-3.465 6.867-.164 1.123-.073 1.139-.273 4.34z"/><path d="m84.902 215.018c.854 0 1.51-.006 2.016.609.447.543.396.422 1.722.588 3.825.477 4.75 15.98-2.856 15.98-8.488 0-5.531-17.177-.882-17.177zm-2.1 11.06c0 7.83 7.098 6.215 7.098-1.424 0-2.783-.795-7.088-2.247-7.266-.35-.041-.616-.139-.798-.293-1.733-1.454-4.053 3.292-4.053 8.983z"/><path d="m98.253 215.018c.854 0 1.51-.006 2.016.609.447.543.396.422 1.722.588 3.825.477 4.75 15.98-2.856 15.98-8.488 0-5.531-17.177-.882-17.177zm-2.1 11.06c0 7.83 7.098 6.215 7.098-1.424 0-2.783-.795-7.088-2.247-7.266-.35-.041-.616-.139-.798-.293-1.733-1.454-4.053 3.292-4.053 8.983z"/><path d="m111.134 204.35c.854 0 1.806.668 1.806 1.469-1.13 3.713-4.654 23.898-3.15 23.898.469 0 .462-1.549.462-2.016 0-16.584 9.912-14.652 9.912-7.854 0 3.66-2.638 6.922-6.132 7.266 1.627 4.824 5.313 3.609 5.544 1.764.125-.992 1.008-.809 1.008-.084 0 2.617-6.802 5.834-9.24-3.023-.501 5.326-.119 6.678-2.016 6.678-.672 0-1.148-.398-1.428-1.197-1.217-3.461.533-17.389 1.245-20.641 1.29-5.897.017-6.26 1.989-6.26zm.462 19.697c2.247 0 .905 2.016 3.234 2.016 3.361 0 4.473-5.99 2.94-8.631-.881-1.514-4.407-3.403-6.174 6.615z"/></g><path d="m10.13 225.541c0 2.209-3.035 3.359-5.376 3.359-4.624 0-5.737-4.324-3.612-4.324.669 0 .63.34.63.924l-.168.336c0 2.963 6.09 3.135 6.09-.336 0-2.641-4.309-2.172-6.447-4.768-2.672-3.24.488-10.008 3.947-8.988.083.025 2.924 1.799 2.969 1.828 1.906 1.127 1.631 3.129 1.631 5.586 0 .709-1.54 1.387-2.025.461-.34-.645-.243-2.357-.243-3.443 0-3.125-2.34-3.701-3.78-1.303-1.244 2.074-1.014 5.039-.315 5.943 1.445 1.875 6.699 2.102 6.699 4.725z" fill="#fff"/><path d="m18.761 211.766c2.406 1.477 3.066 2.506 3.066 5.039 0 2.129-.35 3.193-1.05 3.193-.924 0-1.386-.533-1.386-1.598.353-3.023.294-2.16.294-3.904 0-3.924-5.292-1.17-5.292 8.23 0 5.68 4.048 6.18 5.502 4.242.504-.672.783-1.098.84-1.281.185-.602.151-2.078.756-2.078 1.949 0 .094 5.166-3.864 5.166-6.098 0-7.437-9.898-3.276-15.625 1.645-2.263 1.727-3.134 4.41-1.384z" fill="#fff"/><path d="m25.753 216.848c-.698-3.488-.122-6.174.966-6.174 2.727 0-.89 5.039 1.428 5.039.42 0 .798-.223 1.134-.672.336-.447.63-.672.882-.672 1.022 0 1.932 1.041 1.932 1.68l-.168.463c-2.824 5.359-1.42 12.553.021 10.457.154-.223.266-.35.336-.377 1.864-.736-1.116 4.441-3.339.209-1.457-2.775-.835-7.203-.084-10.248-.757.189-1.229.336-1.974.336-1.101 4.395-1.848 9.93-1.848 10.836l.21.588c0 .619-.004 1.01-.714 1.01-1.656-.001-.462-4.192 1.218-12.475z" fill="#fff"/><path d="m43.331 213.949c1.161-1.16 2.604-.201 2.604.799-1.38 5.969-1.674 12.389.168 12.389.582 0 .366-.289.798-.504.28 0 .42.184.42.547 0 1-3.167 2.516-4.41-2.814-1.334 3.016-2.376 4.535-4.41 4.535-4.412 0-6.292-9.143-2.184-14.236 3.227-4.005 2.992-3.145 7.014-.716zm-5.418 3.067c-1.287 2.723-2.083 7.363-.756 9.807 1.075 1.986 3.588 1.645 4.347-1.219.819-3.092 1.2-6.514 1.449-8.924 0-3.174-2.917-4.162-5.04.336z" fill="#fff"/><path d="m50.508 210.379c.819-.498 2.397.439 2.397 1.225-.722 1.99-1.428 6.146-1.428 8.939 2.604-11.418 9.912-7.65 9.912-.041 0 5.641-4.526 9.738-9.534 7.139-.517 3.164-.501 8.188 0 9.627 0 .439.061.551-.469.834-.918.488-2.345.344-2.345-.842 0-1 .222-17.115.546-20.254.346-2.379.72-5.633.714-5.578.001-.395-.084-.871.207-1.049zm1.348 15.457c.113.084.247.309.401.672.753 1.768 6.612 2.646 6.612-5.502 0-6.457-2.895-6.871-4.494-5.146-1.579 1.704-2.519 7.831-2.519 9.976z" fill="#fff"/><path d="m67.194 225.744c0 2.52-2.176 3.059-2.877.719-1.416-4.721.856-19.051 1.407-23.094-.142-.807-.126-.695-.126-1.137 0-1.563 4.061-1.42 2.997.885-.674 1.459-2.387 14.314-2.534 15.316-.037.25-.086 5.172-.001 5.344.028.057.07.111.126.168 1.151-1.16.392-11.088 5.46-11.088 3.977 0 6.494 8.244 2.73 13.166-1.232 1.611-2.688 2.416-4.368 2.416-2.317 0-3.125-2.352-1.974-2.352.224 0 .448.266.672.797.224.533.742.799 1.554.799 4.629 0 4.249-13.146.672-13.146-2.583 0-2.861 2.703-3.465 6.867-.164 1.123-.073 1.139-.273 4.34z" fill="#fff"/><path d="m82.901 212.018c.854 0 1.51-.006 2.016.609.447.543.396.422 1.722.588 3.825.477 4.75 15.98-2.856 15.98-8.488 0-5.531-17.177-.882-17.177zm-2.1 11.06c0 7.83 7.098 6.215 7.098-1.424 0-2.783-.795-7.088-2.247-7.266-.35-.041-.616-.139-.798-.293-1.733-1.454-4.053 3.292-4.053 8.983z" fill="#fff"/><path d="m96.252 212.018c.854 0 1.51-.006 2.016.609.447.543.396.422 1.722.588 3.825.477 4.75 15.98-2.856 15.98-8.488 0-5.53-17.177-.882-17.177zm-2.1 11.06c0 7.83 7.098 6.215 7.098-1.424 0-2.783-.795-7.088-2.247-7.266-.35-.041-.616-.139-.798-.293-1.733-1.454-4.053 3.292-4.053 8.983z" fill="#fff"/><path d="m109.133 201.35c.854 0 1.806.668 1.806 1.469-1.13 3.713-4.654 23.898-3.15 23.898.469 0 .462-1.549.462-2.016 0-16.584 9.912-14.652 9.912-7.854 0 3.66-2.638 6.922-6.132 7.266 1.627 4.824 5.313 3.609 5.544 1.764.125-.992 1.008-.809 1.008-.084 0 2.617-6.802 5.834-9.24-3.023-.501 5.326-.119 6.678-2.016 6.678-.672 0-1.148-.398-1.428-1.197-1.217-3.461.533-17.389 1.245-20.641 1.291-5.897.017-6.26 1.989-6.26zm.462 19.697c2.247 0 .905 2.016 3.234 2.016 3.361 0 4.473-5.99 2.94-8.631-.88-1.514-4.406-3.403-6.174 6.615z" fill="#fff"/><g opacity=".15"><path d="m14 147.313v6.65c0 3.2-3.1 5.75-6.25 5.75h-2.6v14.25c0 .45-.35.8-.75.8h-1.6c-.45 0-.8-.35-.8-.8v-14.25-3.2-14.151c0-.05 0-.05 0-.05 0-.4.35-.8.8-.8h4.95c3.15.001 6.25 2.601 6.25 5.801zm-1.3 0c0-2.45-2.5-4.45-4.95-4.45h-4.25c-.1 0-.2.1-.2.2v14.801.55c0 0 0 13.001 0 14.851 0 .1.1.2.15.2h.2c.1 0 .2-.1.2-.2v-14.851h3.9c2.45 0 4.95-2 4.95-4.45zm-.55 0v6.65c0 2.15-2.25 3.9-4.4 3.9h-3.9v-14.451h3.9c2.15.001 4.4 1.751 4.4 3.901zm-1.35 0c0-1.45-1.649-2.6-3.05-2.6h-2.6v11.801h2.6c1.4 0 3.05-1.15 3.05-2.55z"/><path d="m28.775 147.313v21.701c0 3.2-2.6 5.75-5.75 5.75-3.2 0-5.8-2.55-5.8-5.75v-21.701c0-3.2 2.6-5.8 5.8-5.8 3.15 0 5.75 2.6 5.75 5.8zm-1.35 0c0-2.45-1.95-4.45-4.4-4.45s-4.45 2-4.45 4.45v21.701c0 2.45 2 4.45 4.45 4.45s4.4-2 4.4-4.45zm-.5 0v21.701c0 2.15-1.75 3.9-3.9 3.9-2.15 0-3.9-1.75-3.9-3.9v-21.701c0-2.15 1.75-3.9 3.9-3.9 2.15 0 3.9 1.75 3.9 3.9zm-1.35 0c0-1.45-1.15-2.6-2.55-2.6-1.45 0-2.6 1.15-2.6 2.6v21.701c0 1.4 1.15 2.55 2.6 2.55 1.4 0 2.55-1.15 2.55-2.55z"/><path d="m45.2 153.963c0 1.65-1.3 3.1-2.4 4.15 1.1 1.05 2.4 2.55 2.4 4.2v11.65c0 .45-.35.8-.8.8h-1.6c-.45 0-.8-.35-.8-.8v-11.65c0-1.45-1.8-2.6-3.2-2.6h-2.55v14.25c0 .45-.4.8-.8.8h-1.6c-.45 0-.8-.35-.8-.8v-30.852c0-.85.7-1.6 1.6-1.6h4.15c3.2 0 6.4 2.6 6.4 5.8zm-1.3-6.65c0-2.45-2.65-4.45-5.101-4.45h-4.15c-.15 0-.3.1-.3.25v30.152c0 .1.1.2.25.2h.1c.1 0 .2-.1.2-.2v-14.851h3.9c2.15 0 4.55 1.75 4.55 3.9v10.951c0 .1.1.2.2.2h.1c.15 0 .25-.1.25-.2v-10.951c0-1.95-1.9-3.55-3.6-4.2 1.7-.6 3.6-2.25 3.6-4.15v-6.651zm-.55 0v6.65c0 2.15-2.4 3.9-4.55 3.9h-3.9v-14.451h3.9c2.15.001 4.55 1.751 4.55 3.901zm-1.35 0c0-1.45-1.8-2.6-3.2-2.6h-2.55v11.801h2.55c1.4 0 3.2-1.15 3.2-2.55z"/><path d="m57.25 142.313v1.6c0 .45-.35.8-.8.8h-2.25v29.251c0 .45-.35.8-.8.8h-1.6c-.45 0-.8-.35-.8-.8v-29.251h-2.25c-.45 0-.8-.35-.8-.8v-1.6c0-.4.35-.8.8-.8h7.701c.449 0 .799.4.799.8zm-1.35.75c0-.1-.1-.2-.2-.2h-6.2c-.1 0-.2.1-.2.2v.15c0 .1.1.2.2.2h2.85v29.852c0 .1.1.2.2.2h.1c.15 0 .2-.1.2-.2v-29.852h2.85c.1 0 .2-.1.2-.2z"/><path d="m64.35 144.713v11.851h4.35c.45 0 .8.35.8.8v1.6c0 .4-.35.8-.8.8h-4.35v14.201c0 .45-.35.8-.8.8h-1.6c-.45 0-.8-.35-.8-.8v-30.852c0-.85.75-1.6 1.6-1.6h5.95c.45 0 .8.4.8.8v1.6c0 .45-.35.8-.8.8zm-1.3 13.151v-14.451h4.9c.1 0 .2-.1.2-.2v-.15c0-.1-.1-.2-.2-.2h-5.2c-.15 0-.25.1-.25.25v30.152c0 .1.1.2.2.2h.1c.15 0 .25-.1.25-.2v-14.851h4.9c.1 0 .2-.1.2-.2v-.15c0-.1-.1-.2-.2-.2z"/><path d="m85.276 147.313v21.701c0 3.2-2.601 5.75-5.75 5.75-3.2 0-5.8-2.55-5.8-5.75v-21.701c0-3.2 2.6-5.8 5.8-5.8 3.149 0 5.75 2.6 5.75 5.8zm-1.35 0c0-2.45-1.95-4.45-4.4-4.45s-4.45 2-4.45 4.45v21.701c0 2.45 2 4.45 4.45 4.45s4.4-2 4.4-4.45zm-.5 0v21.701c0 2.15-1.75 3.9-3.9 3.9-2.15 0-3.9-1.75-3.9-3.9v-21.701c0-2.15 1.75-3.9 3.9-3.9 2.149 0 3.9 1.75 3.9 3.9zm-1.35 0c0-1.45-1.15-2.6-2.55-2.6-1.45 0-2.6 1.15-2.6 2.6v21.701c0 1.4 1.15 2.55 2.6 2.55 1.4 0 2.55-1.15 2.55-2.55z"/><path d="m98.15 172.365v1.6c0 .45-.35.8-.8.8h-5.9c-.9 0-1.6-.7-1.6-1.6v-30.852c0-.4.35-.8.8-.8h1.6c.4 0 .8.4.8.8v29.252h4.3c.45-.001.8.399.8.8zm-1.3.75c0-.1-.1-.2-.25-.2h-4.9v-29.852c0-.1-.1-.2-.2-.2h-.15c-.1 0-.2.1-.2.2v30.102c0 .15.15.3.3.3h5.15c.15 0 .25-.1.25-.2z"/><path d="m105.101 173.964c0 .45-.35.8-.8.8h-1.6c-.45 0-.8-.35-.8-.8v-31.602c0-.05 0-.05 0-.05 0-.4.35-.8.8-.8h1.6c.45 0 .8.4.8.8zm-1.351-30.901c0-.1-.1-.2-.2-.2h-.1c-.15 0-.25.1-.25.2v30.202c0 .1.1.2.25.2h.1c.1 0 .2-.1.2-.2z"/><path d="m121.199 147.313v21.701c0 3.2-2.6 5.75-5.75 5.75-3.2 0-5.8-2.55-5.8-5.75v-21.701c0-3.2 2.6-5.8 5.8-5.8 3.15 0 5.75 2.6 5.75 5.8zm-1.349 0c0-2.45-1.95-4.45-4.4-4.45s-4.45 2-4.45 4.45v21.701c0 2.45 2 4.45 4.45 4.45s4.4-2 4.4-4.45zm-.5 0v21.701c0 2.15-1.75 3.9-3.9 3.9-2.15 0-3.9-1.75-3.9-3.9v-21.701c0-2.15 1.75-3.9 3.9-3.9 2.149 0 3.9 1.75 3.9 3.9zm-1.35 0c0-1.45-1.15-2.6-2.55-2.6-1.45 0-2.6 1.15-2.6 2.6v21.701c0 1.4 1.15 2.55 2.6 2.55 1.4 0 2.55-1.15 2.55-2.55z"/></g><path d="m12 145.313v6.65c0 3.2-3.1 5.75-6.25 5.75h-2.6v14.25c0 .45-.35.8-.75.8h-1.6c-.45 0-.8-.35-.8-.8v-14.25-3.2-14.151c0-.05 0-.05 0-.05 0-.4.35-.8.8-.8h4.95c3.15.001 6.25 2.601 6.25 5.801zm-1.3 0c0-2.45-2.5-4.45-4.95-4.45h-4.25c-.1 0-.2.1-.2.2v14.801.55c0 0 0 13.001 0 14.851 0 .1.1.2.15.2h.2c.1 0 .2-.1.2-.2v-14.851h3.9c2.45 0 4.95-2 4.95-4.45zm-.55 0v6.65c0 2.15-2.25 3.9-4.4 3.9h-3.9v-14.451h3.9c2.15.001 4.4 1.751 4.4 3.901zm-1.35 0c0-1.45-1.649-2.6-3.05-2.6h-2.6v11.801h2.6c1.4 0 3.05-1.15 3.05-2.55z" fill="#fff"/><path d="m26.775 145.313v21.701c0 3.2-2.6 5.75-5.75 5.75-3.2 0-5.8-2.55-5.8-5.75v-21.701c0-3.2 2.6-5.8 5.8-5.8 3.15 0 5.75 2.6 5.75 5.8zm-1.35 0c0-2.45-1.95-4.45-4.4-4.45s-4.45 2-4.45 4.45v21.701c0 2.45 2 4.45 4.45 4.45s4.4-2 4.4-4.45zm-.5 0v21.701c0 2.15-1.75 3.9-3.9 3.9-2.15 0-3.9-1.75-3.9-3.9v-21.701c0-2.15 1.75-3.9 3.9-3.9 2.15 0 3.9 1.75 3.9 3.9zm-1.35 0c0-1.45-1.15-2.6-2.55-2.6-1.45 0-2.6 1.15-2.6 2.6v21.701c0 1.4 1.15 2.55 2.6 2.55 1.4 0 2.55-1.15 2.55-2.55z" fill="#fff"/><path d="m43.2 151.963c0 1.65-1.3 3.1-2.4 4.15 1.1 1.05 2.4 2.55 2.4 4.2v11.65c0 .45-.35.8-.8.8h-1.6c-.45 0-.8-.35-.8-.8v-11.65c0-1.45-1.8-2.6-3.2-2.6h-2.55v14.25c0 .45-.4.8-.8.8h-1.6c-.45 0-.8-.35-.8-.8v-30.852c0-.85.7-1.6 1.6-1.6h4.15c3.2 0 6.4 2.6 6.4 5.8zm-1.3-6.65c0-2.45-2.65-4.45-5.101-4.45h-4.15c-.15 0-.3.1-.3.25v30.152c0 .1.1.2.25.2h.1c.1 0 .2-.1.2-.2v-14.851h3.9c2.15 0 4.55 1.75 4.55 3.9v10.951c0 .1.1.2.2.2h.1c.15 0 .25-.1.25-.2v-10.951c0-1.95-1.9-3.55-3.6-4.2 1.7-.6 3.6-2.25 3.6-4.15v-6.651zm-.55 0v6.65c0 2.15-2.4 3.9-4.55 3.9h-3.9v-14.451h3.9c2.15.001 4.55 1.751 4.55 3.901zm-1.35 0c0-1.45-1.8-2.6-3.2-2.6h-2.55v11.801h2.55c1.4 0 3.2-1.15 3.2-2.55z" fill="#fff"/><path d="m55.25 140.313v1.6c0 .45-.35.8-.8.8h-2.25v29.251c0 .45-.35.8-.8.8h-1.6c-.45 0-.8-.35-.8-.8v-29.251h-2.25c-.45 0-.8-.35-.8-.8v-1.6c0-.4.35-.8.8-.8h7.701c.449 0 .799.4.799.8zm-1.35.75c0-.1-.1-.2-.2-.2h-6.2c-.1 0-.2.1-.2.2v.15c0 .1.1.2.2.2h2.85v29.852c0 .1.1.2.2.2h.1c.15 0 .2-.1.2-.2v-29.852h2.85c.1 0 .2-.1.2-.2z" fill="#fff"/><path d="m62.35 142.713v11.851h4.35c.45 0 .8.35.8.8v1.6c0 .4-.35.8-.8.8h-4.35v14.201c0 .45-.35.8-.8.8h-1.6c-.45 0-.8-.35-.8-.8v-30.852c0-.85.75-1.6 1.6-1.6h5.95c.45 0 .8.4.8.8v1.6c0 .45-.35.8-.8.8zm-1.3 13.151v-14.451h4.9c.1 0 .2-.1.2-.2v-.15c0-.1-.1-.2-.2-.2h-5.2c-.15 0-.25.1-.25.25v30.152c0 .1.1.2.2.2h.1c.15 0 .25-.1.25-.2v-14.851h4.9c.1 0 .2-.1.2-.2v-.15c0-.1-.1-.2-.2-.2z" fill="#fff"/><path d="m83.276 145.313v21.701c0 3.2-2.601 5.75-5.75 5.75-3.2 0-5.8-2.55-5.8-5.75v-21.701c0-3.2 2.6-5.8 5.8-5.8 3.149 0 5.75 2.6 5.75 5.8zm-1.35 0c0-2.45-1.95-4.45-4.4-4.45s-4.45 2-4.45 4.45v21.701c0 2.45 2 4.45 4.45 4.45s4.4-2 4.4-4.45zm-.5 0v21.701c0 2.15-1.75 3.9-3.9 3.9-2.15 0-3.9-1.75-3.9-3.9v-21.701c0-2.15 1.75-3.9 3.9-3.9 2.149 0 3.9 1.75 3.9 3.9zm-1.35 0c0-1.45-1.15-2.6-2.55-2.6-1.45 0-2.6 1.15-2.6 2.6v21.701c0 1.4 1.15 2.55 2.6 2.55 1.4 0 2.55-1.15 2.55-2.55z" fill="#fff"/><path d="m96.15 170.365v1.6c0 .45-.35.8-.8.8h-5.9c-.9 0-1.6-.7-1.6-1.6v-30.852c0-.4.35-.8.8-.8h1.6c.4 0 .8.4.8.8v29.252h4.3c.45-.001.8.399.8.8zm-1.3.75c0-.1-.1-.2-.25-.2h-4.9v-29.852c0-.1-.1-.2-.2-.2h-.15c-.1 0-.2.1-.2.2v30.102c0 .15.15.3.3.3h5.15c.15 0 .25-.1.25-.2z" fill="#fff"/><path d="m103.101 171.964c0 .45-.35.8-.8.8h-1.6c-.45 0-.8-.35-.8-.8v-31.602c0-.05 0-.05 0-.05 0-.4.35-.8.8-.8h1.6c.45 0 .8.4.8.8zm-1.351-30.901c0-.1-.1-.2-.2-.2h-.1c-.15 0-.25.1-.25.2v30.202c0 .1.1.2.25.2h.1c.1 0 .2-.1.2-.2z" fill="#fff"/><path d="m119.2 145.313v21.701c0 3.2-2.601 5.75-5.75 5.75-3.2 0-5.8-2.55-5.8-5.75v-21.701c0-3.2 2.6-5.8 5.8-5.8 3.149 0 5.75 2.6 5.75 5.8zm-1.35 0c0-2.45-1.95-4.45-4.4-4.45s-4.45 2-4.45 4.45v21.701c0 2.45 2 4.45 4.45 4.45s4.4-2 4.4-4.45zm-.5 0v21.701c0 2.15-1.75 3.9-3.9 3.9-2.15 0-3.9-1.75-3.9-3.9v-21.701c0-2.15 1.75-3.9 3.9-3.9 2.149 0 3.9 1.75 3.9 3.9zm-1.35 0c0-1.45-1.15-2.6-2.55-2.6-1.45 0-2.6 1.15-2.6 2.6v21.701c0 1.4 1.15 2.55 2.6 2.55 1.4 0 2.55-1.15 2.55-2.55z" fill="#fff"/><g opacity=".15"><path d="m56.809 99.401c-4.151 10.845-7.26 11.821-5.822-.656 1.107-2.296 2.214-4.633 3.075-6.847h1.722l.246-1.312h-1.476c1.05-2.857 3.151-9.512.082-9.512-1.517 0-2.747 1.148-4.387 9.512h-1.558l-.246 1.312h1.558c0 0-.6 3.462-.91 6.035 0 0 0-.001 0-.001-.959 3.22-3.734 9.833-5.189 9.833-1.573 0 1.332-13.403 2.091-17.138h-1.845l-.574 2.87c-.525-4.725-5.393-4.898-8.139 4.356-.001-.001-.001-.004-.002-.005-.304 1.065-3.495 9.875-5.375 9.875-3.031 0 1.886-10.75 1.886-14.678 0-3.084-3.571-5.356-8.077 4.961l.615-2.624c2.202-4.473 9.35-18.45 4.428-18.45-2.822 0-4.047 2.75-6.958 20.017l0 0c-1.047 6.268-4.315 7.293-5.465 5.854 1.681-3.895 2.911-8.733 2.911-12.054 0-4.704-5.207-4.867-5.207 6.929 0 1.886.287 3.403.738 4.551-1.23 3.116-2.583 5.535-3.444 5.535-1.884 0 .083-9.529 1.517-17.179h-2.134c-.574 2.87-1.148 5.863-1.558 8.569-1.477 6.539-5.084 11.292-5.084 6.847 0-2.952 1.23-9.225 2.419-15.416h-2.173c-.943 4.92-2.173 10.086-2.173 13.817 0 7.497 3.973 6.368 6.642-.779-.174 2.266-.142 5.863 2.132 5.863 1.599 0 3.444-2.501 5.002-5.822.41.41 1.107.533 1.681.533 1.349 0 2.483-.831 3.368-2.317-.646 3.834-1.114 5.802-1.114 7.196 0 .082.041.164.041.205h2.05c.246-1.558.451-3.116.656-4.633 2.352-10.173 7.011-15.091 7.011-11.152 0 3.571-6.137 15.99-.574 15.99 1.96-.036 3.765-3.077 5.254-6.618-.062.641-.101 1.269-.101 1.861 0 2.911.779 4.756 2.542 4.756 2.214 0 3.813-2.911 4.961-6.191-.204 1.956-.543 6.191 1.476 6.191 1.592 0 2.977-2.357 5.446-8.191-.178 2.667-.323 8.273 2.335 8.273 2.255 0 3.936-3.116 6.396-9.676.001-.306-.439-.49-.696-.49zm-2.173-16.77c1.627 0-.517 6.426-1.066 7.954h-1.312c.861-5.002 1.599-7.954 2.378-7.954zm-2.583 9.266h1.025l-1.64 4.1zm-23.266-13.57c2.117 0-3.197 12.76-4.059 14.719 1.353-7.339 2.747-14.719 4.059-14.719zm-13.366 22.631c-.205-.82-.287-1.886-.287-3.116 0-12.732 5.815-12.086.287 3.116zm22.209 6.684c-3.14 0 .37-15.662 3.485-15.662 4.107-.001-.481 15.662-3.485 15.662z"/><path d="m84.361 77.506c-6.109 5.248-20.951 9.717-20.951 19.844 0 4.797 3.444 8.036 8.036 8.036 7.417 0 9.116-9.462 2.993-11.931-.369.574-.656 1.148-1.025 1.763 4.068 1.587 2.863 8.118-1.968 8.118-3.198 0-5.74-2.337-5.74-6.355 0-8.405 12.095-12.423 18.286-17.794-2.911 12.628-4.469 23.78-6.806 39.401h2.788c2.485-16.198 3.258-28.239 6.519-41.82.574-.902 1.025-2.091 1.107-3.403l-2.132-.246c-.41 1.394-.861 2.993-1.107 4.387z"/><path d="m119.698 99.401c-.943 2.419-1.968 3.567-3.321 4.223 2.214-5.658 1.927-13.243-2.419-13.243-4.926 0-6.333 5.427-6.333 5.427-.563 1.967-3.156 11.302-5.348 11.302-2.475 0 2.509-17.946 3.977-30.094h-1.927c-.779 4.141-2.05 10.865-2.952 16.154-.287-1.722-1.066-2.829-2.583-2.829-5.462 0-9.429 19.229-4.182 19.229 2.296 0 3.813-2.911 5.043-6.519-.208 1.613-.948 6.437 1.558 6.437 1.464 0 3.197-2.234 5.195-6.934-.471 8.948 6.185 9.034 9.52 2.26 2.009-.574 3.485-2.296 4.51-5.002.082-.248-.533-.411-.738-.411zm-24.309 8.241c-3.133 0 .343-15.662 3.485-15.662 4.283-.001-.657 15.662-3.485 15.662zm13.198-9.225c.082 3.28 1.517 6.355 5.043 6.642-1.908 4.981-7.252 5.723-5.043-6.642zm5.494 5.494c-6.478 0-5.362-12.927-.205-12.464 2.654.238 2.337 7.093.205 12.464z"/></g><path d="m54.809 96.401c-4.151 10.845-7.26 11.821-5.822-.656 1.107-2.296 2.214-4.633 3.075-6.847h1.722l.246-1.312h-1.476c1.05-2.857 3.151-9.512.082-9.512-1.517 0-2.747 1.148-4.387 9.512h-1.558l-.246 1.312h1.558c0 0-.6 3.462-.91 6.035 0 0 0-.001 0-.001-.959 3.22-3.734 9.833-5.189 9.833-1.573 0 1.332-13.403 2.091-17.138h-1.845l-.574 2.87c-.525-4.725-5.393-4.898-8.139 4.356-.001-.001-.001-.004-.002-.005-.304 1.065-3.495 9.875-5.375 9.875-3.031 0 1.886-10.75 1.886-14.678 0-3.084-3.571-5.356-8.077 4.961l.615-2.624c2.202-4.473 9.35-18.45 4.428-18.45-2.822 0-4.047 2.75-6.958 20.017l0 0c-1.047 6.268-4.315 7.293-5.465 5.854 1.681-3.895 2.911-8.733 2.911-12.054 0-4.704-5.207-4.867-5.207 6.929 0 1.886.287 3.403.738 4.551-1.23 3.116-2.583 5.535-3.444 5.535-1.884 0 .083-9.529 1.517-17.179h-2.134c-.574 2.87-1.148 5.863-1.558 8.569-1.477 6.539-5.084 11.292-5.084 6.847 0-2.952 1.23-9.225 2.419-15.416h-2.173c-.943 4.92-2.173 10.086-2.173 13.817 0 7.497 3.973 6.368 6.642-.779-.174 2.266-.142 5.863 2.132 5.863 1.599 0 3.444-2.501 5.002-5.822.41.41 1.107.533 1.681.533 1.349 0 2.483-.831 3.368-2.317-.646 3.834-1.114 5.802-1.114 7.196 0 .082.041.164.041.205h2.05c.246-1.558.451-3.116.656-4.633 2.352-10.173 7.011-15.091 7.011-11.152 0 3.571-6.137 15.99-.574 15.99 1.96-.036 3.765-3.077 5.254-6.618-.062.641-.101 1.269-.101 1.861 0 2.911.779 4.756 2.542 4.756 2.214 0 3.813-2.911 4.961-6.191-.204 1.956-.543 6.191 1.476 6.191 1.592 0 2.977-2.357 5.446-8.191-.178 2.667-.323 8.273 2.335 8.273 2.255 0 3.936-3.116 6.396-9.676.001-.306-.439-.49-.696-.49zm-2.173-16.77c1.627 0-.517 6.426-1.066 7.954h-1.312c.861-5.002 1.599-7.954 2.378-7.954zm-2.583 9.266h1.025l-1.64 4.1zm-23.266-13.57c2.117 0-3.197 12.76-4.059 14.719 1.353-7.339 2.747-14.719 4.059-14.719zm-13.366 22.631c-.205-.82-.287-1.886-.287-3.116 0-12.732 5.815-12.086.287 3.116zm22.209 6.684c-3.14 0 .37-15.662 3.485-15.662 4.107-.001-.481 15.662-3.485 15.662z" fill="#fff"/><path d="m82.361 74.506c-6.109 5.248-20.951 9.717-20.951 19.844 0 4.797 3.444 8.036 8.036 8.036 7.417 0 9.116-9.462 2.993-11.931-.369.574-.656 1.148-1.025 1.763 4.068 1.587 2.863 8.118-1.968 8.118-3.198 0-5.74-2.337-5.74-6.355 0-8.405 12.095-12.423 18.286-17.794-2.911 12.628-4.469 23.78-6.806 39.401h2.788c2.485-16.198 3.258-28.239 6.519-41.82.574-.902 1.025-2.091 1.107-3.403l-2.132-.246c-.41 1.394-.861 2.993-1.107 4.387z" fill="#fff"/><path d="m117.698 96.401c-.943 2.419-1.968 3.567-3.321 4.223 2.214-5.658 1.927-13.243-2.419-13.243-4.926 0-6.333 5.427-6.333 5.427-.563 1.967-3.156 11.302-5.348 11.302-2.475 0 2.509-17.946 3.977-30.094h-1.927c-.779 4.141-2.05 10.865-2.952 16.154-.287-1.722-1.066-2.829-2.583-2.829-5.462 0-9.429 19.229-4.182 19.229 2.296 0 3.813-2.911 5.043-6.519-.208 1.613-.948 6.437 1.558 6.437 1.464 0 3.197-2.234 5.195-6.934-.471 8.948 6.185 9.034 9.52 2.26 2.009-.574 3.485-2.296 4.51-5.002.082-.248-.533-.411-.738-.411zm-24.309 8.241c-3.133 0 .343-15.662 3.485-15.662 4.283-.001-.657 15.662-3.485 15.662zm13.198-9.225c.082 3.28 1.517 6.355 5.043 6.642-1.908 4.981-7.252 5.723-5.043-6.642zm5.494 5.494c-6.478 0-5.362-12.927-.205-12.464 2.654.238 2.337 7.093.205 12.464z" fill="#fff"/><g opacity=".15"><path d="m12.593 47.167c-.377 0-.661-.289-.661-.672v-11.047h-5.921v11.046c0 .383-.284.672-.661.672h-1.717c-.377 0-.662-.289-.662-.672v-19.785c0-3.346 2.704-6.068 6.027-6.068 3.293 0 5.973 2.722 5.973 6.068v19.785c0 .383-.284.672-.662.672h-1.716zm-3.594-23.438c-1.647 0-2.988 1.337-2.988 2.98v5.651h5.921v-5.651c0-1.643-1.317-2.98-2.933-2.98z"/><path d="m20.348 47.167c-.837 0-1.544-.707-1.544-1.544v-23.492c0-.866.678-1.544 1.544-1.544h4.579c3.346 0 6.068 2.746 6.068 6.122v2.616c0 1.705-.674 3.259-1.897 4.376l-.162.147.162.147c1.223 1.117 1.897 2.691 1.897 4.431v2.616c0 3.376-2.722 6.123-6.068 6.123h-4.579zm1.544-3.143h3.035c1.643 0 2.98-1.337 2.98-2.98v-2.616c0-1.673-1.337-3.034-2.98-3.034h-3.035zm0-11.718h3.035c1.643 0 2.98-1.337 2.98-2.98v-2.616c0-1.673-1.337-3.034-2.98-3.034h-3.035z"/><path d="m40.949 47.167c-3.376 0-6.123-2.747-6.123-6.123v-14.389c0-3.346 2.747-6.068 6.123-6.068 3.346 0 6.068 2.722 6.068 6.068v14.389c0 3.376-2.722 6.123-6.068 6.123zm0-23.492c-1.673 0-3.035 1.337-3.035 2.98v14.389c0 1.702 1.333 3.035 3.035 3.035 1.643 0 2.98-1.361 2.98-3.035v-14.389c0-1.643-1.337-2.98-2.98-2.98z"/><path d="m56.972 47.167c-3.376 0-6.123-2.747-6.123-6.123v-19.785c0-.385.354-.672.672-.672h1.744c.383 0 .672.289.672.672v19.785c0 1.702 1.333 3.035 3.035 3.035 1.643 0 2.979-1.361 2.979-3.035v-19.785c0-.383.289-.672.672-.672h1.744c.383 0 .672.289.672.672v19.785c.001 3.376-2.721 6.123-6.067 6.123z"/><path d="m70.324 47.167c-.385 0-.672-.354-.672-.672v-22.82h-2.652c-.383 0-.672-.289-.672-.672v-1.744c0-.383.289-.672.672-.672h8.394c.383 0 .672.289.672.672v1.744c0 .383-.289.672-.672.672h-2.654v22.819c0 .317-.287.672-.672.672h-1.744z"/><path d="m104.731 47.167c-.385 0-.672-.354-.672-.672v-19.84c0-1.643-1.361-2.98-3.035-2.98-1.643 0-2.979 1.337-2.979 2.98v19.839c0 .317-.287.672-.672.672h-1.744c-.385 0-.672-.354-.672-.672v-19.839c0-1.643-1.337-2.98-2.979-2.98-1.674 0-3.035 1.337-3.035 2.98v19.839c0 .317-.287.672-.672.672h-1.744c-.326 0-.672-.345-.672-.672v-19.839c0-3.346 2.747-6.068 6.123-6.068 1.63 0 3.227.692 4.379 1.9l.145.151.145-.151c1.152-1.208 2.749-1.9 4.379-1.9 3.376 0 6.123 2.722 6.123 6.068v19.839c0 .317-.287.672-.672.672h-1.746z"/><path d="m112.778 47.167c-.837 0-1.544-.707-1.544-1.544v-23.492c0-.866.678-1.544 1.544-1.544h6.486c.383 0 .672.289.672.672v1.744c0 .383-.289.672-.672.672h-4.942v8.63h4.942c.383 0 .672.289.672.672v1.744c0 .383-.289.672-.672.672h-4.942v8.685h4.942c.383 0 .672.289.672.672v1.744c0 .383-.289.672-.672.672h-6.486z"/></g><path d="m10.592 44.167c-.377 0-.661-.289-.661-.672v-11.046h-5.921v11.046c0 .383-.284.672-.661.672h-1.717c-.377 0-.662-.289-.662-.672v-19.785c0-3.346 2.704-6.068 6.027-6.068 3.293 0 5.973 2.722 5.973 6.068v19.785c0 .383-.284.672-.662.672zm-3.594-23.437c-1.647 0-2.988 1.337-2.988 2.98v5.651h5.921v-5.651c0-1.643-1.316-2.98-2.933-2.98z" fill="#fff"/><path d="m18.348 44.167c-.837 0-1.544-.707-1.544-1.544v-23.491c0-.866.678-1.544 1.544-1.544h4.579c3.346 0 6.068 2.746 6.068 6.122v2.616c0 1.705-.674 3.259-1.897 4.376l-.162.147.162.147c1.223 1.117 1.897 2.691 1.897 4.431v2.616c0 3.376-2.722 6.123-6.068 6.123h-4.579zm1.544-3.143h3.035c1.643 0 2.98-1.337 2.98-2.98v-2.616c0-1.673-1.337-3.034-2.98-3.034h-3.035zm0-11.718h3.035c1.643 0 2.98-1.337 2.98-2.98v-2.616c0-1.673-1.337-3.034-2.98-3.034h-3.035z" fill="#fff"/><path d="m38.949 44.167c-3.376 0-6.123-2.747-6.123-6.123v-14.388c0-3.346 2.747-6.068 6.123-6.068 3.346 0 6.068 2.722 6.068 6.068v14.389c0 3.375-2.723 6.122-6.068 6.122zm0-23.491c-1.673 0-3.035 1.337-3.035 2.98v14.389c0 1.702 1.333 3.035 3.035 3.035 1.643 0 2.98-1.361 2.98-3.035v-14.389c0-1.643-1.337-2.98-2.98-2.98z" fill="#fff"/><path d="m54.972 44.167c-3.376 0-6.123-2.747-6.123-6.123v-19.784c0-.385.354-.672.672-.672h1.744c.383 0 .672.289.672.672v19.785c0 1.702 1.333 3.035 3.035 3.035 1.643 0 2.979-1.361 2.979-3.035v-19.785c0-.383.289-.672.672-.672h1.744c.383 0 .672.289.672.672v19.785c0 3.375-2.722 6.122-6.067 6.122z" fill="#fff"/><path d="m68.324 44.167c-.385 0-.672-.354-.672-.672v-22.819h-2.653c-.383 0-.672-.289-.672-.672v-1.744c0-.383.289-.672.672-.672h8.394c.383 0 .672.289.672.672v1.744c0 .383-.289.672-.672.672h-2.653v22.819c0 .317-.287.672-.672.672z" fill="#fff"/><path d="m102.73 44.167c-.385 0-.672-.354-.672-.672v-19.839c0-1.643-1.361-2.98-3.035-2.98-1.643 0-2.979 1.337-2.979 2.98v19.839c0 .317-.287.672-.672.672h-1.744c-.385 0-.672-.354-.672-.672v-19.839c0-1.643-1.337-2.98-2.979-2.98-1.674 0-3.035 1.337-3.035 2.98v19.839c0 .317-.287.672-.672.672h-1.744c-.326 0-.672-.345-.672-.672v-19.839c0-3.346 2.747-6.068 6.123-6.068 1.63 0 3.227.692 4.379 1.9l.145.151.145-.151c1.152-1.208 2.749-1.9 4.379-1.9 3.376 0 6.123 2.722 6.123 6.068v19.839c0 .317-.287.672-.672.672z" fill="#fff"/><path d="m110.778 44.167c-.837 0-1.544-.707-1.544-1.544v-23.491c0-.866.678-1.544 1.544-1.544h6.486c.383 0 .672.289.672.672v1.744c0 .383-.289.672-.672.672h-4.942v8.63h4.942c.383 0 .672.289.672.672v1.744c0 .383-.289.672-.672.672h-4.942v8.685h4.942c.383 0 .672.289.672.672v1.744c0 .383-.289.672-.672.672z" fill="#fff"/></svg>