<svg enable-background="new 0 0 418 136" height="136" viewBox="0 0 418 136" width="418" xmlns="http://www.w3.org/2000/svg"><path d="m100.121 92.991v29.456c0 7.168-5.712 12.992-12.88 12.992h-9.408c-1.904 0-3.584-1.68-3.584-3.584v-48.271c0-2.017 1.68-3.584 3.584-3.584h9.408c7.167 0 12.88 5.823 12.88 12.991zm-2.913 0c0-5.487-4.48-9.968-9.968-9.968h-9.408c-.336 0-.56.225-.56.561v48.271c0 .336.224.56.56.56h9.408c5.488 0 9.968-4.479 9.968-9.968zm-1.231 0v29.456c0 4.816-3.92 8.736-8.736 8.736h-8.736v-47.04h8.736c4.815.001 8.736 3.92 8.736 8.848zm-3.024 0c0-3.247-2.576-5.823-5.712-5.823h-5.824v40.991h5.824c3.136 0 5.712-2.575 5.712-5.712z" fill="#fff"/><path d="m115.128 87.168v16.912h9.744c1.008 0 1.792.783 1.792 1.791v3.584c0 1.009-.784 1.793-1.792 1.793h-9.744v17.023h9.744c1.008 0 1.792.784 1.792 1.792v3.584c0 1.008-.784 1.792-1.792 1.792h-13.328c-2.016 0-3.584-1.68-3.584-3.584v-48.271c0-2.017 1.568-3.584 3.584-3.584h13.328c1.008 0 1.792.783 1.792 1.792v3.584c0 1.008-.784 1.792-1.792 1.792zm-3.024 19.936v-22.96h11.088c.224 0 .448-.112.448-.448v-.224c0-.224-.224-.448-.448-.448h-11.648c-.336 0-.56.225-.56.561v48.271c0 .336.224.56.56.56h11.648c.224 0 .448-.224.448-.447v-.225c0-.336-.224-.56-.448-.56h-11.088v-22.96h11.088c.224 0 .448-.112.448-.448v-.224c0-.225-.224-.448-.448-.448z" fill="#fff"/><path d="m160.018 81.903v34.832c0 2.576-.784 5.04-2.128 7.168l-6.048 10.64c-.336.561-.896.896-1.568.896h-6.272c-.672 0-1.232-.336-1.568-.896l-6.048-10.64c-1.344-2.128-2.128-4.592-2.128-7.168v-34.832c0-1.008.784-1.792 1.792-1.792h3.584c1.008 0 1.792.784 1.792 1.792v34.832c0 .672.112 1.232.336 1.792l5.376 9.632 5.488-9.632c.112-.56.224-1.12.224-1.792v-34.832c0-1.008.896-1.792 1.792-1.792h3.584c1.008 0 1.792.785 1.792 1.792zm-2.913 1.681c0-.225-.224-.448-.56-.448h-.224c-.224 0-.448.224-.448.448v33.039c0 0 0 2.353-1.12 4.257l-5.936 10.416h-3.36l-5.936-10.416c-1.12-1.904-1.12-4.257-1.12-4.257v-33.039c0-.225-.224-.448-.448-.448h-.224c-.336 0-.56.224-.56.448v33.039c0 .112.112 2.688 1.344 4.816l6.048 10.752c.112.112.336.336.56.336h4.032c.224 0 .448-.224.56-.336l6.048-10.752c1.344-2.128 1.344-4.704 1.344-4.816z" fill="#fff"/><path d="m175.07 87.168v16.912h9.744c1.008 0 1.792.783 1.792 1.791v3.584c0 1.009-.784 1.793-1.792 1.793h-9.744v17.023h9.744c1.008 0 1.792.784 1.792 1.792v3.584c0 1.008-.784 1.792-1.792 1.792h-13.328c-2.016 0-3.584-1.68-3.584-3.584v-48.271c0-2.017 1.568-3.584 3.584-3.584h13.328c1.008 0 1.792.783 1.792 1.792v3.584c0 1.008-.784 1.792-1.792 1.792zm-3.024 19.936v-22.96h11.088c.224 0 .448-.112.448-.448v-.224c0-.224-.224-.448-.448-.448h-11.648c-.336 0-.56.225-.56.561v48.271c0 .336.224.56.56.56h11.648c.224 0 .448-.224.448-.447v-.225c0-.336-.224-.56-.448-.56h-11.088v-22.96h11.088c.224 0 .448-.112.448-.448v-.224c0-.225-.224-.448-.448-.448z" fill="#fff"/><path d="m212.791 130.063v3.584c0 .896-.784 1.792-1.792 1.792h-13.215c-2.016 0-3.584-1.68-3.584-3.584v-50.063c0-1.009.784-1.792 1.792-1.792h3.584c.896 0 1.792.783 1.792 1.792v46.479h9.631c1.008 0 1.792.785 1.792 1.792zm-2.912 1.569c0-.225-.224-.448-.56-.448h-10.976v-47.712c0-.336-.224-.448-.448-.448h-.336c-.224 0-.448.112-.448.448v48.384c0 .336.336.56.672.56h11.536c.336 0 .56-.224.56-.447z" fill="#fff"/><path d="m245.215 92.88v29.567c0 7.168-5.824 12.992-12.88 12.992-7.168 0-12.992-5.824-12.992-12.992v-29.567c0-7.057 5.824-12.88 12.992-12.88 7.056 0 12.88 5.823 12.88 12.88zm-3.025 0c0-5.488-4.368-9.856-9.855-9.856-5.488 0-9.968 4.368-9.968 9.856v29.567c0 5.488 4.479 9.968 9.968 9.968 5.487 0 9.855-4.479 9.855-9.968zm-1.12 0v29.567c0 4.816-3.92 8.736-8.735 8.736-4.816 0-8.736-3.92-8.736-8.736v-29.567c0-4.816 3.92-8.736 8.736-8.736 4.815 0 8.735 3.919 8.735 8.736zm-3.023 0c0-3.136-2.576-5.712-5.712-5.712-3.248 0-5.824 2.576-5.824 5.712v29.567c0 3.248 2.576 5.824 5.824 5.824 3.136 0 5.712-2.576 5.712-5.824z" fill="#fff"/><path d="m278.926 92.88v5.376c0 7.168-5.824 12.992-12.88 12.992h-5.824v22.399c0 .896-.784 1.792-1.792 1.792h-3.584c-.896 0-1.792-.896-1.792-1.792v-22.399-7.168-22.288c0-1.009.896-1.792 1.792-1.792h11.2c7.056 0 12.88 5.823 12.88 12.88zm-2.912 0c0-5.488-4.48-9.856-9.968-9.856h-9.521c-.224 0-.447.112-.447.448v23.52 1.232 23.744c0 .224.224.447.447.447h.336c.225 0 .448-.224.448-.447v-23.744h8.736c5.487 0 9.968-4.48 9.968-9.968v-5.376zm-1.233 0v5.376c0 4.815-3.92 8.735-8.735 8.735h-8.736v-22.847h8.736c4.815 0 8.735 3.919 8.735 8.736zm-3.023 0c0-3.136-2.576-5.712-5.712-5.712h-5.824v16.912h5.824c3.136 0 5.712-2.576 5.712-5.824z" fill="#fff"/><path d="m330.043 92.88v40.768c0 .896-.784 1.792-1.792 1.792h-3.584c-1.009 0-1.792-.896-1.792-1.792v-40.768c0-3.136-2.576-5.712-5.824-5.712-3.136 0-5.712 2.576-5.712 5.712v40.768c0 .896-.784 1.792-1.792 1.792h-3.584c-1.008 0-1.792-.896-1.792-1.792v-40.768c0-3.136-2.576-5.712-5.712-5.712-3.248 0-5.824 2.576-5.824 5.712v40.768c0 .896-.784 1.792-1.792 1.792h-3.584c-.896 0-1.792-.896-1.792-1.792v-40.768c0-7.057 5.824-12.88 12.992-12.88 3.584 0 6.943 1.567 9.296 4.031 2.352-2.464 5.712-4.031 9.296-4.031 7.168 0 12.992 5.823 12.992 12.88zm-3.024 0c0-5.488-4.479-9.856-9.968-9.856-4.256 0-7.952 2.688-9.296 6.496-1.345-3.808-5.04-6.496-9.296-6.496-5.488 0-9.969 4.368-9.969 9.856v39.088c0 .224.225.447.448.447h.225c.336 0 .56-.224.56-.447v-39.088c0-4.816 3.92-8.736 8.736-8.736 4.815 0 8.735 3.92 8.735 8.736v39.088c0 .224.225.447.448.447h.224c.337 0 .448-.224.448-.447v-39.088c0-4.816 3.92-8.736 8.736-8.736 4.815 0 8.735 3.92 8.735 8.736v39.088c0 .224.225.447.561.447h.224c.225 0 .448-.224.448-.447v-39.088z" fill="#fff"/><path d="m345.273 87.168v16.912h9.744c1.008 0 1.792.783 1.792 1.791v3.584c0 1.009-.784 1.793-1.792 1.793h-9.744v17.023h9.744c1.008 0 1.792.784 1.792 1.792v3.584c0 1.008-.784 1.792-1.792 1.792h-13.328c-2.016 0-3.584-1.68-3.584-3.584v-48.271c0-2.017 1.568-3.584 3.584-3.584h13.328c1.008 0 1.792.783 1.792 1.792v3.584c0 1.008-.784 1.792-1.792 1.792zm-3.024 19.936v-22.96h11.088c.225 0 .448-.112.448-.448v-.224c0-.224-.224-.448-.448-.448h-11.647c-.336 0-.561.225-.561.561v48.271c0 .336.225.56.561.56h11.647c.225 0 .448-.224.448-.447v-.225c0-.336-.224-.56-.448-.56h-11.088v-22.96h11.088c.225 0 .448-.112.448-.448v-.224c0-.225-.224-.448-.448-.448z" fill="#fff"/><path d="m390.275 92.88v40.768c0 .896-.784 1.792-1.792 1.792h-3.584c-1.008 0-1.792-.896-1.792-1.792v-40.768c0-3.136-2.576-5.712-5.712-5.712-3.248 0-5.824 2.576-5.824 5.712v40.768c0 .896-.784 1.792-1.792 1.792h-3.584c-1.008 0-1.792-.896-1.792-1.792v-40.768c0-7.057 5.824-12.88 12.992-12.88 7.056 0 12.88 5.823 12.88 12.88zm-3.024 0c0-5.488-4.368-9.856-9.855-9.856-5.488 0-9.968 4.368-9.968 9.856v39.088c0 .224.224.447.447.447h.225c.336 0 .56-.224.56-.447v-39.088c0-4.816 3.92-8.736 8.736-8.736 4.815 0 8.735 3.92 8.735 8.736v39.088c0 .224.225.447.448.447h.224c.336 0 .448-.224.448-.447z" fill="#fff"/><path d="m417.659 81.792v3.584c0 1.008-.784 1.792-1.792 1.792h-5.04v46.479c0 .896-.784 1.792-1.792 1.792h-3.584c-1.008 0-1.792-.896-1.792-1.792v-46.479h-5.04c-1.008 0-1.792-.784-1.792-1.792v-3.584c0-1.009.784-1.792 1.792-1.792h17.248c1.008 0 1.792.783 1.792 1.792zm-3.024 1.68c0-.336-.224-.448-.447-.448h-13.889c-.224 0-.447.112-.447.448v.224c0 .225.224.448.447.448h6.385v47.824c0 .224.224.447.447.447h.225c.336 0 .447-.224.447-.447v-47.824h6.385c.224 0 .447-.224.447-.448z" fill="#fff"/><path d="m241.12 13.741v29.456c0 7.168-5.712 12.992-12.88 12.992h-9.408c-1.904 0-3.584-1.68-3.584-3.584v-48.271c0-2.017 1.68-3.584 3.584-3.584h9.408c7.168 0 12.88 5.823 12.88 12.991zm-2.912 0c0-5.487-4.479-9.968-9.968-9.968h-9.408c-.336 0-.561.225-.561.561v48.271c0 .336.225.56.561.56h9.408c5.488 0 9.968-4.479 9.968-9.968zm-1.231 0v29.456c0 4.816-3.921 8.736-8.736 8.736h-8.736v-47.039h8.736c4.815 0 8.736 3.919 8.736 8.847zm-3.025 0c0-3.247-2.576-5.823-5.712-5.823h-5.824v40.991h5.824c3.136 0 5.712-2.575 5.712-5.712z" fill="#fff"/><path d="m256.127 7.918v16.912h9.744c1.008 0 1.792.783 1.792 1.791v3.584c0 1.009-.784 1.793-1.792 1.793h-9.744v17.023h9.744c1.008 0 1.792.784 1.792 1.792v3.584c0 1.008-.784 1.792-1.792 1.792h-13.328c-2.016 0-3.584-1.68-3.584-3.584v-48.271c0-2.017 1.568-3.584 3.584-3.584h13.328c1.008 0 1.792.783 1.792 1.792v3.584c0 1.008-.784 1.792-1.792 1.792zm-3.023 19.936v-22.96h11.088c.225 0 .447-.112.447-.448v-.224c0-.224-.223-.448-.447-.448h-11.648c-.336 0-.56.225-.56.561v48.271c0 .336.224.56.56.56h11.648c.225 0 .447-.224.447-.447v-.225c0-.336-.223-.56-.447-.56h-11.088v-22.96h11.088c.225 0 .447-.112.447-.448v-.224c0-.225-.223-.448-.447-.448z" fill="#fff"/><path d="m292.796 17.438v-3.808c0-3.136-2.575-5.712-5.712-5.712-3.136 0-5.712 2.576-5.712 5.712 0 1.456 0 1.456.336 1.903l15.567 20.608c2.688 3.584 2.688 3.584 2.688 7.168 0 7.056-5.823 12.88-12.88 12.88-7.056 0-12.88-5.824-12.88-12.88v-3.808c0-1.009.784-1.792 1.792-1.792h3.584c1.008 0 1.792.783 1.792 1.792v3.808c0 3.136 2.576 5.712 5.712 5.712 3.137 0 5.712-2.576 5.712-5.712 0-1.456 0-1.456-.336-1.904l-15.567-20.607c-2.688-3.584-2.688-3.584-2.688-7.168 0-7.057 5.824-12.88 12.88-12.88 7.057 0 12.88 5.823 12.88 12.88v3.808c0 1.008-.784 1.792-1.792 1.792h-3.584c-1.008-.001-1.792-.785-1.792-1.792zm3.024-3.808v2.128c0 .336.224.56.447.56h.225c.224 0 .447-.224.447-.56v-2.128c0-5.488-4.367-9.856-9.855-9.856-2.688 0-5.152 1.008-6.943 2.912-1.904 1.792-2.912 4.368-2.912 6.944v.111c0 0 0 0 0-.111 0 .111 0 .111 0 .111v1.345c0 .672.224 1.567.672 2.016l17.472 23.408c.224.336.448 1.008.448 1.344v1.344.112-.112.112c0 4.815-3.92 8.736-8.736 8.736s-8.736-3.921-8.736-8.736v-2.128c0-.336-.224-.561-.447-.561h-.225c-.224 0-.447.225-.447.561v2.128c0 5.488 4.367 9.855 9.855 9.855 2.688 0 5.152-1.008 6.944-2.911 1.903-1.792 2.911-4.257 2.911-6.944v-.112-1.344c0-.672-.224-1.568-.672-2.016l-17.472-23.408c-.224-.336-.448-1.008-.448-1.344v-1.345c0 0 0 0 0-.111 0-4.816 3.92-8.736 8.736-8.736s8.736 3.919 8.736 8.736z" fill="#fff"/><path d="m314.232 54.397c0 1.008-.783 1.792-1.791 1.792h-3.584c-1.009 0-1.793-.784-1.793-1.792v-51.855c0-1.009.784-1.792 1.793-1.792h3.584c.896 0 1.791.783 1.791 1.792zm-3.023-50.175c0-.224-.225-.448-.448-.448h-.224c-.336 0-.561.225-.561.448v48.496c0 .224.225.447.561.447h.224c.224 0 .448-.224.448-.447z" fill="#fff"/><path d="m340.597 17.55v-3.809c0-3.247-2.576-5.712-5.712-5.712s-5.712 2.465-5.712 5.712v29.681c0 3.136 2.576 5.712 5.712 5.712s5.712-2.576 5.712-5.712v-11.536h-3.92c-1.008 0-1.792-.784-1.792-1.681v-3.584c0-1.008.784-1.791 1.792-1.791h9.296c1.008 0 1.792.783 1.792 1.791v16.801c0 7.056-5.823 12.768-12.88 12.768s-12.88-5.712-12.88-12.768v-29.681c0-7.168 5.823-12.88 12.88-12.88s12.88 5.712 12.88 12.88v3.809c0 1.008-.784 1.792-1.792 1.792h-3.584c-1.008 0-1.792-.784-1.792-1.792zm3.024-3.809v2.128c0 .225.224.448.447.448h.225c.336 0 .447-.224.447-.448v-2.128c0-5.487-4.367-9.968-9.855-9.968s-9.855 4.48-9.855 9.968v29.681c0 5.376 4.367 9.855 9.855 9.855s9.855-4.479 9.855-9.855v-15.233c0-.224-.111-.448-.447-.448h-5.936c-.337 0-.449.225-.449.448v.336c0 .225.112.448.449.448h5.264v14.448c0 4.703-3.92 8.624-8.736 8.624s-8.736-3.921-8.736-8.624v-29.68c0-4.815 3.92-8.735 8.736-8.735s8.736 3.92 8.736 8.735z" fill="#fff"/><path d="m381.24 13.63v40.768c0 .896-.784 1.792-1.792 1.792h-3.584c-1.008 0-1.792-.896-1.792-1.792v-40.768c0-3.136-2.576-5.712-5.712-5.712-3.248 0-5.824 2.576-5.824 5.712v40.768c0 .896-.784 1.792-1.792 1.792h-3.584c-1.008 0-1.792-.896-1.792-1.792v-40.768c0-7.057 5.823-12.88 12.992-12.88 7.056 0 12.88 5.823 12.88 12.88zm-3.024 0c0-5.488-4.368-9.856-9.855-9.856-5.488 0-9.968 4.368-9.968 9.856v39.088c0 .224.224.447.447.447h.225c.336 0 .56-.224.56-.447v-39.088c0-4.816 3.92-8.736 8.736-8.736 4.815 0 8.735 3.92 8.735 8.736v39.088c0 .224.225.447.448.447h.224c.336 0 .448-.224.448-.447z" fill="#fff"/><g fill="#fff" opacity=".5"><path d="m35.848 6.453v12.359c0 3.008-2.397 5.452-5.405 5.452h-3.948c-.799 0-1.504-.705-1.504-1.504v-20.255c0-.846.705-1.504 1.504-1.504h3.948c3.008 0 5.405 2.444 5.405 5.452zm-3.008 0c0-1.363-1.081-2.444-2.397-2.444h-2.443v17.201h2.444c1.316 0 2.397-1.081 2.397-2.397v-12.36z"/><path d="m42.428 23.513c0 .423-.329.752-.752.752h-1.504c-.423 0-.752-.329-.752-.752v-21.76c0-.423.329-.752.752-.752h1.504c.376 0 .752.329.752.752z"/><path d="m53.778 8.051v-1.598c0-1.363-1.081-2.397-2.397-2.397s-2.397 1.034-2.397 2.397v12.454c0 1.315 1.081 2.396 2.397 2.396s2.397-1.081 2.397-2.396v-4.841h-1.645c-.423 0-.752-.329-.752-.705v-1.504c0-.423.329-.752.752-.752h3.901c.423 0 .752.329.752.752v7.05c0 2.961-2.444 5.357-5.405 5.357s-5.405-2.396-5.405-5.357v-12.454c0-3.008 2.444-5.405 5.405-5.405s5.405 2.397 5.405 5.405v1.598c0 .423-.329.752-.752.752h-1.504c-.424 0-.752-.329-.752-.752z"/><path d="m63.304 23.513c0 .423-.329.752-.752.752h-1.504c-.423 0-.752-.329-.752-.752v-21.76c0-.423.329-.752.752-.752h1.504c.376 0 .752.329.752.752z"/><path d="m75.274 1.753v1.504c0 .423-.329.752-.752.752h-2.115v19.504c0 .376-.329.752-.752.752h-1.504c-.423 0-.752-.376-.752-.752v-19.504h-2.115c-.423 0-.752-.329-.752-.752v-1.504c0-.423.329-.752.752-.752h7.237c.424 0 .753.329.753.752z"/><path d="m89.134 6.453v17.06c0 .423-.329.752-.752.752h-1.504c-.423 0-.752-.329-.752-.752v-9.353h-4.841v9.353c0 .423-.329.752-.752.752h-1.503c-.423 0-.752-.329-.752-.752v-17.06c0-2.961 2.444-5.405 5.452-5.405 2.96 0 5.404 2.444 5.404 5.405zm-3.008 0c0-1.316-1.081-2.397-2.397-2.397-1.363 0-2.444 1.081-2.444 2.397v4.699h4.841z"/><path d="m100.546 22.009v1.504c0 .376-.329.752-.752.752h-5.546c-.846 0-1.504-.705-1.504-1.504v-21.008c0-.423.329-.752.752-.752h1.504c.376 0 .752.329.752.752v19.504h4.042c.423 0 .752.329.752.752z"/><path d="m121.602 6.406v2.256c0 3.008-2.444 5.451-5.405 5.451h-2.444v9.399c0 .376-.329.752-.752.752h-1.504c-.376 0-.752-.376-.752-.752v-9.399-3.008-9.352c0-.423.376-.752.752-.752h4.7c2.961 0 5.405 2.444 5.405 5.405zm-3.008 0c0-1.316-1.081-2.397-2.397-2.397h-2.444v7.097h2.444c1.316 0 2.397-1.081 2.397-2.443z"/><path d="m135.312 8.662c0 1.551-.611 2.96-1.645 3.947 1.034.987 1.645 2.35 1.645 3.9v7.003c0 .376-.329.752-.752.752h-1.504c-.423 0-.752-.376-.752-.752v-7.002c0-1.315-1.081-2.396-2.397-2.396h-2.397v9.399c0 .376-.376.752-.752.752h-1.504c-.423 0-.752-.376-.752-.752v-21.008c0-.846.658-1.504 1.504-1.504h3.901c3.008 0 5.405 2.444 5.405 5.405zm-3.008-2.256c0-1.316-1.081-2.397-2.397-2.397h-2.397v7.097h2.397c1.316 0 2.397-1.081 2.397-2.443z"/><path d="m149.642 6.406v12.406c0 3.008-2.444 5.452-5.405 5.452-3.008 0-5.452-2.444-5.452-5.452v-12.406c0-2.961 2.444-5.405 5.452-5.405 2.961 0 5.405 2.444 5.405 5.405zm-3.008 0c0-1.316-1.081-2.397-2.397-2.397-1.363 0-2.444 1.081-2.444 2.397v12.406c0 1.363 1.081 2.444 2.444 2.444 1.316 0 2.397-1.081 2.397-2.444z"/><path d="m164.07 6.453v12.359c0 3.008-2.397 5.452-5.405 5.452h-3.948c-.799 0-1.504-.705-1.504-1.504v-20.255c0-.846.705-1.504 1.504-1.504h3.948c3.008 0 5.405 2.444 5.405 5.452zm-3.007 0c0-1.363-1.081-2.444-2.397-2.444h-2.444v17.201h2.444c1.316 0 2.397-1.081 2.397-2.397z"/><path d="m178.438 1.753v17.06c0 3.008-2.443 5.452-5.404 5.452-3.008 0-5.452-2.444-5.452-5.452v-17.06c0-.423.376-.752.752-.752h1.504c.423 0 .752.329.752.752v17.06c0 1.363 1.081 2.444 2.444 2.444 1.316 0 2.396-1.081 2.396-2.444v-17.06c0-.423.329-.752.752-.752h1.504c.423 0 .752.329.752.752z"/><path d="m189.751 8.004v-1.598c0-1.316-1.081-2.397-2.396-2.397s-2.396 1.081-2.396 2.397v12.454c0 1.315 1.081 2.396 2.396 2.396s2.396-1.081 2.396-2.396v-1.739c0-.423.329-.752.752-.752h1.504c.423 0 .752.329.752.752v1.739c0 2.96-2.443 5.404-5.404 5.404-3.008 0-5.404-2.444-5.404-5.404v-12.454c0-2.961 2.396-5.405 5.404-5.405 2.961 0 5.404 2.444 5.404 5.405v1.598c0 .423-.329.752-.752.752h-1.504c-.423 0-.752-.329-.752-.752z"/><path d="m204.307 1.753v1.504c0 .423-.329.752-.752.752h-2.115v19.504c0 .376-.329.752-.752.752h-1.504c-.423 0-.752-.376-.752-.752v-19.504h-2.115c-.423 0-.752-.329-.752-.752v-1.504c0-.423.329-.752.752-.752h7.238c.423 0 .752.329.752.752z"/></g><g fill="#fff" opacity=".5"><path d="m63.775 40.508v1.504c0 .423-.329.752-.752.752h-2.397v11.749c0 .423-.376.752-.752.752h-4.7c-2.961 0-5.405-2.444-5.405-5.452v-4.605c0-1.551.611-2.961 1.692-3.947-1.081-.987-1.692-2.35-1.692-3.901 0-3.008 2.444-5.451 5.405-5.451h1.598c.423 0 .752.376.752.752v1.551c0 .376-.329.752-.752.752h-1.598c-1.316 0-2.397 1.081-2.397 2.396 0 1.316 1.081 2.397 2.397 2.397h2.444v-2.397c0-.423.329-.752.752-.752h1.504c.376 0 .752.329.752.752v2.397h2.397c.423-.001.752.375.752.751zm-6.156 2.256h-2.444c-1.316 0-2.397 1.128-2.397 2.443v4.605c0 1.363 1.081 2.444 2.397 2.444h2.444z"/><path d="m76.982 54.513c0 .423-.329.752-.752.752h-1.504c-.423 0-.752-.329-.752-.752v-21.76c0-.423.329-.752.752-.752h1.504c.376 0 .752.329.752.752z"/><path d="m91.424 37.406v17.106c0 .376-.329.752-.752.752h-1.504c-.423 0-.752-.376-.752-.752v-17.106c0-1.316-1.081-2.397-2.397-2.397-1.363 0-2.444 1.081-2.444 2.397v17.106c0 .376-.329.752-.752.752h-1.503c-.423 0-.752-.376-.752-.752v-17.106c0-2.961 2.444-5.405 5.452-5.405 2.96 0 5.404 2.444 5.404 5.405z"/><path d="m103.193 32.753v1.504c0 .423-.329.752-.752.752h-2.115v19.504c0 .376-.329.752-.752.752h-1.504c-.423 0-.752-.376-.752-.752v-19.504h-2.115c-.423 0-.752-.329-.752-.752v-1.504c0-.423.329-.752.752-.752h7.237c.424 0 .753.329.753.752z"/><path d="m109.454 35.009v7.097h4.089c.423 0 .752.329.752.752v1.504c0 .423-.329.752-.752.752h-4.089v7.144h4.089c.423 0 .752.329.752.752v1.504c0 .423-.329.752-.752.752h-5.593c-.846 0-1.504-.705-1.504-1.504v-20.257c0-.846.658-1.504 1.504-1.504h5.593c.423 0 .752.329.752.752v1.504c0 .423-.329.752-.752.752z"/><path d="m128.465 39.662c0 1.551-.611 2.96-1.645 3.947 1.034.987 1.645 2.35 1.645 3.9v7.003c0 .376-.329.752-.752.752h-1.504c-.423 0-.752-.376-.752-.752v-7.002c0-1.315-1.081-2.396-2.397-2.396h-2.397v9.399c0 .376-.376.752-.752.752h-1.504c-.423 0-.752-.376-.752-.752v-21.008c0-.846.658-1.504 1.504-1.504h3.901c3.008 0 5.405 2.444 5.405 5.405zm-3.008-2.256c0-1.316-1.081-2.397-2.397-2.397h-2.397v7.097h2.397c1.316 0 2.397-1.081 2.397-2.443z"/><path d="m142.865 37.453v17.06c0 .423-.329.752-.752.752h-1.504c-.423 0-.752-.329-.752-.752v-9.353h-4.841v9.353c0 .423-.329.752-.752.752h-1.504c-.423 0-.752-.329-.752-.752v-17.06c0-2.961 2.444-5.405 5.452-5.405 2.961 0 5.405 2.444 5.405 5.405zm-3.008 0c0-1.316-1.081-2.397-2.397-2.397-1.363 0-2.444 1.081-2.444 2.397v4.699h4.841z"/><path d="m154.211 39.004v-1.598c0-1.316-1.081-2.397-2.397-2.397s-2.397 1.081-2.397 2.397v12.454c0 1.315 1.081 2.396 2.397 2.396s2.397-1.081 2.397-2.396v-1.739c0-.423.329-.752.752-.752h1.504c.423 0 .752.329.752.752v1.739c0 2.96-2.444 5.404-5.405 5.404-3.008 0-5.405-2.444-5.405-5.404v-12.454c0-2.961 2.397-5.405 5.405-5.405 2.961 0 5.405 2.444 5.405 5.405v1.598c0 .423-.329.752-.752.752h-1.504c-.423 0-.752-.329-.752-.752z"/><path d="m168.767 32.753v1.504c0 .423-.329.752-.752.752h-2.115v19.504c0 .376-.329.752-.752.752h-1.504c-.423 0-.752-.376-.752-.752v-19.504h-2.115c-.423 0-.752-.329-.752-.752v-1.504c0-.423.329-.752.752-.752h7.237c.424 0 .753.329.753.752z"/><path d="m175.027 54.513c0 .423-.329.752-.752.752h-1.504c-.423 0-.752-.329-.752-.752v-21.76c0-.423.329-.752.752-.752h1.504c.376 0 .752.329.752.752z"/><path d="m189.432 37.406v12.406c0 3.008-2.443 5.452-5.404 5.452-3.008 0-5.451-2.444-5.451-5.452v-12.406c0-2.961 2.443-5.405 5.451-5.405 2.96 0 5.404 2.444 5.404 5.405zm-3.008 0c0-1.316-1.08-2.397-2.396-2.397-1.363 0-2.443 1.081-2.443 2.397v12.406c0 1.363 1.08 2.444 2.443 2.444 1.316 0 2.396-1.081 2.396-2.444z"/><path d="m203.838 37.406v17.106c0 .376-.329.752-.752.752h-1.504c-.424 0-.752-.376-.752-.752v-17.106c0-1.316-1.081-2.397-2.397-2.397-1.362 0-2.443 1.081-2.443 2.397v17.106c0 .376-.329.752-.752.752h-1.504c-.423 0-.752-.376-.752-.752v-17.106c0-2.961 2.443-5.405 5.451-5.405 2.961 0 5.405 2.444 5.405 5.405z"/></g><g fill="#fff" opacity=".5"><path d="m3.796 83.009v7.097h4.089c.423 0 .752.329.752.752v1.504c0 .423-.329.752-.752.752h-4.089v9.399c0 .423-.329.752-.752.752h-1.503c-.423 0-.752-.329-.752-.752v-21.008c0-.846.658-1.504 1.504-1.504h5.593c.423 0 .752.329.752.752v1.504c0 .423-.329.752-.752.752z"/><path d="m22.807 87.662c0 1.551-.611 2.96-1.645 3.947 1.034.987 1.645 2.35 1.645 3.9v7.003c0 .376-.329.752-.752.752h-1.504c-.423 0-.752-.376-.752-.752v-7.002c0-1.315-1.081-2.396-2.396-2.396h-2.397v9.399c0 .376-.376.752-.752.752h-1.504c-.423 0-.752-.376-.752-.752v-21.008c0-.846.658-1.504 1.504-1.504h3.901c3.008 0 5.404 2.444 5.404 5.405zm-3.008-2.256c0-1.316-1.081-2.397-2.396-2.397h-2.397v7.097h2.397c1.316 0 2.396-1.081 2.396-2.443z"/><path d="m37.137 85.406v12.406c0 3.008-2.443 5.452-5.404 5.452-3.008 0-5.452-2.444-5.452-5.452v-12.406c0-2.961 2.444-5.405 5.452-5.405 2.961 0 5.404 2.444 5.404 5.405zm-3.008 0c0-1.316-1.081-2.397-2.396-2.397-1.363 0-2.444 1.081-2.444 2.397v12.406c0 1.363 1.081 2.444 2.444 2.444 1.316 0 2.396-1.081 2.396-2.444z"/><path d="m51.538 85.406v17.106c0 .376-.328.752-.752.752h-1.504c-.423 0-.752-.376-.752-.752v-17.106c0-1.316-1.08-2.397-2.396-2.397-1.363 0-2.443 1.081-2.443 2.397v17.106c0 .376-.329.752-.752.752h-1.504c-.424 0-.752-.376-.752-.752v-17.106c0-2.961 2.443-5.405 5.451-5.405 2.96 0 5.404 2.444 5.404 5.405z"/><path d="m63.308 80.753v1.504c0 .423-.329.752-.752.752h-2.115v19.504c0 .376-.329.752-.752.752h-1.504c-.423 0-.752-.376-.752-.752v-19.504h-2.115c-.423 0-.752-.329-.752-.752v-1.504c0-.423.329-.752.752-.752h7.238c.423 0 .752.329.752.752z"/></g><g fill="#fff" opacity=".5"><path d="m29.2 114.009v7.097h4.089c.423 0 .752.329.752.752v1.504c0 .423-.329.752-.752.752h-4.089v7.144h4.089c.423 0 .752.329.752.752v1.504c0 .423-.329.752-.752.752h-5.593c-.846 0-1.504-.705-1.504-1.504v-20.256c0-.846.658-1.504 1.504-1.504h5.593c.423 0 .752.329.752.752v1.504c0 .423-.329.752-.752.752h-4.089z"/><path d="m48.37 116.406v17.106c0 .376-.328.752-.752.752h-1.504c-.423 0-.752-.376-.752-.752v-17.106c0-1.316-1.08-2.397-2.396-2.397-1.363 0-2.443 1.081-2.443 2.397v17.106c0 .376-.329.752-.752.752h-1.504c-.424 0-.752-.376-.752-.752v-17.106c0-2.961 2.443-5.405 5.451-5.405 2.96 0 5.404 2.444 5.404 5.405z"/><path d="m62.836 116.453v12.359c0 3.008-2.396 5.452-5.404 5.452h-3.947c-.799 0-1.504-.705-1.504-1.504v-20.256c0-.846.705-1.504 1.504-1.504h3.947c3.008.001 5.404 2.445 5.404 5.453zm-3.007 0c0-1.363-1.08-2.444-2.396-2.444h-2.443v17.201h2.443c1.316 0 2.396-1.081 2.396-2.397z"/></g><path d="m213.117 67.784v1.344c0 .379-.295.673-.672.673h-2.102v2.1c0 .379-.293.673-.672.673h-1.345c-.378 0-.672-.294-.672-.673v-2.1h-2.101c-.378 0-.672-.294-.672-.673v-1.344c0-.378.294-.672.672-.672h2.101v-2.101c0-.378.294-.672.672-.672h1.345c.379 0 .672.294.672.672v2.101h2.102c.377 0 .672.294.672.672z" fill="#fff" opacity=".5"/><path d="m201 68.5c0 .276-.224.5-.5.5h-200c-.276 0-.5-.224-.5-.5l0 0c0-.276.224-.5.5-.5h200c .276 0 .5.224.5.5z" fill="#fff" opacity=".15"/><path d="m418 68.5c0 .276-.224.5-.5.5h-200c-.276 0-.5-.224-.5-.5l0 0c0-.276.224-.5.5-.5h200c .276 0 .5.224.5.5z" fill="#fff" opacity=".15"/></svg>