<?xml version="1.0" encoding="utf-8"?>
<!-- Generator: Adobe Illustrator 25.4.1, SVG Export Plug-In . SVG Version: 6.00 Build 0)  -->
<svg version="1.1" id="Layer_1" xmlns="http://www.w3.org/2000/svg" xmlns:xlink="http://www.w3.org/1999/xlink" x="0px" y="0px"
	 width="410px" height="800px" viewBox="0 0 410 800" style="enable-background:new 0 0 410 800;" xml:space="preserve">
<style type="text/css">
	.st0{fill:url(#SVGID_1_);}
	.st1{fill:#262B25;}
</style>
<linearGradient id="SVGID_1_" gradientUnits="userSpaceOnUse" x1="0" y1="400" x2="410" y2="400" gradientTransform="matrix(1 0 0 -1 0 800)">
	<stop  offset="0" style="stop-color:#364944"/>
	<stop  offset="0.15" style="stop-color:#26352D"/>
	<stop  offset="0.85" style="stop-color:#26342D"/>
	<stop  offset="1" style="stop-color:#001400"/>
</linearGradient>
<path class="st0" d="M370,800H40c-22.1,0-40-17.9-40-40V40C0,17.9,17.9,0,40,0h330c22.1,0,40,17.9,40,40v720
	C410,782.1,392.1,800,370,800z"/>
<path class="st1" d="M372,789.8H38c-16.6,0-30-13.4-30-30V40.2c0-16.6,13.4-30,30-30h334c16.6,0,30,13.4,30,30v719.7
	C402,776.4,388.6,789.8,372,789.8z"/>
<path class="st1" d="M377,737.5H33c-7.7,0-14-6.3-14-14v-647c0-7.7,6.3-14,14-14h344c7.7,0,14,6.3,14,14v647
	C391,731.2,384.7,737.5,377,737.5z"/>
</svg>
