<svg enable-background="new 0 0 872 540" height="540" viewBox="0 0 872 540" width="872" xmlns="http://www.w3.org/2000/svg" xmlns:xlink="http://www.w3.org/1999/xlink"><linearGradient id="a" gradientUnits="userSpaceOnUse" x1="436.2251" x2="436.2251" y1="535.2656" y2="4.1299"><stop offset="0" stop-color="#dcddde"/><stop offset="1" stop-color="#e6e6e6"/></linearGradient><linearGradient id="b" gradientUnits="userSpaceOnUse" x1="370.2085" x2="502.25" y1="528.5078" y2="528.5078"><stop offset="0" stop-color="#b3b3b6"/><stop offset=".08" stop-color="#e6e6e6"/><stop offset=".92" stop-color="#e6e6e6"/><stop offset="1" stop-color="#b3b3b6"/></linearGradient><path clip-rule="evenodd" d="m765.969 2.296h-659.478c-14.132 0-25.589 12.161-25.589 27.159v481.418c0 14.999 11.457 27.159 25.589 27.159h659.478c14.133 0 25.588-12.16 25.588-27.159v-481.417c0-14.999-11.455-27.16-25.588-27.16" fill="#d2d3d5" fill-rule="evenodd"/><path clip-rule="evenodd" d="m766.424 4.129h-660.398c-12.843 0-23.291 11.095-23.291 24.734v481.667c0 13.639 10.448 24.734 23.291 24.734h660.397c12.842 0 23.291-11.096 23.291-24.734v-481.666c.001-13.639-10.448-24.735-23.29-24.735z" fill="url(#a)" fill-rule="evenodd"/><path clip-rule="evenodd" d="m1.377 527.633c5.924 4.077 20.724 10.108 37.533 10.108h363.697 66.787 363.696c16.809 0 31.609-6.031 37.533-10.108z" fill="#b3b3b6" fill-rule="evenodd"/><path clip-rule="evenodd" d="m871.53 525.516h-871.072c-.237 0-.458.194-.458.445v.039c0 .502.058.662.642 1.088.228.172.474.348.735.527h869.245c.343-.234.653-.463.938-.684.404-.314.439-.533.439-.932v-.024c.001-.25-.253-.459-.469-.459" fill="#e6e8ea" fill-rule="evenodd"/><path clip-rule="evenodd" d="m376.193 531.5h120.073c3.305 0 5.984-2.68 5.984-5.984h-132.042c0 3.304 2.68 5.984 5.985 5.984z" fill="url(#b)" fill-rule="evenodd"/></svg>