<?xml version="1.0" encoding="utf-8"?>
<!-- Generator: Adobe Illustrator 23.0.1, SVG Export Plug-In . SVG Version: 6.00 Build 0)  -->
<svg version="1.1" id="Layer_1" xmlns="http://www.w3.org/2000/svg" xmlns:xlink="http://www.w3.org/1999/xlink" x="0px" y="0px"
	 viewBox="0 0 870 494" enable-background="new 0 0 870 494" xml:space="preserve">
<path fill-rule="evenodd" clip-rule="evenodd" fill="#BDBCB8" d="M198.579,0h-35.395c-0.762,0-1.379,0.617-1.379,1.379v0.919
	c0,0.762,0.617,1.379,1.379,1.379h35.395c0.762,0,1.379-0.617,1.379-1.379V1.379C199.958,0.617,199.341,0,198.579,0 M285.457,0
	h-66.193c-0.762,0-1.379,0.617-1.379,1.379v0.919c0,0.762,0.617,1.379,1.379,1.379h66.193c0.762,0,1.379-0.617,1.379-1.379V1.379
	C286.836,0.617,286.219,0,285.457,0"/>
<path fill-rule="evenodd" clip-rule="evenodd" fill="#D2D3D5" d="M775,484H95c-8.284,0-15-6.716-15-15V17c0-8.284,6.716-15,15-15
	h680c8.284,0,15,6.716,15,15v452C790,477.284,783.284,484,775,484z"/>
<path fill-rule="evenodd" clip-rule="evenodd" fill="#181818" d="M774,482H96c-7.732,0-14-6.268-14-14V18c0-7.732,6.268-14,14-14
	h678c7.732,0,14,6.268,14,14v450C788,475.732,781.732,482,774,482z"/>
<path fill-rule="evenodd" clip-rule="evenodd" fill="#B3B3B6" d="M1.374,484.078C7.284,488.08,22.05,494,38.821,494h362.863h66.634
	H831.18c16.771,0,31.537-5.92,37.447-9.922H1.374z"/>
<path fill-rule="evenodd" clip-rule="evenodd" fill="#E6E8EA" d="M869.532,482H0.457C0.221,482,0,482.19,0,482.437v0.038
	c0,0.493,0.058,0.65,0.641,1.068c0.227,0.169,0.473,0.342,0.733,0.517h867.252c0.342-0.23,0.651-0.454,0.936-0.671
	c0.403-0.308,0.438-0.523,0.438-0.915v-0.024C870.001,482.205,869.748,482,869.532,482"/>
</svg>
