<?xml version="1.0" encoding="utf-8"?>
<!-- Generator: Adobe Illustrator 24.2.3, SVG Export Plug-In . SVG Version: 6.00 Build 0)  -->
<svg version="1.1" id="Layer_1" xmlns="http://www.w3.org/2000/svg" xmlns:xlink="http://www.w3.org/1999/xlink" x="0px" y="0px"
	 width="410px" height="800px" viewBox="0 0 410 800" enable-background="new 0 0 410 800" xml:space="preserve">
<linearGradient id="SVGID_1_" gradientUnits="userSpaceOnUse" x1="0" y1="400" x2="410" y2="400">
	<stop  offset="0" style="stop-color:#363644"/>
	<stop  offset="0.15" style="stop-color:#26262D"/>
	<stop  offset="0.85" style="stop-color:#26262D"/>
	<stop  offset="1" style="stop-color:#000000"/>
</linearGradient>
<path fill="url(#SVGID_1_)" d="M370,800H40c-22.091,0-40-17.909-40-40V40C0,17.909,17.909,0,40,0h330c22.091,0,40,17.909,40,40v720
	C410,782.091,392.091,800,370,800z"/>
<linearGradient id="SVGID_2_" gradientUnits="userSpaceOnUse" x1="8" y1="410" x2="402" y2="410">
	<stop  offset="0" style="stop-color:#FCDD3F"/>
	<stop  offset="0.1" style="stop-color:#FCD021"/>
	<stop  offset="0.9" style="stop-color:#FCD021"/>
	<stop  offset="1" style="stop-color:#F2C420"/>
</linearGradient>
<path fill="url(#SVGID_2_)" d="M372,789.833H38c-16.569,0-30-13.431-30-30V60.167c0-16.569,13.431-30,30-30h334
	c16.569,0,30,13.431,30,30v699.667C402,776.402,388.569,789.833,372,789.833z"/>
<path fill="#26262D" d="M377,737.5H33c-7.732,0-14-6.268-14-14v-647c0-7.732,6.268-14,14-14h344c7.732,0,14,6.268,14,14v647
	C391,731.232,384.732,737.5,377,737.5z"/>
</svg>
