<?xml version="1.0" encoding="utf-8"?>
<!-- Generator: Adobe Illustrator 16.2.0, SVG Export Plug-In . SVG Version: 6.00 Build 0)  -->
<!DOCTYPE svg PUBLIC "-//W3C//DTD SVG 1.1//EN" "http://www.w3.org/Graphics/SVG/1.1/DTD/svg11.dtd">
<svg version="1.1" xmlns="http://www.w3.org/2000/svg" xmlns:xlink="http://www.w3.org/1999/xlink" x="0px" y="0px" width="48px"
	 height="48px" viewBox="0 0 48 48" enable-background="new 0 0 48 48" xml:space="preserve">
<g id="Satellite">
</g>
<g id="Link">
</g>
<g id="Hub">
</g>
<g id="Process">
</g>
<g id="Filter">
</g>
<g id="Edge">
</g>
<g id="Dataflow">
</g>
<g id="Constraint_1_">
</g>
<g id="Attribute">
</g>
<g id="Record">
</g>
<g id="File">
</g>
<g id="Connection">
	<path id="Connection_48x48" d="M44.506,3.494c-1.735-1.737-4.593-1.771-6.384,0.021l-6.421,6.421
		c-3.149-1.1-6.885-0.895-9.115,1.337l-4.243,4.243l3.182,3.182l-2.121,2.121l-3.182-3.182l-4.243,4.242
		c-2.246,2.246-2.431,5.952-1.333,9.111l-7.132,7.132c-1.766,1.766-1.775,4.63-0.021,6.384c1.735,1.737,4.593,1.771,6.384-0.021
		l7.128-7.129c3.173,1.11,6.899,0.881,9.115-1.336l4.243-4.243l-3.243-3.242l2.122-2.121c1.802,1.802,1.086,1.086,3.242,3.242
		l4.243-4.242c2.246-2.246,2.431-5.952,1.333-9.111l6.425-6.425C46.251,8.112,46.261,5.248,44.506,3.494z M24.354,34.253
		c-1.813,1.814-5.708,1.566-8.361-0.124l-8.235,8.235c-0.599,0.599-1.556,0.606-2.142,0.021s-0.576-1.545,0.021-2.142
		c4.559-4.559,4.396-4.396,8.236-8.236c-1.678-2.635-1.946-6.539-0.125-8.36l2.828-2.828l10.606,10.606L24.354,34.253z M25,26.414
		l-3.475-3.475l2.121-2.121l3.475,3.475L25,26.414z M42.364,7.757c-6.532,6.532,0.218-0.218-7.529,7.529
		c1.678,2.635,1.946,6.539,0.125,8.36l-2.828,2.828L21.525,15.868l2.828-2.828c1.813-1.814,5.708-1.566,8.361,0.124
		c8.608-8.608,5.802-5.802,7.528-7.528c0.599-0.599,1.556-0.606,2.142-0.021S42.961,7.16,42.364,7.757z" fill="#FFFFFF"/>
</g>
<g id="SQL_Block">
</g>
<g id="Stored_Procedure">
</g>
<g id="Script">
</g>
<g id="View">
</g>
<g id="Index">
</g>
<g id="Column">
</g>
<g id="Table">
</g>
</svg>
