<?xml version="1.0" encoding="utf-8"?>
<!-- Generator: Adobe Illustrator 16.2.0, SVG Export Plug-In . SVG Version: 6.00 Build 0)  -->
<!DOCTYPE svg PUBLIC "-//W3C//DTD SVG 1.1//EN" "http://www.w3.org/Graphics/SVG/1.1/DTD/svg11.dtd">
<svg version="1.1" xmlns="http://www.w3.org/2000/svg" xmlns:xlink="http://www.w3.org/1999/xlink" x="0px" y="0px" width="48px"
	 height="48px" viewBox="0 0 48 48" enable-background="new 0 0 48 48" xml:space="preserve">
<g id="Satellite">
</g>
<g id="Link">
</g>
<g id="Hub">
</g>
<g id="Process">
</g>
<g id="Filter">
</g>
<g id="Edge">
</g>
<g id="Dataflow">
	<g id="Dataflow_48x48">
		<path d="M32.5,29h-23C7.019,29,5,26.981,5,24.5S7.019,20,9.5,20c0.007,0,0.013,0.002,0.02,0.002h5.972
			c0,0-0.001-0.001-0.001-0.002H26.5c3.037,0,5.5-2.462,5.5-5.5S29.537,9,26.5,9S21,11.462,21,14.5c0,0.169,0.01,0.335,0.025,0.5
			h3.025C24.018,14.838,24,14.671,24,14.5c0-1.379,1.122-2.5,2.5-2.5s2.5,1.121,2.5,2.5S27.878,17,26.5,17c-6.907,0-4.129,0-17,0
			C5.358,17,2,20.357,2,24.5C2,28.644,5.358,32,9.5,32h18.105H32.5c1.378,0,2.5,1.121,2.5,2.5S33.878,37,32.5,37S30,35.879,30,34.5
			c0-0.171,0.018-0.338,0.051-0.5h-3.025C27.01,34.165,27,34.331,27,34.5c0,3.038,2.463,5.5,5.5,5.5s5.5-2.462,5.5-5.5
			S35.537,29,32.5,29z" fill="#FFFFFF"/>
		<path d="M40.5,15c-3.038,0-5.5,2.463-5.5,5.5c0,0.169,0.01,0.335,0.025,0.5h3.025C38.018,20.838,38,20.671,38,20.5
			c0-1.379,1.122-2.5,2.5-2.5s2.5,1.121,2.5,2.5S41.878,23,40.5,23H13.489c-0.457-0.604-1.173-1-1.989-1C10.119,22,9,23.119,9,24.5
			s1.119,2.5,2.5,2.5c0.815,0,1.532-0.396,1.989-1H40.5c3.038,0,5.5-2.462,5.5-5.5C46,17.463,43.538,15,40.5,15z" fill="#FFFFFF"/>
	</g>
</g>
<g id="Constraint_1_">
</g>
<g id="Attribute">
</g>
<g id="Record">
</g>
<g id="File">
</g>
<g id="Connection">
</g>
<g id="SQL_Block">
</g>
<g id="Stored_Procedure">
</g>
<g id="Script">
</g>
<g id="View">
</g>
<g id="Index">
</g>
<g id="Column">
</g>
<g id="Table">
</g>
</svg>
